M48
; DRILL file {KiCad 7.0.9} date Fri Dec  8 20:01:00 2023
; FORMAT={-:-/ absolute / inch / decimal}
; #@! TF.CreationDate,2023-12-08T20:01:00+01:00
; #@! TF.GenerationSoftware,Kicad,Pcbnew,7.0.9
; #@! TF.FileFunction,NonPlated,1,2,NPTH
FMAT,2
INCH
; #@! TA.AperFunction,NonPlated,NPTH,ComponentDrill
T1C0.0197
; #@! TA.AperFunction,NonPlated,NPTH,ComponentDrill
T2C0.1260
%
G90
G05
T1
X2.7657Y-2.4902
X2.7657Y-2.5197
X2.7657Y-2.5492
X2.7657Y-5.6004
X2.7657Y-5.6299
X2.7657Y-5.6594
X2.7657Y-6.3874
X2.7657Y-6.4169
X2.7657Y-6.4465
X2.8248Y-2.4902
X2.8248Y-2.5197
X2.8248Y-2.5492
X2.8248Y-5.6004
X2.8248Y-5.6299
X2.8248Y-5.6594
X2.8248Y-6.3874
X2.8248Y-6.4169
X2.8248Y-6.4465
X3.318Y-6.053
X3.318Y-6.1121
X3.3475Y-6.053
X3.3475Y-6.1121
X3.3771Y-6.053
X3.3771Y-6.1121
X4.0256Y-2.0965
X4.0256Y-2.126
X4.0256Y-2.1555
X4.0256Y-5.2067
X4.0256Y-5.2362
X4.0256Y-5.2657
X4.0846Y-2.0965
X4.0846Y-2.126
X4.0846Y-2.1555
X4.0846Y-5.2067
X4.0846Y-5.2362
X4.0846Y-5.2657
X4.9164Y-6.053
X4.9164Y-6.1121
X4.946Y-6.053
X4.946Y-6.1121
X4.9755Y-6.053
X4.9755Y-6.1121
T2
X3.7323Y-4.4094
X5.0039Y-4.4094
T0
M30
