%TF.GenerationSoftware,KiCad,Pcbnew,7.0.9*%
%TF.CreationDate,2023-12-08T20:00:54+01:00*%
%TF.ProjectId,MiniOSC,4d696e69-4f53-4432-9e6b-696361645f70,rev?*%
%TF.SameCoordinates,Original*%
%TF.FileFunction,Legend,Top*%
%TF.FilePolarity,Positive*%
%FSLAX46Y46*%
G04 Gerber Fmt 4.6, Leading zero omitted, Abs format (unit mm)*
G04 Created by KiCad (PCBNEW 7.0.9) date 2023-12-08 20:00:54*
%MOMM*%
%LPD*%
G01*
G04 APERTURE LIST*
%ADD10C,0.100000*%
%ADD11C,0.150000*%
%ADD12C,0.300000*%
%ADD13C,0.500000*%
%ADD14C,0.120000*%
G04 APERTURE END LIST*
D10*
X124116669Y-48485300D02*
X124083335Y-48451966D01*
X124083335Y-48451966D02*
X124016669Y-48418633D01*
X124016669Y-48418633D02*
X123950002Y-48418633D01*
X123950002Y-48418633D02*
X123883335Y-48451966D01*
X123883335Y-48451966D02*
X123850002Y-48485300D01*
X123850002Y-48485300D02*
X123816669Y-48551966D01*
X123816669Y-48551966D02*
X123816669Y-48618633D01*
X123816669Y-48618633D02*
X123850002Y-48685300D01*
X123850002Y-48685300D02*
X123883335Y-48718633D01*
X123883335Y-48718633D02*
X123950002Y-48751966D01*
X123950002Y-48751966D02*
X124016669Y-48751966D01*
X124016669Y-48751966D02*
X124083335Y-48718633D01*
X124083335Y-48718633D02*
X124116669Y-48685300D01*
X124116669Y-48418633D02*
X124116669Y-48685300D01*
X124116669Y-48685300D02*
X124150002Y-48718633D01*
X124150002Y-48718633D02*
X124183335Y-48718633D01*
X124183335Y-48718633D02*
X124250002Y-48685300D01*
X124250002Y-48685300D02*
X124283335Y-48618633D01*
X124283335Y-48618633D02*
X124283335Y-48451966D01*
X124283335Y-48451966D02*
X124216669Y-48351966D01*
X124216669Y-48351966D02*
X124116669Y-48285300D01*
X124116669Y-48285300D02*
X123983335Y-48251966D01*
X123983335Y-48251966D02*
X123850002Y-48285300D01*
X123850002Y-48285300D02*
X123750002Y-48351966D01*
X123750002Y-48351966D02*
X123683335Y-48451966D01*
X123683335Y-48451966D02*
X123650002Y-48585300D01*
X123650002Y-48585300D02*
X123683335Y-48718633D01*
X123683335Y-48718633D02*
X123750002Y-48818633D01*
X123750002Y-48818633D02*
X123850002Y-48885300D01*
X123850002Y-48885300D02*
X123983335Y-48918633D01*
X123983335Y-48918633D02*
X124116669Y-48885300D01*
X124116669Y-48885300D02*
X124216669Y-48818633D01*
X124583335Y-48818633D02*
X124583335Y-48118633D01*
X124583335Y-48385300D02*
X124650002Y-48351966D01*
X124650002Y-48351966D02*
X124783335Y-48351966D01*
X124783335Y-48351966D02*
X124850002Y-48385300D01*
X124850002Y-48385300D02*
X124883335Y-48418633D01*
X124883335Y-48418633D02*
X124916669Y-48485300D01*
X124916669Y-48485300D02*
X124916669Y-48685300D01*
X124916669Y-48685300D02*
X124883335Y-48751966D01*
X124883335Y-48751966D02*
X124850002Y-48785300D01*
X124850002Y-48785300D02*
X124783335Y-48818633D01*
X124783335Y-48818633D02*
X124650002Y-48818633D01*
X124650002Y-48818633D02*
X124583335Y-48785300D01*
X125483335Y-48785300D02*
X125416668Y-48818633D01*
X125416668Y-48818633D02*
X125283335Y-48818633D01*
X125283335Y-48818633D02*
X125216668Y-48785300D01*
X125216668Y-48785300D02*
X125183335Y-48718633D01*
X125183335Y-48718633D02*
X125183335Y-48451966D01*
X125183335Y-48451966D02*
X125216668Y-48385300D01*
X125216668Y-48385300D02*
X125283335Y-48351966D01*
X125283335Y-48351966D02*
X125416668Y-48351966D01*
X125416668Y-48351966D02*
X125483335Y-48385300D01*
X125483335Y-48385300D02*
X125516668Y-48451966D01*
X125516668Y-48451966D02*
X125516668Y-48518633D01*
X125516668Y-48518633D02*
X125183335Y-48585300D01*
X125816668Y-48351966D02*
X125816668Y-48818633D01*
X125816668Y-48418633D02*
X125850002Y-48385300D01*
X125850002Y-48385300D02*
X125916668Y-48351966D01*
X125916668Y-48351966D02*
X126016668Y-48351966D01*
X126016668Y-48351966D02*
X126083335Y-48385300D01*
X126083335Y-48385300D02*
X126116668Y-48451966D01*
X126116668Y-48451966D02*
X126116668Y-48818633D01*
X126450001Y-48351966D02*
X126450001Y-48951966D01*
X126450001Y-48951966D02*
X126416668Y-49018633D01*
X126416668Y-49018633D02*
X126350001Y-49051966D01*
X126350001Y-49051966D02*
X126316668Y-49051966D01*
X126450001Y-48118633D02*
X126416668Y-48151966D01*
X126416668Y-48151966D02*
X126450001Y-48185300D01*
X126450001Y-48185300D02*
X126483335Y-48151966D01*
X126483335Y-48151966D02*
X126450001Y-48118633D01*
X126450001Y-48118633D02*
X126450001Y-48185300D01*
X126783334Y-48818633D02*
X126783334Y-48351966D01*
X126783334Y-48118633D02*
X126750001Y-48151966D01*
X126750001Y-48151966D02*
X126783334Y-48185300D01*
X126783334Y-48185300D02*
X126816668Y-48151966D01*
X126816668Y-48151966D02*
X126783334Y-48118633D01*
X126783334Y-48118633D02*
X126783334Y-48185300D01*
X127416667Y-48818633D02*
X127416667Y-48451966D01*
X127416667Y-48451966D02*
X127383334Y-48385300D01*
X127383334Y-48385300D02*
X127316667Y-48351966D01*
X127316667Y-48351966D02*
X127183334Y-48351966D01*
X127183334Y-48351966D02*
X127116667Y-48385300D01*
X127416667Y-48785300D02*
X127350001Y-48818633D01*
X127350001Y-48818633D02*
X127183334Y-48818633D01*
X127183334Y-48818633D02*
X127116667Y-48785300D01*
X127116667Y-48785300D02*
X127083334Y-48718633D01*
X127083334Y-48718633D02*
X127083334Y-48651966D01*
X127083334Y-48651966D02*
X127116667Y-48585300D01*
X127116667Y-48585300D02*
X127183334Y-48551966D01*
X127183334Y-48551966D02*
X127350001Y-48551966D01*
X127350001Y-48551966D02*
X127416667Y-48518633D01*
X127850000Y-48818633D02*
X127783334Y-48785300D01*
X127783334Y-48785300D02*
X127750000Y-48751966D01*
X127750000Y-48751966D02*
X127716667Y-48685300D01*
X127716667Y-48685300D02*
X127716667Y-48485300D01*
X127716667Y-48485300D02*
X127750000Y-48418633D01*
X127750000Y-48418633D02*
X127783334Y-48385300D01*
X127783334Y-48385300D02*
X127850000Y-48351966D01*
X127850000Y-48351966D02*
X127950000Y-48351966D01*
X127950000Y-48351966D02*
X128016667Y-48385300D01*
X128016667Y-48385300D02*
X128050000Y-48418633D01*
X128050000Y-48418633D02*
X128083334Y-48485300D01*
X128083334Y-48485300D02*
X128083334Y-48685300D01*
X128083334Y-48685300D02*
X128050000Y-48751966D01*
X128050000Y-48751966D02*
X128016667Y-48785300D01*
X128016667Y-48785300D02*
X127950000Y-48818633D01*
X127950000Y-48818633D02*
X127850000Y-48818633D01*
X128383333Y-48818633D02*
X128383333Y-48351966D01*
X128383333Y-48418633D02*
X128416667Y-48385300D01*
X128416667Y-48385300D02*
X128483333Y-48351966D01*
X128483333Y-48351966D02*
X128583333Y-48351966D01*
X128583333Y-48351966D02*
X128650000Y-48385300D01*
X128650000Y-48385300D02*
X128683333Y-48451966D01*
X128683333Y-48451966D02*
X128683333Y-48818633D01*
X128683333Y-48451966D02*
X128716667Y-48385300D01*
X128716667Y-48385300D02*
X128783333Y-48351966D01*
X128783333Y-48351966D02*
X128883333Y-48351966D01*
X128883333Y-48351966D02*
X128950000Y-48385300D01*
X128950000Y-48385300D02*
X128983333Y-48451966D01*
X128983333Y-48451966D02*
X128983333Y-48818633D01*
X129416666Y-48818633D02*
X129350000Y-48785300D01*
X129350000Y-48785300D02*
X129316666Y-48751966D01*
X129316666Y-48751966D02*
X129283333Y-48685300D01*
X129283333Y-48685300D02*
X129283333Y-48485300D01*
X129283333Y-48485300D02*
X129316666Y-48418633D01*
X129316666Y-48418633D02*
X129350000Y-48385300D01*
X129350000Y-48385300D02*
X129416666Y-48351966D01*
X129416666Y-48351966D02*
X129516666Y-48351966D01*
X129516666Y-48351966D02*
X129583333Y-48385300D01*
X129583333Y-48385300D02*
X129616666Y-48418633D01*
X129616666Y-48418633D02*
X129650000Y-48485300D01*
X129650000Y-48485300D02*
X129650000Y-48685300D01*
X129650000Y-48685300D02*
X129616666Y-48751966D01*
X129616666Y-48751966D02*
X129583333Y-48785300D01*
X129583333Y-48785300D02*
X129516666Y-48818633D01*
X129516666Y-48818633D02*
X129416666Y-48818633D01*
X130249999Y-48818633D02*
X130249999Y-48118633D01*
X130249999Y-48785300D02*
X130183333Y-48818633D01*
X130183333Y-48818633D02*
X130049999Y-48818633D01*
X130049999Y-48818633D02*
X129983333Y-48785300D01*
X129983333Y-48785300D02*
X129949999Y-48751966D01*
X129949999Y-48751966D02*
X129916666Y-48685300D01*
X129916666Y-48685300D02*
X129916666Y-48485300D01*
X129916666Y-48485300D02*
X129949999Y-48418633D01*
X129949999Y-48418633D02*
X129983333Y-48385300D01*
X129983333Y-48385300D02*
X130049999Y-48351966D01*
X130049999Y-48351966D02*
X130183333Y-48351966D01*
X130183333Y-48351966D02*
X130249999Y-48385300D01*
X130883332Y-48351966D02*
X130883332Y-48818633D01*
X130583332Y-48351966D02*
X130583332Y-48718633D01*
X130583332Y-48718633D02*
X130616666Y-48785300D01*
X130616666Y-48785300D02*
X130683332Y-48818633D01*
X130683332Y-48818633D02*
X130783332Y-48818633D01*
X130783332Y-48818633D02*
X130849999Y-48785300D01*
X130849999Y-48785300D02*
X130883332Y-48751966D01*
X131316665Y-48818633D02*
X131249999Y-48785300D01*
X131249999Y-48785300D02*
X131216665Y-48718633D01*
X131216665Y-48718633D02*
X131216665Y-48118633D01*
X131883332Y-48818633D02*
X131883332Y-48451966D01*
X131883332Y-48451966D02*
X131849999Y-48385300D01*
X131849999Y-48385300D02*
X131783332Y-48351966D01*
X131783332Y-48351966D02*
X131649999Y-48351966D01*
X131649999Y-48351966D02*
X131583332Y-48385300D01*
X131883332Y-48785300D02*
X131816666Y-48818633D01*
X131816666Y-48818633D02*
X131649999Y-48818633D01*
X131649999Y-48818633D02*
X131583332Y-48785300D01*
X131583332Y-48785300D02*
X131549999Y-48718633D01*
X131549999Y-48718633D02*
X131549999Y-48651966D01*
X131549999Y-48651966D02*
X131583332Y-48585300D01*
X131583332Y-48585300D02*
X131649999Y-48551966D01*
X131649999Y-48551966D02*
X131816666Y-48551966D01*
X131816666Y-48551966D02*
X131883332Y-48518633D01*
X132216665Y-48818633D02*
X132216665Y-48351966D01*
X132216665Y-48485300D02*
X132249999Y-48418633D01*
X132249999Y-48418633D02*
X132283332Y-48385300D01*
X132283332Y-48385300D02*
X132349999Y-48351966D01*
X132349999Y-48351966D02*
X132416665Y-48351966D01*
X91616669Y-48485300D02*
X91583335Y-48451966D01*
X91583335Y-48451966D02*
X91516669Y-48418633D01*
X91516669Y-48418633D02*
X91450002Y-48418633D01*
X91450002Y-48418633D02*
X91383335Y-48451966D01*
X91383335Y-48451966D02*
X91350002Y-48485300D01*
X91350002Y-48485300D02*
X91316669Y-48551966D01*
X91316669Y-48551966D02*
X91316669Y-48618633D01*
X91316669Y-48618633D02*
X91350002Y-48685300D01*
X91350002Y-48685300D02*
X91383335Y-48718633D01*
X91383335Y-48718633D02*
X91450002Y-48751966D01*
X91450002Y-48751966D02*
X91516669Y-48751966D01*
X91516669Y-48751966D02*
X91583335Y-48718633D01*
X91583335Y-48718633D02*
X91616669Y-48685300D01*
X91616669Y-48418633D02*
X91616669Y-48685300D01*
X91616669Y-48685300D02*
X91650002Y-48718633D01*
X91650002Y-48718633D02*
X91683335Y-48718633D01*
X91683335Y-48718633D02*
X91750002Y-48685300D01*
X91750002Y-48685300D02*
X91783335Y-48618633D01*
X91783335Y-48618633D02*
X91783335Y-48451966D01*
X91783335Y-48451966D02*
X91716669Y-48351966D01*
X91716669Y-48351966D02*
X91616669Y-48285300D01*
X91616669Y-48285300D02*
X91483335Y-48251966D01*
X91483335Y-48251966D02*
X91350002Y-48285300D01*
X91350002Y-48285300D02*
X91250002Y-48351966D01*
X91250002Y-48351966D02*
X91183335Y-48451966D01*
X91183335Y-48451966D02*
X91150002Y-48585300D01*
X91150002Y-48585300D02*
X91183335Y-48718633D01*
X91183335Y-48718633D02*
X91250002Y-48818633D01*
X91250002Y-48818633D02*
X91350002Y-48885300D01*
X91350002Y-48885300D02*
X91483335Y-48918633D01*
X91483335Y-48918633D02*
X91616669Y-48885300D01*
X91616669Y-48885300D02*
X91716669Y-48818633D01*
X92083335Y-48818633D02*
X92083335Y-48118633D01*
X92083335Y-48385300D02*
X92150002Y-48351966D01*
X92150002Y-48351966D02*
X92283335Y-48351966D01*
X92283335Y-48351966D02*
X92350002Y-48385300D01*
X92350002Y-48385300D02*
X92383335Y-48418633D01*
X92383335Y-48418633D02*
X92416669Y-48485300D01*
X92416669Y-48485300D02*
X92416669Y-48685300D01*
X92416669Y-48685300D02*
X92383335Y-48751966D01*
X92383335Y-48751966D02*
X92350002Y-48785300D01*
X92350002Y-48785300D02*
X92283335Y-48818633D01*
X92283335Y-48818633D02*
X92150002Y-48818633D01*
X92150002Y-48818633D02*
X92083335Y-48785300D01*
X92983335Y-48785300D02*
X92916668Y-48818633D01*
X92916668Y-48818633D02*
X92783335Y-48818633D01*
X92783335Y-48818633D02*
X92716668Y-48785300D01*
X92716668Y-48785300D02*
X92683335Y-48718633D01*
X92683335Y-48718633D02*
X92683335Y-48451966D01*
X92683335Y-48451966D02*
X92716668Y-48385300D01*
X92716668Y-48385300D02*
X92783335Y-48351966D01*
X92783335Y-48351966D02*
X92916668Y-48351966D01*
X92916668Y-48351966D02*
X92983335Y-48385300D01*
X92983335Y-48385300D02*
X93016668Y-48451966D01*
X93016668Y-48451966D02*
X93016668Y-48518633D01*
X93016668Y-48518633D02*
X92683335Y-48585300D01*
X93316668Y-48351966D02*
X93316668Y-48818633D01*
X93316668Y-48418633D02*
X93350002Y-48385300D01*
X93350002Y-48385300D02*
X93416668Y-48351966D01*
X93416668Y-48351966D02*
X93516668Y-48351966D01*
X93516668Y-48351966D02*
X93583335Y-48385300D01*
X93583335Y-48385300D02*
X93616668Y-48451966D01*
X93616668Y-48451966D02*
X93616668Y-48818633D01*
X93950001Y-48351966D02*
X93950001Y-48951966D01*
X93950001Y-48951966D02*
X93916668Y-49018633D01*
X93916668Y-49018633D02*
X93850001Y-49051966D01*
X93850001Y-49051966D02*
X93816668Y-49051966D01*
X93950001Y-48118633D02*
X93916668Y-48151966D01*
X93916668Y-48151966D02*
X93950001Y-48185300D01*
X93950001Y-48185300D02*
X93983335Y-48151966D01*
X93983335Y-48151966D02*
X93950001Y-48118633D01*
X93950001Y-48118633D02*
X93950001Y-48185300D01*
X94283334Y-48818633D02*
X94283334Y-48351966D01*
X94283334Y-48118633D02*
X94250001Y-48151966D01*
X94250001Y-48151966D02*
X94283334Y-48185300D01*
X94283334Y-48185300D02*
X94316668Y-48151966D01*
X94316668Y-48151966D02*
X94283334Y-48118633D01*
X94283334Y-48118633D02*
X94283334Y-48185300D01*
X94916667Y-48818633D02*
X94916667Y-48451966D01*
X94916667Y-48451966D02*
X94883334Y-48385300D01*
X94883334Y-48385300D02*
X94816667Y-48351966D01*
X94816667Y-48351966D02*
X94683334Y-48351966D01*
X94683334Y-48351966D02*
X94616667Y-48385300D01*
X94916667Y-48785300D02*
X94850001Y-48818633D01*
X94850001Y-48818633D02*
X94683334Y-48818633D01*
X94683334Y-48818633D02*
X94616667Y-48785300D01*
X94616667Y-48785300D02*
X94583334Y-48718633D01*
X94583334Y-48718633D02*
X94583334Y-48651966D01*
X94583334Y-48651966D02*
X94616667Y-48585300D01*
X94616667Y-48585300D02*
X94683334Y-48551966D01*
X94683334Y-48551966D02*
X94850001Y-48551966D01*
X94850001Y-48551966D02*
X94916667Y-48518633D01*
X95350000Y-48818633D02*
X95283334Y-48785300D01*
X95283334Y-48785300D02*
X95250000Y-48751966D01*
X95250000Y-48751966D02*
X95216667Y-48685300D01*
X95216667Y-48685300D02*
X95216667Y-48485300D01*
X95216667Y-48485300D02*
X95250000Y-48418633D01*
X95250000Y-48418633D02*
X95283334Y-48385300D01*
X95283334Y-48385300D02*
X95350000Y-48351966D01*
X95350000Y-48351966D02*
X95450000Y-48351966D01*
X95450000Y-48351966D02*
X95516667Y-48385300D01*
X95516667Y-48385300D02*
X95550000Y-48418633D01*
X95550000Y-48418633D02*
X95583334Y-48485300D01*
X95583334Y-48485300D02*
X95583334Y-48685300D01*
X95583334Y-48685300D02*
X95550000Y-48751966D01*
X95550000Y-48751966D02*
X95516667Y-48785300D01*
X95516667Y-48785300D02*
X95450000Y-48818633D01*
X95450000Y-48818633D02*
X95350000Y-48818633D01*
X95883333Y-48818633D02*
X95883333Y-48351966D01*
X95883333Y-48418633D02*
X95916667Y-48385300D01*
X95916667Y-48385300D02*
X95983333Y-48351966D01*
X95983333Y-48351966D02*
X96083333Y-48351966D01*
X96083333Y-48351966D02*
X96150000Y-48385300D01*
X96150000Y-48385300D02*
X96183333Y-48451966D01*
X96183333Y-48451966D02*
X96183333Y-48818633D01*
X96183333Y-48451966D02*
X96216667Y-48385300D01*
X96216667Y-48385300D02*
X96283333Y-48351966D01*
X96283333Y-48351966D02*
X96383333Y-48351966D01*
X96383333Y-48351966D02*
X96450000Y-48385300D01*
X96450000Y-48385300D02*
X96483333Y-48451966D01*
X96483333Y-48451966D02*
X96483333Y-48818633D01*
X96916666Y-48818633D02*
X96850000Y-48785300D01*
X96850000Y-48785300D02*
X96816666Y-48751966D01*
X96816666Y-48751966D02*
X96783333Y-48685300D01*
X96783333Y-48685300D02*
X96783333Y-48485300D01*
X96783333Y-48485300D02*
X96816666Y-48418633D01*
X96816666Y-48418633D02*
X96850000Y-48385300D01*
X96850000Y-48385300D02*
X96916666Y-48351966D01*
X96916666Y-48351966D02*
X97016666Y-48351966D01*
X97016666Y-48351966D02*
X97083333Y-48385300D01*
X97083333Y-48385300D02*
X97116666Y-48418633D01*
X97116666Y-48418633D02*
X97150000Y-48485300D01*
X97150000Y-48485300D02*
X97150000Y-48685300D01*
X97150000Y-48685300D02*
X97116666Y-48751966D01*
X97116666Y-48751966D02*
X97083333Y-48785300D01*
X97083333Y-48785300D02*
X97016666Y-48818633D01*
X97016666Y-48818633D02*
X96916666Y-48818633D01*
X97749999Y-48818633D02*
X97749999Y-48118633D01*
X97749999Y-48785300D02*
X97683333Y-48818633D01*
X97683333Y-48818633D02*
X97549999Y-48818633D01*
X97549999Y-48818633D02*
X97483333Y-48785300D01*
X97483333Y-48785300D02*
X97449999Y-48751966D01*
X97449999Y-48751966D02*
X97416666Y-48685300D01*
X97416666Y-48685300D02*
X97416666Y-48485300D01*
X97416666Y-48485300D02*
X97449999Y-48418633D01*
X97449999Y-48418633D02*
X97483333Y-48385300D01*
X97483333Y-48385300D02*
X97549999Y-48351966D01*
X97549999Y-48351966D02*
X97683333Y-48351966D01*
X97683333Y-48351966D02*
X97749999Y-48385300D01*
X98383332Y-48351966D02*
X98383332Y-48818633D01*
X98083332Y-48351966D02*
X98083332Y-48718633D01*
X98083332Y-48718633D02*
X98116666Y-48785300D01*
X98116666Y-48785300D02*
X98183332Y-48818633D01*
X98183332Y-48818633D02*
X98283332Y-48818633D01*
X98283332Y-48818633D02*
X98349999Y-48785300D01*
X98349999Y-48785300D02*
X98383332Y-48751966D01*
X98816665Y-48818633D02*
X98749999Y-48785300D01*
X98749999Y-48785300D02*
X98716665Y-48718633D01*
X98716665Y-48718633D02*
X98716665Y-48118633D01*
X99383332Y-48818633D02*
X99383332Y-48451966D01*
X99383332Y-48451966D02*
X99349999Y-48385300D01*
X99349999Y-48385300D02*
X99283332Y-48351966D01*
X99283332Y-48351966D02*
X99149999Y-48351966D01*
X99149999Y-48351966D02*
X99083332Y-48385300D01*
X99383332Y-48785300D02*
X99316666Y-48818633D01*
X99316666Y-48818633D02*
X99149999Y-48818633D01*
X99149999Y-48818633D02*
X99083332Y-48785300D01*
X99083332Y-48785300D02*
X99049999Y-48718633D01*
X99049999Y-48718633D02*
X99049999Y-48651966D01*
X99049999Y-48651966D02*
X99083332Y-48585300D01*
X99083332Y-48585300D02*
X99149999Y-48551966D01*
X99149999Y-48551966D02*
X99316666Y-48551966D01*
X99316666Y-48551966D02*
X99383332Y-48518633D01*
X99716665Y-48818633D02*
X99716665Y-48351966D01*
X99716665Y-48485300D02*
X99749999Y-48418633D01*
X99749999Y-48418633D02*
X99783332Y-48385300D01*
X99783332Y-48385300D02*
X99849999Y-48351966D01*
X99849999Y-48351966D02*
X99916665Y-48351966D01*
X122093735Y-47614895D02*
X122093735Y-46814895D01*
X122093735Y-46814895D02*
X122360401Y-47386323D01*
X122360401Y-47386323D02*
X122627068Y-46814895D01*
X122627068Y-46814895D02*
X122627068Y-47614895D01*
X123008021Y-47614895D02*
X123008021Y-47081561D01*
X123008021Y-46814895D02*
X122969925Y-46852990D01*
X122969925Y-46852990D02*
X123008021Y-46891085D01*
X123008021Y-46891085D02*
X123046116Y-46852990D01*
X123046116Y-46852990D02*
X123008021Y-46814895D01*
X123008021Y-46814895D02*
X123008021Y-46891085D01*
X123388973Y-47081561D02*
X123388973Y-47614895D01*
X123388973Y-47157752D02*
X123427068Y-47119657D01*
X123427068Y-47119657D02*
X123503258Y-47081561D01*
X123503258Y-47081561D02*
X123617544Y-47081561D01*
X123617544Y-47081561D02*
X123693735Y-47119657D01*
X123693735Y-47119657D02*
X123731830Y-47195847D01*
X123731830Y-47195847D02*
X123731830Y-47614895D01*
X124112783Y-47614895D02*
X124112783Y-47081561D01*
X124112783Y-46814895D02*
X124074687Y-46852990D01*
X124074687Y-46852990D02*
X124112783Y-46891085D01*
X124112783Y-46891085D02*
X124150878Y-46852990D01*
X124150878Y-46852990D02*
X124112783Y-46814895D01*
X124112783Y-46814895D02*
X124112783Y-46891085D01*
X124646116Y-46814895D02*
X124798497Y-46814895D01*
X124798497Y-46814895D02*
X124874687Y-46852990D01*
X124874687Y-46852990D02*
X124950878Y-46929180D01*
X124950878Y-46929180D02*
X124988973Y-47081561D01*
X124988973Y-47081561D02*
X124988973Y-47348228D01*
X124988973Y-47348228D02*
X124950878Y-47500609D01*
X124950878Y-47500609D02*
X124874687Y-47576800D01*
X124874687Y-47576800D02*
X124798497Y-47614895D01*
X124798497Y-47614895D02*
X124646116Y-47614895D01*
X124646116Y-47614895D02*
X124569925Y-47576800D01*
X124569925Y-47576800D02*
X124493735Y-47500609D01*
X124493735Y-47500609D02*
X124455639Y-47348228D01*
X124455639Y-47348228D02*
X124455639Y-47081561D01*
X124455639Y-47081561D02*
X124493735Y-46929180D01*
X124493735Y-46929180D02*
X124569925Y-46852990D01*
X124569925Y-46852990D02*
X124646116Y-46814895D01*
X125293734Y-47576800D02*
X125408020Y-47614895D01*
X125408020Y-47614895D02*
X125598496Y-47614895D01*
X125598496Y-47614895D02*
X125674687Y-47576800D01*
X125674687Y-47576800D02*
X125712782Y-47538704D01*
X125712782Y-47538704D02*
X125750877Y-47462514D01*
X125750877Y-47462514D02*
X125750877Y-47386323D01*
X125750877Y-47386323D02*
X125712782Y-47310133D01*
X125712782Y-47310133D02*
X125674687Y-47272038D01*
X125674687Y-47272038D02*
X125598496Y-47233942D01*
X125598496Y-47233942D02*
X125446115Y-47195847D01*
X125446115Y-47195847D02*
X125369925Y-47157752D01*
X125369925Y-47157752D02*
X125331830Y-47119657D01*
X125331830Y-47119657D02*
X125293734Y-47043466D01*
X125293734Y-47043466D02*
X125293734Y-46967276D01*
X125293734Y-46967276D02*
X125331830Y-46891085D01*
X125331830Y-46891085D02*
X125369925Y-46852990D01*
X125369925Y-46852990D02*
X125446115Y-46814895D01*
X125446115Y-46814895D02*
X125636592Y-46814895D01*
X125636592Y-46814895D02*
X125750877Y-46852990D01*
X126550878Y-47538704D02*
X126512782Y-47576800D01*
X126512782Y-47576800D02*
X126398497Y-47614895D01*
X126398497Y-47614895D02*
X126322306Y-47614895D01*
X126322306Y-47614895D02*
X126208020Y-47576800D01*
X126208020Y-47576800D02*
X126131830Y-47500609D01*
X126131830Y-47500609D02*
X126093735Y-47424419D01*
X126093735Y-47424419D02*
X126055639Y-47272038D01*
X126055639Y-47272038D02*
X126055639Y-47157752D01*
X126055639Y-47157752D02*
X126093735Y-47005371D01*
X126093735Y-47005371D02*
X126131830Y-46929180D01*
X126131830Y-46929180D02*
X126208020Y-46852990D01*
X126208020Y-46852990D02*
X126322306Y-46814895D01*
X126322306Y-46814895D02*
X126398497Y-46814895D01*
X126398497Y-46814895D02*
X126512782Y-46852990D01*
X126512782Y-46852990D02*
X126550878Y-46891085D01*
X127731830Y-47919657D02*
X127693735Y-47881561D01*
X127693735Y-47881561D02*
X127617544Y-47767276D01*
X127617544Y-47767276D02*
X127579449Y-47691085D01*
X127579449Y-47691085D02*
X127541354Y-47576800D01*
X127541354Y-47576800D02*
X127503259Y-47386323D01*
X127503259Y-47386323D02*
X127503259Y-47233942D01*
X127503259Y-47233942D02*
X127541354Y-47043466D01*
X127541354Y-47043466D02*
X127579449Y-46929180D01*
X127579449Y-46929180D02*
X127617544Y-46852990D01*
X127617544Y-46852990D02*
X127693735Y-46738704D01*
X127693735Y-46738704D02*
X127731830Y-46700609D01*
X128036592Y-47614895D02*
X128036592Y-47081561D01*
X128036592Y-47233942D02*
X128074687Y-47157752D01*
X128074687Y-47157752D02*
X128112782Y-47119657D01*
X128112782Y-47119657D02*
X128188973Y-47081561D01*
X128188973Y-47081561D02*
X128265163Y-47081561D01*
X128836592Y-47576800D02*
X128760401Y-47614895D01*
X128760401Y-47614895D02*
X128608020Y-47614895D01*
X128608020Y-47614895D02*
X128531830Y-47576800D01*
X128531830Y-47576800D02*
X128493734Y-47500609D01*
X128493734Y-47500609D02*
X128493734Y-47195847D01*
X128493734Y-47195847D02*
X128531830Y-47119657D01*
X128531830Y-47119657D02*
X128608020Y-47081561D01*
X128608020Y-47081561D02*
X128760401Y-47081561D01*
X128760401Y-47081561D02*
X128836592Y-47119657D01*
X128836592Y-47119657D02*
X128874687Y-47195847D01*
X128874687Y-47195847D02*
X128874687Y-47272038D01*
X128874687Y-47272038D02*
X128493734Y-47348228D01*
X129141353Y-47081561D02*
X129331829Y-47614895D01*
X129331829Y-47614895D02*
X129522306Y-47081561D01*
X130855639Y-47614895D02*
X130398496Y-47614895D01*
X130627068Y-47614895D02*
X130627068Y-46814895D01*
X130627068Y-46814895D02*
X130550877Y-46929180D01*
X130550877Y-46929180D02*
X130474687Y-47005371D01*
X130474687Y-47005371D02*
X130398496Y-47043466D01*
X131198497Y-47538704D02*
X131236592Y-47576800D01*
X131236592Y-47576800D02*
X131198497Y-47614895D01*
X131198497Y-47614895D02*
X131160401Y-47576800D01*
X131160401Y-47576800D02*
X131198497Y-47538704D01*
X131198497Y-47538704D02*
X131198497Y-47614895D01*
X131998496Y-47614895D02*
X131541353Y-47614895D01*
X131769925Y-47614895D02*
X131769925Y-46814895D01*
X131769925Y-46814895D02*
X131693734Y-46929180D01*
X131693734Y-46929180D02*
X131617544Y-47005371D01*
X131617544Y-47005371D02*
X131541353Y-47043466D01*
X132265163Y-47919657D02*
X132303258Y-47881561D01*
X132303258Y-47881561D02*
X132379449Y-47767276D01*
X132379449Y-47767276D02*
X132417544Y-47691085D01*
X132417544Y-47691085D02*
X132455639Y-47576800D01*
X132455639Y-47576800D02*
X132493735Y-47386323D01*
X132493735Y-47386323D02*
X132493735Y-47233942D01*
X132493735Y-47233942D02*
X132455639Y-47043466D01*
X132455639Y-47043466D02*
X132417544Y-46929180D01*
X132417544Y-46929180D02*
X132379449Y-46852990D01*
X132379449Y-46852990D02*
X132303258Y-46738704D01*
X132303258Y-46738704D02*
X132265163Y-46700609D01*
X89593735Y-47614895D02*
X89593735Y-46814895D01*
X89593735Y-46814895D02*
X89860401Y-47386323D01*
X89860401Y-47386323D02*
X90127068Y-46814895D01*
X90127068Y-46814895D02*
X90127068Y-47614895D01*
X90508021Y-47614895D02*
X90508021Y-47081561D01*
X90508021Y-46814895D02*
X90469925Y-46852990D01*
X90469925Y-46852990D02*
X90508021Y-46891085D01*
X90508021Y-46891085D02*
X90546116Y-46852990D01*
X90546116Y-46852990D02*
X90508021Y-46814895D01*
X90508021Y-46814895D02*
X90508021Y-46891085D01*
X90888973Y-47081561D02*
X90888973Y-47614895D01*
X90888973Y-47157752D02*
X90927068Y-47119657D01*
X90927068Y-47119657D02*
X91003258Y-47081561D01*
X91003258Y-47081561D02*
X91117544Y-47081561D01*
X91117544Y-47081561D02*
X91193735Y-47119657D01*
X91193735Y-47119657D02*
X91231830Y-47195847D01*
X91231830Y-47195847D02*
X91231830Y-47614895D01*
X91612783Y-47614895D02*
X91612783Y-47081561D01*
X91612783Y-46814895D02*
X91574687Y-46852990D01*
X91574687Y-46852990D02*
X91612783Y-46891085D01*
X91612783Y-46891085D02*
X91650878Y-46852990D01*
X91650878Y-46852990D02*
X91612783Y-46814895D01*
X91612783Y-46814895D02*
X91612783Y-46891085D01*
X92146116Y-46814895D02*
X92298497Y-46814895D01*
X92298497Y-46814895D02*
X92374687Y-46852990D01*
X92374687Y-46852990D02*
X92450878Y-46929180D01*
X92450878Y-46929180D02*
X92488973Y-47081561D01*
X92488973Y-47081561D02*
X92488973Y-47348228D01*
X92488973Y-47348228D02*
X92450878Y-47500609D01*
X92450878Y-47500609D02*
X92374687Y-47576800D01*
X92374687Y-47576800D02*
X92298497Y-47614895D01*
X92298497Y-47614895D02*
X92146116Y-47614895D01*
X92146116Y-47614895D02*
X92069925Y-47576800D01*
X92069925Y-47576800D02*
X91993735Y-47500609D01*
X91993735Y-47500609D02*
X91955639Y-47348228D01*
X91955639Y-47348228D02*
X91955639Y-47081561D01*
X91955639Y-47081561D02*
X91993735Y-46929180D01*
X91993735Y-46929180D02*
X92069925Y-46852990D01*
X92069925Y-46852990D02*
X92146116Y-46814895D01*
X92793734Y-47576800D02*
X92908020Y-47614895D01*
X92908020Y-47614895D02*
X93098496Y-47614895D01*
X93098496Y-47614895D02*
X93174687Y-47576800D01*
X93174687Y-47576800D02*
X93212782Y-47538704D01*
X93212782Y-47538704D02*
X93250877Y-47462514D01*
X93250877Y-47462514D02*
X93250877Y-47386323D01*
X93250877Y-47386323D02*
X93212782Y-47310133D01*
X93212782Y-47310133D02*
X93174687Y-47272038D01*
X93174687Y-47272038D02*
X93098496Y-47233942D01*
X93098496Y-47233942D02*
X92946115Y-47195847D01*
X92946115Y-47195847D02*
X92869925Y-47157752D01*
X92869925Y-47157752D02*
X92831830Y-47119657D01*
X92831830Y-47119657D02*
X92793734Y-47043466D01*
X92793734Y-47043466D02*
X92793734Y-46967276D01*
X92793734Y-46967276D02*
X92831830Y-46891085D01*
X92831830Y-46891085D02*
X92869925Y-46852990D01*
X92869925Y-46852990D02*
X92946115Y-46814895D01*
X92946115Y-46814895D02*
X93136592Y-46814895D01*
X93136592Y-46814895D02*
X93250877Y-46852990D01*
X94050878Y-47538704D02*
X94012782Y-47576800D01*
X94012782Y-47576800D02*
X93898497Y-47614895D01*
X93898497Y-47614895D02*
X93822306Y-47614895D01*
X93822306Y-47614895D02*
X93708020Y-47576800D01*
X93708020Y-47576800D02*
X93631830Y-47500609D01*
X93631830Y-47500609D02*
X93593735Y-47424419D01*
X93593735Y-47424419D02*
X93555639Y-47272038D01*
X93555639Y-47272038D02*
X93555639Y-47157752D01*
X93555639Y-47157752D02*
X93593735Y-47005371D01*
X93593735Y-47005371D02*
X93631830Y-46929180D01*
X93631830Y-46929180D02*
X93708020Y-46852990D01*
X93708020Y-46852990D02*
X93822306Y-46814895D01*
X93822306Y-46814895D02*
X93898497Y-46814895D01*
X93898497Y-46814895D02*
X94012782Y-46852990D01*
X94012782Y-46852990D02*
X94050878Y-46891085D01*
X95231830Y-47919657D02*
X95193735Y-47881561D01*
X95193735Y-47881561D02*
X95117544Y-47767276D01*
X95117544Y-47767276D02*
X95079449Y-47691085D01*
X95079449Y-47691085D02*
X95041354Y-47576800D01*
X95041354Y-47576800D02*
X95003259Y-47386323D01*
X95003259Y-47386323D02*
X95003259Y-47233942D01*
X95003259Y-47233942D02*
X95041354Y-47043466D01*
X95041354Y-47043466D02*
X95079449Y-46929180D01*
X95079449Y-46929180D02*
X95117544Y-46852990D01*
X95117544Y-46852990D02*
X95193735Y-46738704D01*
X95193735Y-46738704D02*
X95231830Y-46700609D01*
X95536592Y-47614895D02*
X95536592Y-47081561D01*
X95536592Y-47233942D02*
X95574687Y-47157752D01*
X95574687Y-47157752D02*
X95612782Y-47119657D01*
X95612782Y-47119657D02*
X95688973Y-47081561D01*
X95688973Y-47081561D02*
X95765163Y-47081561D01*
X96336592Y-47576800D02*
X96260401Y-47614895D01*
X96260401Y-47614895D02*
X96108020Y-47614895D01*
X96108020Y-47614895D02*
X96031830Y-47576800D01*
X96031830Y-47576800D02*
X95993734Y-47500609D01*
X95993734Y-47500609D02*
X95993734Y-47195847D01*
X95993734Y-47195847D02*
X96031830Y-47119657D01*
X96031830Y-47119657D02*
X96108020Y-47081561D01*
X96108020Y-47081561D02*
X96260401Y-47081561D01*
X96260401Y-47081561D02*
X96336592Y-47119657D01*
X96336592Y-47119657D02*
X96374687Y-47195847D01*
X96374687Y-47195847D02*
X96374687Y-47272038D01*
X96374687Y-47272038D02*
X95993734Y-47348228D01*
X96641353Y-47081561D02*
X96831829Y-47614895D01*
X96831829Y-47614895D02*
X97022306Y-47081561D01*
X98355639Y-47614895D02*
X97898496Y-47614895D01*
X98127068Y-47614895D02*
X98127068Y-46814895D01*
X98127068Y-46814895D02*
X98050877Y-46929180D01*
X98050877Y-46929180D02*
X97974687Y-47005371D01*
X97974687Y-47005371D02*
X97898496Y-47043466D01*
X98698497Y-47538704D02*
X98736592Y-47576800D01*
X98736592Y-47576800D02*
X98698497Y-47614895D01*
X98698497Y-47614895D02*
X98660401Y-47576800D01*
X98660401Y-47576800D02*
X98698497Y-47538704D01*
X98698497Y-47538704D02*
X98698497Y-47614895D01*
X99498496Y-47614895D02*
X99041353Y-47614895D01*
X99269925Y-47614895D02*
X99269925Y-46814895D01*
X99269925Y-46814895D02*
X99193734Y-46929180D01*
X99193734Y-46929180D02*
X99117544Y-47005371D01*
X99117544Y-47005371D02*
X99041353Y-47043466D01*
X99765163Y-47919657D02*
X99803258Y-47881561D01*
X99803258Y-47881561D02*
X99879449Y-47767276D01*
X99879449Y-47767276D02*
X99917544Y-47691085D01*
X99917544Y-47691085D02*
X99955639Y-47576800D01*
X99955639Y-47576800D02*
X99993735Y-47386323D01*
X99993735Y-47386323D02*
X99993735Y-47233942D01*
X99993735Y-47233942D02*
X99955639Y-47043466D01*
X99955639Y-47043466D02*
X99917544Y-46929180D01*
X99917544Y-46929180D02*
X99879449Y-46852990D01*
X99879449Y-46852990D02*
X99803258Y-46738704D01*
X99803258Y-46738704D02*
X99765163Y-46700609D01*
D11*
X42233332Y-170473200D02*
X42166665Y-170406533D01*
X42166665Y-170406533D02*
X42033332Y-170339866D01*
X42033332Y-170339866D02*
X41899998Y-170339866D01*
X41899998Y-170339866D02*
X41766665Y-170406533D01*
X41766665Y-170406533D02*
X41699998Y-170473200D01*
X41699998Y-170473200D02*
X41633332Y-170606533D01*
X41633332Y-170606533D02*
X41633332Y-170739866D01*
X41633332Y-170739866D02*
X41699998Y-170873200D01*
X41699998Y-170873200D02*
X41766665Y-170939866D01*
X41766665Y-170939866D02*
X41899998Y-171006533D01*
X41899998Y-171006533D02*
X42033332Y-171006533D01*
X42033332Y-171006533D02*
X42166665Y-170939866D01*
X42166665Y-170939866D02*
X42233332Y-170873200D01*
X42233332Y-170339866D02*
X42233332Y-170873200D01*
X42233332Y-170873200D02*
X42299998Y-170939866D01*
X42299998Y-170939866D02*
X42366665Y-170939866D01*
X42366665Y-170939866D02*
X42499998Y-170873200D01*
X42499998Y-170873200D02*
X42566665Y-170739866D01*
X42566665Y-170739866D02*
X42566665Y-170406533D01*
X42566665Y-170406533D02*
X42433332Y-170206533D01*
X42433332Y-170206533D02*
X42233332Y-170073200D01*
X42233332Y-170073200D02*
X41966665Y-170006533D01*
X41966665Y-170006533D02*
X41699998Y-170073200D01*
X41699998Y-170073200D02*
X41499998Y-170206533D01*
X41499998Y-170206533D02*
X41366665Y-170406533D01*
X41366665Y-170406533D02*
X41299998Y-170673200D01*
X41299998Y-170673200D02*
X41366665Y-170939866D01*
X41366665Y-170939866D02*
X41499998Y-171139866D01*
X41499998Y-171139866D02*
X41699998Y-171273200D01*
X41699998Y-171273200D02*
X41966665Y-171339866D01*
X41966665Y-171339866D02*
X42233332Y-171273200D01*
X42233332Y-171273200D02*
X42433332Y-171139866D01*
X43166665Y-171139866D02*
X43166665Y-169739866D01*
X43166665Y-170273200D02*
X43299998Y-170206533D01*
X43299998Y-170206533D02*
X43566665Y-170206533D01*
X43566665Y-170206533D02*
X43699998Y-170273200D01*
X43699998Y-170273200D02*
X43766665Y-170339866D01*
X43766665Y-170339866D02*
X43833332Y-170473200D01*
X43833332Y-170473200D02*
X43833332Y-170873200D01*
X43833332Y-170873200D02*
X43766665Y-171006533D01*
X43766665Y-171006533D02*
X43699998Y-171073200D01*
X43699998Y-171073200D02*
X43566665Y-171139866D01*
X43566665Y-171139866D02*
X43299998Y-171139866D01*
X43299998Y-171139866D02*
X43166665Y-171073200D01*
X44966665Y-171073200D02*
X44833332Y-171139866D01*
X44833332Y-171139866D02*
X44566665Y-171139866D01*
X44566665Y-171139866D02*
X44433332Y-171073200D01*
X44433332Y-171073200D02*
X44366665Y-170939866D01*
X44366665Y-170939866D02*
X44366665Y-170406533D01*
X44366665Y-170406533D02*
X44433332Y-170273200D01*
X44433332Y-170273200D02*
X44566665Y-170206533D01*
X44566665Y-170206533D02*
X44833332Y-170206533D01*
X44833332Y-170206533D02*
X44966665Y-170273200D01*
X44966665Y-170273200D02*
X45033332Y-170406533D01*
X45033332Y-170406533D02*
X45033332Y-170539866D01*
X45033332Y-170539866D02*
X44366665Y-170673200D01*
X45633332Y-170206533D02*
X45633332Y-171139866D01*
X45633332Y-170339866D02*
X45699999Y-170273200D01*
X45699999Y-170273200D02*
X45833332Y-170206533D01*
X45833332Y-170206533D02*
X46033332Y-170206533D01*
X46033332Y-170206533D02*
X46166665Y-170273200D01*
X46166665Y-170273200D02*
X46233332Y-170406533D01*
X46233332Y-170406533D02*
X46233332Y-171139866D01*
X46899999Y-170206533D02*
X46899999Y-171406533D01*
X46899999Y-171406533D02*
X46833332Y-171539866D01*
X46833332Y-171539866D02*
X46699999Y-171606533D01*
X46699999Y-171606533D02*
X46633332Y-171606533D01*
X46899999Y-169739866D02*
X46833332Y-169806533D01*
X46833332Y-169806533D02*
X46899999Y-169873200D01*
X46899999Y-169873200D02*
X46966666Y-169806533D01*
X46966666Y-169806533D02*
X46899999Y-169739866D01*
X46899999Y-169739866D02*
X46899999Y-169873200D01*
X47566666Y-171139866D02*
X47566666Y-170206533D01*
X47566666Y-169739866D02*
X47499999Y-169806533D01*
X47499999Y-169806533D02*
X47566666Y-169873200D01*
X47566666Y-169873200D02*
X47633333Y-169806533D01*
X47633333Y-169806533D02*
X47566666Y-169739866D01*
X47566666Y-169739866D02*
X47566666Y-169873200D01*
X48833333Y-171139866D02*
X48833333Y-170406533D01*
X48833333Y-170406533D02*
X48766666Y-170273200D01*
X48766666Y-170273200D02*
X48633333Y-170206533D01*
X48633333Y-170206533D02*
X48366666Y-170206533D01*
X48366666Y-170206533D02*
X48233333Y-170273200D01*
X48833333Y-171073200D02*
X48700000Y-171139866D01*
X48700000Y-171139866D02*
X48366666Y-171139866D01*
X48366666Y-171139866D02*
X48233333Y-171073200D01*
X48233333Y-171073200D02*
X48166666Y-170939866D01*
X48166666Y-170939866D02*
X48166666Y-170806533D01*
X48166666Y-170806533D02*
X48233333Y-170673200D01*
X48233333Y-170673200D02*
X48366666Y-170606533D01*
X48366666Y-170606533D02*
X48700000Y-170606533D01*
X48700000Y-170606533D02*
X48833333Y-170539866D01*
X49700000Y-171139866D02*
X49566667Y-171073200D01*
X49566667Y-171073200D02*
X49500000Y-171006533D01*
X49500000Y-171006533D02*
X49433333Y-170873200D01*
X49433333Y-170873200D02*
X49433333Y-170473200D01*
X49433333Y-170473200D02*
X49500000Y-170339866D01*
X49500000Y-170339866D02*
X49566667Y-170273200D01*
X49566667Y-170273200D02*
X49700000Y-170206533D01*
X49700000Y-170206533D02*
X49900000Y-170206533D01*
X49900000Y-170206533D02*
X50033333Y-170273200D01*
X50033333Y-170273200D02*
X50100000Y-170339866D01*
X50100000Y-170339866D02*
X50166667Y-170473200D01*
X50166667Y-170473200D02*
X50166667Y-170873200D01*
X50166667Y-170873200D02*
X50100000Y-171006533D01*
X50100000Y-171006533D02*
X50033333Y-171073200D01*
X50033333Y-171073200D02*
X49900000Y-171139866D01*
X49900000Y-171139866D02*
X49700000Y-171139866D01*
X50766667Y-171139866D02*
X50766667Y-170206533D01*
X50766667Y-170339866D02*
X50833334Y-170273200D01*
X50833334Y-170273200D02*
X50966667Y-170206533D01*
X50966667Y-170206533D02*
X51166667Y-170206533D01*
X51166667Y-170206533D02*
X51300000Y-170273200D01*
X51300000Y-170273200D02*
X51366667Y-170406533D01*
X51366667Y-170406533D02*
X51366667Y-171139866D01*
X51366667Y-170406533D02*
X51433334Y-170273200D01*
X51433334Y-170273200D02*
X51566667Y-170206533D01*
X51566667Y-170206533D02*
X51766667Y-170206533D01*
X51766667Y-170206533D02*
X51900000Y-170273200D01*
X51900000Y-170273200D02*
X51966667Y-170406533D01*
X51966667Y-170406533D02*
X51966667Y-171139866D01*
X52833334Y-171139866D02*
X52700001Y-171073200D01*
X52700001Y-171073200D02*
X52633334Y-171006533D01*
X52633334Y-171006533D02*
X52566667Y-170873200D01*
X52566667Y-170873200D02*
X52566667Y-170473200D01*
X52566667Y-170473200D02*
X52633334Y-170339866D01*
X52633334Y-170339866D02*
X52700001Y-170273200D01*
X52700001Y-170273200D02*
X52833334Y-170206533D01*
X52833334Y-170206533D02*
X53033334Y-170206533D01*
X53033334Y-170206533D02*
X53166667Y-170273200D01*
X53166667Y-170273200D02*
X53233334Y-170339866D01*
X53233334Y-170339866D02*
X53300001Y-170473200D01*
X53300001Y-170473200D02*
X53300001Y-170873200D01*
X53300001Y-170873200D02*
X53233334Y-171006533D01*
X53233334Y-171006533D02*
X53166667Y-171073200D01*
X53166667Y-171073200D02*
X53033334Y-171139866D01*
X53033334Y-171139866D02*
X52833334Y-171139866D01*
X54500001Y-171139866D02*
X54500001Y-169739866D01*
X54500001Y-171073200D02*
X54366668Y-171139866D01*
X54366668Y-171139866D02*
X54100001Y-171139866D01*
X54100001Y-171139866D02*
X53966668Y-171073200D01*
X53966668Y-171073200D02*
X53900001Y-171006533D01*
X53900001Y-171006533D02*
X53833334Y-170873200D01*
X53833334Y-170873200D02*
X53833334Y-170473200D01*
X53833334Y-170473200D02*
X53900001Y-170339866D01*
X53900001Y-170339866D02*
X53966668Y-170273200D01*
X53966668Y-170273200D02*
X54100001Y-170206533D01*
X54100001Y-170206533D02*
X54366668Y-170206533D01*
X54366668Y-170206533D02*
X54500001Y-170273200D01*
X55766668Y-170206533D02*
X55766668Y-171139866D01*
X55166668Y-170206533D02*
X55166668Y-170939866D01*
X55166668Y-170939866D02*
X55233335Y-171073200D01*
X55233335Y-171073200D02*
X55366668Y-171139866D01*
X55366668Y-171139866D02*
X55566668Y-171139866D01*
X55566668Y-171139866D02*
X55700001Y-171073200D01*
X55700001Y-171073200D02*
X55766668Y-171006533D01*
X56633335Y-171139866D02*
X56500002Y-171073200D01*
X56500002Y-171073200D02*
X56433335Y-170939866D01*
X56433335Y-170939866D02*
X56433335Y-169739866D01*
X57766668Y-171139866D02*
X57766668Y-170406533D01*
X57766668Y-170406533D02*
X57700001Y-170273200D01*
X57700001Y-170273200D02*
X57566668Y-170206533D01*
X57566668Y-170206533D02*
X57300001Y-170206533D01*
X57300001Y-170206533D02*
X57166668Y-170273200D01*
X57766668Y-171073200D02*
X57633335Y-171139866D01*
X57633335Y-171139866D02*
X57300001Y-171139866D01*
X57300001Y-171139866D02*
X57166668Y-171073200D01*
X57166668Y-171073200D02*
X57100001Y-170939866D01*
X57100001Y-170939866D02*
X57100001Y-170806533D01*
X57100001Y-170806533D02*
X57166668Y-170673200D01*
X57166668Y-170673200D02*
X57300001Y-170606533D01*
X57300001Y-170606533D02*
X57633335Y-170606533D01*
X57633335Y-170606533D02*
X57766668Y-170539866D01*
X58433335Y-171139866D02*
X58433335Y-170206533D01*
X58433335Y-170473200D02*
X58500002Y-170339866D01*
X58500002Y-170339866D02*
X58566668Y-170273200D01*
X58566668Y-170273200D02*
X58700002Y-170206533D01*
X58700002Y-170206533D02*
X58833335Y-170206533D01*
D12*
X69500000Y-45500000D02*
X69500000Y-66500000D01*
X40500000Y-45500000D02*
X69500000Y-45500000D01*
D11*
X45728571Y-98333057D02*
X45128571Y-98333057D01*
X45128571Y-99275914D02*
X45128571Y-97475914D01*
X45128571Y-97475914D02*
X45985714Y-97475914D01*
X46671428Y-99275914D02*
X46671428Y-97475914D01*
X46671428Y-97475914D02*
X47271428Y-98761628D01*
X47271428Y-98761628D02*
X47871428Y-97475914D01*
X47871428Y-97475914D02*
X47871428Y-99275914D01*
X41528572Y-101659628D02*
X42385715Y-101659628D01*
X41357143Y-102173914D02*
X41957143Y-100373914D01*
X41957143Y-100373914D02*
X42557143Y-102173914D01*
X43157143Y-102173914D02*
X43157143Y-100373914D01*
X43157143Y-100373914D02*
X43757143Y-101659628D01*
X43757143Y-101659628D02*
X44357143Y-100373914D01*
X44357143Y-100373914D02*
X44357143Y-102173914D01*
X45557143Y-100373914D02*
X45900000Y-100373914D01*
X45900000Y-100373914D02*
X46071429Y-100459628D01*
X46071429Y-100459628D02*
X46242857Y-100631057D01*
X46242857Y-100631057D02*
X46328572Y-100973914D01*
X46328572Y-100973914D02*
X46328572Y-101573914D01*
X46328572Y-101573914D02*
X46242857Y-101916771D01*
X46242857Y-101916771D02*
X46071429Y-102088200D01*
X46071429Y-102088200D02*
X45900000Y-102173914D01*
X45900000Y-102173914D02*
X45557143Y-102173914D01*
X45557143Y-102173914D02*
X45385715Y-102088200D01*
X45385715Y-102088200D02*
X45214286Y-101916771D01*
X45214286Y-101916771D02*
X45128572Y-101573914D01*
X45128572Y-101573914D02*
X45128572Y-100973914D01*
X45128572Y-100973914D02*
X45214286Y-100631057D01*
X45214286Y-100631057D02*
X45385715Y-100459628D01*
X45385715Y-100459628D02*
X45557143Y-100373914D01*
X47100000Y-100373914D02*
X47100000Y-101831057D01*
X47100000Y-101831057D02*
X47185714Y-102002485D01*
X47185714Y-102002485D02*
X47271429Y-102088200D01*
X47271429Y-102088200D02*
X47442857Y-102173914D01*
X47442857Y-102173914D02*
X47785714Y-102173914D01*
X47785714Y-102173914D02*
X47957143Y-102088200D01*
X47957143Y-102088200D02*
X48042857Y-102002485D01*
X48042857Y-102002485D02*
X48128571Y-101831057D01*
X48128571Y-101831057D02*
X48128571Y-100373914D01*
X48985714Y-102173914D02*
X48985714Y-100373914D01*
X48985714Y-100373914D02*
X50014285Y-102173914D01*
X50014285Y-102173914D02*
X50014285Y-100373914D01*
X50614285Y-100373914D02*
X51642857Y-100373914D01*
X51128571Y-102173914D02*
X51128571Y-100373914D01*
X55041838Y-144665802D02*
X55041838Y-142865802D01*
X55041838Y-142865802D02*
X55727552Y-142865802D01*
X55727552Y-142865802D02*
X55898981Y-142951516D01*
X55898981Y-142951516D02*
X55984695Y-143037230D01*
X55984695Y-143037230D02*
X56070409Y-143208659D01*
X56070409Y-143208659D02*
X56070409Y-143465802D01*
X56070409Y-143465802D02*
X55984695Y-143637230D01*
X55984695Y-143637230D02*
X55898981Y-143722945D01*
X55898981Y-143722945D02*
X55727552Y-143808659D01*
X55727552Y-143808659D02*
X55041838Y-143808659D01*
X56841838Y-142865802D02*
X56841838Y-144322945D01*
X56841838Y-144322945D02*
X56927552Y-144494373D01*
X56927552Y-144494373D02*
X57013267Y-144580088D01*
X57013267Y-144580088D02*
X57184695Y-144665802D01*
X57184695Y-144665802D02*
X57527552Y-144665802D01*
X57527552Y-144665802D02*
X57698981Y-144580088D01*
X57698981Y-144580088D02*
X57784695Y-144494373D01*
X57784695Y-144494373D02*
X57870409Y-144322945D01*
X57870409Y-144322945D02*
X57870409Y-142865802D01*
X59584695Y-144665802D02*
X58727552Y-144665802D01*
X58727552Y-144665802D02*
X58727552Y-142865802D01*
X60098981Y-144580088D02*
X60356124Y-144665802D01*
X60356124Y-144665802D02*
X60784695Y-144665802D01*
X60784695Y-144665802D02*
X60956124Y-144580088D01*
X60956124Y-144580088D02*
X61041838Y-144494373D01*
X61041838Y-144494373D02*
X61127552Y-144322945D01*
X61127552Y-144322945D02*
X61127552Y-144151516D01*
X61127552Y-144151516D02*
X61041838Y-143980088D01*
X61041838Y-143980088D02*
X60956124Y-143894373D01*
X60956124Y-143894373D02*
X60784695Y-143808659D01*
X60784695Y-143808659D02*
X60441838Y-143722945D01*
X60441838Y-143722945D02*
X60270409Y-143637230D01*
X60270409Y-143637230D02*
X60184695Y-143551516D01*
X60184695Y-143551516D02*
X60098981Y-143380088D01*
X60098981Y-143380088D02*
X60098981Y-143208659D01*
X60098981Y-143208659D02*
X60184695Y-143037230D01*
X60184695Y-143037230D02*
X60270409Y-142951516D01*
X60270409Y-142951516D02*
X60441838Y-142865802D01*
X60441838Y-142865802D02*
X60870409Y-142865802D01*
X60870409Y-142865802D02*
X61127552Y-142951516D01*
X61898981Y-143722945D02*
X62498981Y-143722945D01*
X62756124Y-144665802D02*
X61898981Y-144665802D01*
X61898981Y-144665802D02*
X61898981Y-142865802D01*
X61898981Y-142865802D02*
X62756124Y-142865802D01*
X55127552Y-145763802D02*
X55556124Y-147563802D01*
X55556124Y-147563802D02*
X55898981Y-146278088D01*
X55898981Y-146278088D02*
X56241838Y-147563802D01*
X56241838Y-147563802D02*
X56670410Y-145763802D01*
X57356124Y-147563802D02*
X57356124Y-145763802D01*
X58213267Y-147563802D02*
X58213267Y-145763802D01*
X58213267Y-145763802D02*
X58641838Y-145763802D01*
X58641838Y-145763802D02*
X58898981Y-145849516D01*
X58898981Y-145849516D02*
X59070410Y-146020945D01*
X59070410Y-146020945D02*
X59156124Y-146192373D01*
X59156124Y-146192373D02*
X59241838Y-146535230D01*
X59241838Y-146535230D02*
X59241838Y-146792373D01*
X59241838Y-146792373D02*
X59156124Y-147135230D01*
X59156124Y-147135230D02*
X59070410Y-147306659D01*
X59070410Y-147306659D02*
X58898981Y-147478088D01*
X58898981Y-147478088D02*
X58641838Y-147563802D01*
X58641838Y-147563802D02*
X58213267Y-147563802D01*
X59756124Y-145763802D02*
X60784696Y-145763802D01*
X60270410Y-147563802D02*
X60270410Y-145763802D01*
X61384696Y-147563802D02*
X61384696Y-145763802D01*
X61384696Y-146620945D02*
X62413267Y-146620945D01*
X62413267Y-147563802D02*
X62413267Y-145763802D01*
X41500000Y-162000000D02*
X41500000Y-155500000D01*
X46500000Y-162000000D02*
X41500000Y-162000000D01*
X46500000Y-155500000D02*
X46500000Y-162000000D01*
X41500000Y-155500000D02*
X46500000Y-155500000D01*
X41928571Y-161407200D02*
X42071428Y-161454819D01*
X42071428Y-161454819D02*
X42309523Y-161454819D01*
X42309523Y-161454819D02*
X42404761Y-161407200D01*
X42404761Y-161407200D02*
X42452380Y-161359580D01*
X42452380Y-161359580D02*
X42499999Y-161264342D01*
X42499999Y-161264342D02*
X42499999Y-161169104D01*
X42499999Y-161169104D02*
X42452380Y-161073866D01*
X42452380Y-161073866D02*
X42404761Y-161026247D01*
X42404761Y-161026247D02*
X42309523Y-160978628D01*
X42309523Y-160978628D02*
X42119047Y-160931009D01*
X42119047Y-160931009D02*
X42023809Y-160883390D01*
X42023809Y-160883390D02*
X41976190Y-160835771D01*
X41976190Y-160835771D02*
X41928571Y-160740533D01*
X41928571Y-160740533D02*
X41928571Y-160645295D01*
X41928571Y-160645295D02*
X41976190Y-160550057D01*
X41976190Y-160550057D02*
X42023809Y-160502438D01*
X42023809Y-160502438D02*
X42119047Y-160454819D01*
X42119047Y-160454819D02*
X42357142Y-160454819D01*
X42357142Y-160454819D02*
X42499999Y-160502438D01*
X43499999Y-161359580D02*
X43452380Y-161407200D01*
X43452380Y-161407200D02*
X43309523Y-161454819D01*
X43309523Y-161454819D02*
X43214285Y-161454819D01*
X43214285Y-161454819D02*
X43071428Y-161407200D01*
X43071428Y-161407200D02*
X42976190Y-161311961D01*
X42976190Y-161311961D02*
X42928571Y-161216723D01*
X42928571Y-161216723D02*
X42880952Y-161026247D01*
X42880952Y-161026247D02*
X42880952Y-160883390D01*
X42880952Y-160883390D02*
X42928571Y-160692914D01*
X42928571Y-160692914D02*
X42976190Y-160597676D01*
X42976190Y-160597676D02*
X43071428Y-160502438D01*
X43071428Y-160502438D02*
X43214285Y-160454819D01*
X43214285Y-160454819D02*
X43309523Y-160454819D01*
X43309523Y-160454819D02*
X43452380Y-160502438D01*
X43452380Y-160502438D02*
X43499999Y-160550057D01*
X43880952Y-161169104D02*
X44357142Y-161169104D01*
X43785714Y-161454819D02*
X44119047Y-160454819D01*
X44119047Y-160454819D02*
X44452380Y-161454819D01*
X45261904Y-161454819D02*
X44785714Y-161454819D01*
X44785714Y-161454819D02*
X44785714Y-160454819D01*
X45595238Y-160931009D02*
X45928571Y-160931009D01*
X46071428Y-161454819D02*
X45595238Y-161454819D01*
X45595238Y-161454819D02*
X45595238Y-160454819D01*
X45595238Y-160454819D02*
X46071428Y-160454819D01*
D12*
X69500000Y-167500000D02*
X69500000Y-66500000D01*
X40500000Y-167500000D02*
X69500000Y-167500000D01*
X40500000Y-45500000D02*
X40500000Y-167500000D01*
X46300000Y-45600000D02*
X69300000Y-68500000D01*
D13*
X52666667Y-49861857D02*
X52666667Y-46861857D01*
X52666667Y-46861857D02*
X53600001Y-49004714D01*
X53600001Y-49004714D02*
X54533334Y-46861857D01*
X54533334Y-46861857D02*
X54533334Y-49861857D01*
X55866667Y-49861857D02*
X55866667Y-47861857D01*
X55866667Y-46861857D02*
X55733334Y-47004714D01*
X55733334Y-47004714D02*
X55866667Y-47147571D01*
X55866667Y-47147571D02*
X56000001Y-47004714D01*
X56000001Y-47004714D02*
X55866667Y-46861857D01*
X55866667Y-46861857D02*
X55866667Y-47147571D01*
X57200000Y-47861857D02*
X57200000Y-49861857D01*
X57200000Y-48147571D02*
X57333334Y-48004714D01*
X57333334Y-48004714D02*
X57600000Y-47861857D01*
X57600000Y-47861857D02*
X58000000Y-47861857D01*
X58000000Y-47861857D02*
X58266667Y-48004714D01*
X58266667Y-48004714D02*
X58400000Y-48290428D01*
X58400000Y-48290428D02*
X58400000Y-49861857D01*
X59733333Y-49861857D02*
X59733333Y-47861857D01*
X59733333Y-46861857D02*
X59600000Y-47004714D01*
X59600000Y-47004714D02*
X59733333Y-47147571D01*
X59733333Y-47147571D02*
X59866667Y-47004714D01*
X59866667Y-47004714D02*
X59733333Y-46861857D01*
X59733333Y-46861857D02*
X59733333Y-47147571D01*
X61600000Y-46861857D02*
X62133333Y-46861857D01*
X62133333Y-46861857D02*
X62400000Y-47004714D01*
X62400000Y-47004714D02*
X62666666Y-47290428D01*
X62666666Y-47290428D02*
X62800000Y-47861857D01*
X62800000Y-47861857D02*
X62800000Y-48861857D01*
X62800000Y-48861857D02*
X62666666Y-49433285D01*
X62666666Y-49433285D02*
X62400000Y-49719000D01*
X62400000Y-49719000D02*
X62133333Y-49861857D01*
X62133333Y-49861857D02*
X61600000Y-49861857D01*
X61600000Y-49861857D02*
X61333333Y-49719000D01*
X61333333Y-49719000D02*
X61066666Y-49433285D01*
X61066666Y-49433285D02*
X60933333Y-48861857D01*
X60933333Y-48861857D02*
X60933333Y-47861857D01*
X60933333Y-47861857D02*
X61066666Y-47290428D01*
X61066666Y-47290428D02*
X61333333Y-47004714D01*
X61333333Y-47004714D02*
X61600000Y-46861857D01*
X63866666Y-49719000D02*
X64266666Y-49861857D01*
X64266666Y-49861857D02*
X64933333Y-49861857D01*
X64933333Y-49861857D02*
X65199999Y-49719000D01*
X65199999Y-49719000D02*
X65333333Y-49576142D01*
X65333333Y-49576142D02*
X65466666Y-49290428D01*
X65466666Y-49290428D02*
X65466666Y-49004714D01*
X65466666Y-49004714D02*
X65333333Y-48719000D01*
X65333333Y-48719000D02*
X65199999Y-48576142D01*
X65199999Y-48576142D02*
X64933333Y-48433285D01*
X64933333Y-48433285D02*
X64399999Y-48290428D01*
X64399999Y-48290428D02*
X64133333Y-48147571D01*
X64133333Y-48147571D02*
X63999999Y-48004714D01*
X63999999Y-48004714D02*
X63866666Y-47719000D01*
X63866666Y-47719000D02*
X63866666Y-47433285D01*
X63866666Y-47433285D02*
X63999999Y-47147571D01*
X63999999Y-47147571D02*
X64133333Y-47004714D01*
X64133333Y-47004714D02*
X64399999Y-46861857D01*
X64399999Y-46861857D02*
X65066666Y-46861857D01*
X65066666Y-46861857D02*
X65466666Y-47004714D01*
X68266666Y-49576142D02*
X68133333Y-49719000D01*
X68133333Y-49719000D02*
X67733333Y-49861857D01*
X67733333Y-49861857D02*
X67466666Y-49861857D01*
X67466666Y-49861857D02*
X67066666Y-49719000D01*
X67066666Y-49719000D02*
X66800000Y-49433285D01*
X66800000Y-49433285D02*
X66666666Y-49147571D01*
X66666666Y-49147571D02*
X66533333Y-48576142D01*
X66533333Y-48576142D02*
X66533333Y-48147571D01*
X66533333Y-48147571D02*
X66666666Y-47576142D01*
X66666666Y-47576142D02*
X66800000Y-47290428D01*
X66800000Y-47290428D02*
X67066666Y-47004714D01*
X67066666Y-47004714D02*
X67466666Y-46861857D01*
X67466666Y-46861857D02*
X67733333Y-46861857D01*
X67733333Y-46861857D02*
X68133333Y-47004714D01*
X68133333Y-47004714D02*
X68266666Y-47147571D01*
D12*
X48500000Y-119500000D02*
X51500000Y-116500000D01*
X64000000Y-144000000D02*
X62800000Y-141600000D01*
X64000000Y-153000000D02*
X64000000Y-144000000D01*
D11*
X41280952Y-144924914D02*
X41814286Y-146724914D01*
X41814286Y-146724914D02*
X42347619Y-144924914D01*
X44023810Y-144839200D02*
X42652381Y-147153485D01*
X44861905Y-144924914D02*
X45166667Y-144924914D01*
X45166667Y-144924914D02*
X45319048Y-145010628D01*
X45319048Y-145010628D02*
X45471429Y-145182057D01*
X45471429Y-145182057D02*
X45547619Y-145524914D01*
X45547619Y-145524914D02*
X45547619Y-146124914D01*
X45547619Y-146124914D02*
X45471429Y-146467771D01*
X45471429Y-146467771D02*
X45319048Y-146639200D01*
X45319048Y-146639200D02*
X45166667Y-146724914D01*
X45166667Y-146724914D02*
X44861905Y-146724914D01*
X44861905Y-146724914D02*
X44709524Y-146639200D01*
X44709524Y-146639200D02*
X44557143Y-146467771D01*
X44557143Y-146467771D02*
X44480952Y-146124914D01*
X44480952Y-146124914D02*
X44480952Y-145524914D01*
X44480952Y-145524914D02*
X44557143Y-145182057D01*
X44557143Y-145182057D02*
X44709524Y-145010628D01*
X44709524Y-145010628D02*
X44861905Y-144924914D01*
X47147619Y-146553485D02*
X47071428Y-146639200D01*
X47071428Y-146639200D02*
X46842857Y-146724914D01*
X46842857Y-146724914D02*
X46690476Y-146724914D01*
X46690476Y-146724914D02*
X46461904Y-146639200D01*
X46461904Y-146639200D02*
X46309523Y-146467771D01*
X46309523Y-146467771D02*
X46233333Y-146296342D01*
X46233333Y-146296342D02*
X46157142Y-145953485D01*
X46157142Y-145953485D02*
X46157142Y-145696342D01*
X46157142Y-145696342D02*
X46233333Y-145353485D01*
X46233333Y-145353485D02*
X46309523Y-145182057D01*
X46309523Y-145182057D02*
X46461904Y-145010628D01*
X46461904Y-145010628D02*
X46690476Y-144924914D01*
X46690476Y-144924914D02*
X46842857Y-144924914D01*
X46842857Y-144924914D02*
X47071428Y-145010628D01*
X47071428Y-145010628D02*
X47147619Y-145096342D01*
X47604761Y-144924914D02*
X48519047Y-144924914D01*
X48061904Y-146724914D02*
X48061904Y-144924914D01*
X51100000Y-161890200D02*
X51300000Y-161975914D01*
X51300000Y-161975914D02*
X51633334Y-161975914D01*
X51633334Y-161975914D02*
X51766667Y-161890200D01*
X51766667Y-161890200D02*
X51833334Y-161804485D01*
X51833334Y-161804485D02*
X51900000Y-161633057D01*
X51900000Y-161633057D02*
X51900000Y-161461628D01*
X51900000Y-161461628D02*
X51833334Y-161290200D01*
X51833334Y-161290200D02*
X51766667Y-161204485D01*
X51766667Y-161204485D02*
X51633334Y-161118771D01*
X51633334Y-161118771D02*
X51366667Y-161033057D01*
X51366667Y-161033057D02*
X51233334Y-160947342D01*
X51233334Y-160947342D02*
X51166667Y-160861628D01*
X51166667Y-160861628D02*
X51100000Y-160690200D01*
X51100000Y-160690200D02*
X51100000Y-160518771D01*
X51100000Y-160518771D02*
X51166667Y-160347342D01*
X51166667Y-160347342D02*
X51233334Y-160261628D01*
X51233334Y-160261628D02*
X51366667Y-160175914D01*
X51366667Y-160175914D02*
X51700000Y-160175914D01*
X51700000Y-160175914D02*
X51900000Y-160261628D01*
X52433333Y-161461628D02*
X53100000Y-161461628D01*
X52300000Y-161975914D02*
X52766667Y-160175914D01*
X52766667Y-160175914D02*
X53233333Y-161975914D01*
X53566667Y-160175914D02*
X53900000Y-161975914D01*
X53900000Y-161975914D02*
X54166667Y-160690200D01*
X54166667Y-160690200D02*
X54433333Y-161975914D01*
X54433333Y-161975914D02*
X54766667Y-160175914D01*
X51500000Y-163073914D02*
X51766666Y-163073914D01*
X51766666Y-163073914D02*
X51900000Y-163159628D01*
X51900000Y-163159628D02*
X52033333Y-163331057D01*
X52033333Y-163331057D02*
X52100000Y-163673914D01*
X52100000Y-163673914D02*
X52100000Y-164273914D01*
X52100000Y-164273914D02*
X52033333Y-164616771D01*
X52033333Y-164616771D02*
X51900000Y-164788200D01*
X51900000Y-164788200D02*
X51766666Y-164873914D01*
X51766666Y-164873914D02*
X51500000Y-164873914D01*
X51500000Y-164873914D02*
X51366666Y-164788200D01*
X51366666Y-164788200D02*
X51233333Y-164616771D01*
X51233333Y-164616771D02*
X51166666Y-164273914D01*
X51166666Y-164273914D02*
X51166666Y-163673914D01*
X51166666Y-163673914D02*
X51233333Y-163331057D01*
X51233333Y-163331057D02*
X51366666Y-163159628D01*
X51366666Y-163159628D02*
X51500000Y-163073914D01*
X52700000Y-163073914D02*
X52700000Y-164531057D01*
X52700000Y-164531057D02*
X52766667Y-164702485D01*
X52766667Y-164702485D02*
X52833333Y-164788200D01*
X52833333Y-164788200D02*
X52966667Y-164873914D01*
X52966667Y-164873914D02*
X53233333Y-164873914D01*
X53233333Y-164873914D02*
X53366667Y-164788200D01*
X53366667Y-164788200D02*
X53433333Y-164702485D01*
X53433333Y-164702485D02*
X53500000Y-164531057D01*
X53500000Y-164531057D02*
X53500000Y-163073914D01*
X53966667Y-163073914D02*
X54766667Y-163073914D01*
X54366667Y-164873914D02*
X54366667Y-163073914D01*
X60609524Y-162075914D02*
X60609524Y-160275914D01*
X60609524Y-160275914D02*
X61219048Y-160275914D01*
X61219048Y-160275914D02*
X61371429Y-160361628D01*
X61371429Y-160361628D02*
X61447619Y-160447342D01*
X61447619Y-160447342D02*
X61523810Y-160618771D01*
X61523810Y-160618771D02*
X61523810Y-160875914D01*
X61523810Y-160875914D02*
X61447619Y-161047342D01*
X61447619Y-161047342D02*
X61371429Y-161133057D01*
X61371429Y-161133057D02*
X61219048Y-161218771D01*
X61219048Y-161218771D02*
X60609524Y-161218771D01*
X62209524Y-160275914D02*
X62209524Y-161733057D01*
X62209524Y-161733057D02*
X62285714Y-161904485D01*
X62285714Y-161904485D02*
X62361905Y-161990200D01*
X62361905Y-161990200D02*
X62514286Y-162075914D01*
X62514286Y-162075914D02*
X62819048Y-162075914D01*
X62819048Y-162075914D02*
X62971429Y-161990200D01*
X62971429Y-161990200D02*
X63047619Y-161904485D01*
X63047619Y-161904485D02*
X63123810Y-161733057D01*
X63123810Y-161733057D02*
X63123810Y-160275914D01*
X64647619Y-162075914D02*
X63885714Y-162075914D01*
X63885714Y-162075914D02*
X63885714Y-160275914D01*
X65104761Y-161990200D02*
X65333333Y-162075914D01*
X65333333Y-162075914D02*
X65714285Y-162075914D01*
X65714285Y-162075914D02*
X65866666Y-161990200D01*
X65866666Y-161990200D02*
X65942857Y-161904485D01*
X65942857Y-161904485D02*
X66019047Y-161733057D01*
X66019047Y-161733057D02*
X66019047Y-161561628D01*
X66019047Y-161561628D02*
X65942857Y-161390200D01*
X65942857Y-161390200D02*
X65866666Y-161304485D01*
X65866666Y-161304485D02*
X65714285Y-161218771D01*
X65714285Y-161218771D02*
X65409523Y-161133057D01*
X65409523Y-161133057D02*
X65257142Y-161047342D01*
X65257142Y-161047342D02*
X65180952Y-160961628D01*
X65180952Y-160961628D02*
X65104761Y-160790200D01*
X65104761Y-160790200D02*
X65104761Y-160618771D01*
X65104761Y-160618771D02*
X65180952Y-160447342D01*
X65180952Y-160447342D02*
X65257142Y-160361628D01*
X65257142Y-160361628D02*
X65409523Y-160275914D01*
X65409523Y-160275914D02*
X65790476Y-160275914D01*
X65790476Y-160275914D02*
X66019047Y-160361628D01*
X66704762Y-161133057D02*
X67238095Y-161133057D01*
X67466667Y-162075914D02*
X66704762Y-162075914D01*
X66704762Y-162075914D02*
X66704762Y-160275914D01*
X66704762Y-160275914D02*
X67466667Y-160275914D01*
X62400000Y-163173914D02*
X62704762Y-163173914D01*
X62704762Y-163173914D02*
X62857143Y-163259628D01*
X62857143Y-163259628D02*
X63009524Y-163431057D01*
X63009524Y-163431057D02*
X63085714Y-163773914D01*
X63085714Y-163773914D02*
X63085714Y-164373914D01*
X63085714Y-164373914D02*
X63009524Y-164716771D01*
X63009524Y-164716771D02*
X62857143Y-164888200D01*
X62857143Y-164888200D02*
X62704762Y-164973914D01*
X62704762Y-164973914D02*
X62400000Y-164973914D01*
X62400000Y-164973914D02*
X62247619Y-164888200D01*
X62247619Y-164888200D02*
X62095238Y-164716771D01*
X62095238Y-164716771D02*
X62019047Y-164373914D01*
X62019047Y-164373914D02*
X62019047Y-163773914D01*
X62019047Y-163773914D02*
X62095238Y-163431057D01*
X62095238Y-163431057D02*
X62247619Y-163259628D01*
X62247619Y-163259628D02*
X62400000Y-163173914D01*
X63771428Y-163173914D02*
X63771428Y-164631057D01*
X63771428Y-164631057D02*
X63847618Y-164802485D01*
X63847618Y-164802485D02*
X63923809Y-164888200D01*
X63923809Y-164888200D02*
X64076190Y-164973914D01*
X64076190Y-164973914D02*
X64380952Y-164973914D01*
X64380952Y-164973914D02*
X64533333Y-164888200D01*
X64533333Y-164888200D02*
X64609523Y-164802485D01*
X64609523Y-164802485D02*
X64685714Y-164631057D01*
X64685714Y-164631057D02*
X64685714Y-163173914D01*
X65219046Y-163173914D02*
X66133332Y-163173914D01*
X65676189Y-164973914D02*
X65676189Y-163173914D01*
X41785714Y-126382057D02*
X41252381Y-126382057D01*
X41252381Y-127324914D02*
X41252381Y-125524914D01*
X41252381Y-125524914D02*
X42014286Y-125524914D01*
X42623810Y-127324914D02*
X42623810Y-125524914D01*
X42623810Y-125524914D02*
X43157143Y-126810628D01*
X43157143Y-126810628D02*
X43690477Y-125524914D01*
X43690477Y-125524914D02*
X43690477Y-127324914D01*
X45671429Y-127324914D02*
X45671429Y-125524914D01*
X46433334Y-127324914D02*
X46433334Y-125524914D01*
X46433334Y-125524914D02*
X47347620Y-127324914D01*
X47347620Y-127324914D02*
X47347620Y-125524914D01*
X64371429Y-76382057D02*
X63771429Y-76382057D01*
X63771429Y-77324914D02*
X63771429Y-75524914D01*
X63771429Y-75524914D02*
X64628572Y-75524914D01*
X65314286Y-77324914D02*
X65314286Y-75524914D01*
X66171429Y-77324914D02*
X66171429Y-75524914D01*
X66171429Y-75524914D02*
X67200000Y-77324914D01*
X67200000Y-77324914D02*
X67200000Y-75524914D01*
X68057143Y-76382057D02*
X68657143Y-76382057D01*
X68914286Y-77324914D02*
X68057143Y-77324914D01*
X68057143Y-77324914D02*
X68057143Y-75524914D01*
X68057143Y-75524914D02*
X68914286Y-75524914D01*
X42271428Y-78353485D02*
X42185714Y-78439200D01*
X42185714Y-78439200D02*
X41928571Y-78524914D01*
X41928571Y-78524914D02*
X41757143Y-78524914D01*
X41757143Y-78524914D02*
X41500000Y-78439200D01*
X41500000Y-78439200D02*
X41328571Y-78267771D01*
X41328571Y-78267771D02*
X41242857Y-78096342D01*
X41242857Y-78096342D02*
X41157143Y-77753485D01*
X41157143Y-77753485D02*
X41157143Y-77496342D01*
X41157143Y-77496342D02*
X41242857Y-77153485D01*
X41242857Y-77153485D02*
X41328571Y-76982057D01*
X41328571Y-76982057D02*
X41500000Y-76810628D01*
X41500000Y-76810628D02*
X41757143Y-76724914D01*
X41757143Y-76724914D02*
X41928571Y-76724914D01*
X41928571Y-76724914D02*
X42185714Y-76810628D01*
X42185714Y-76810628D02*
X42271428Y-76896342D01*
X43385714Y-76724914D02*
X43728571Y-76724914D01*
X43728571Y-76724914D02*
X43900000Y-76810628D01*
X43900000Y-76810628D02*
X44071428Y-76982057D01*
X44071428Y-76982057D02*
X44157143Y-77324914D01*
X44157143Y-77324914D02*
X44157143Y-77924914D01*
X44157143Y-77924914D02*
X44071428Y-78267771D01*
X44071428Y-78267771D02*
X43900000Y-78439200D01*
X43900000Y-78439200D02*
X43728571Y-78524914D01*
X43728571Y-78524914D02*
X43385714Y-78524914D01*
X43385714Y-78524914D02*
X43214286Y-78439200D01*
X43214286Y-78439200D02*
X43042857Y-78267771D01*
X43042857Y-78267771D02*
X42957143Y-77924914D01*
X42957143Y-77924914D02*
X42957143Y-77324914D01*
X42957143Y-77324914D02*
X43042857Y-76982057D01*
X43042857Y-76982057D02*
X43214286Y-76810628D01*
X43214286Y-76810628D02*
X43385714Y-76724914D01*
X44842857Y-78010628D02*
X45700000Y-78010628D01*
X44671428Y-78524914D02*
X45271428Y-76724914D01*
X45271428Y-76724914D02*
X45871428Y-78524914D01*
X47499999Y-78524914D02*
X46899999Y-77667771D01*
X46471428Y-78524914D02*
X46471428Y-76724914D01*
X46471428Y-76724914D02*
X47157142Y-76724914D01*
X47157142Y-76724914D02*
X47328571Y-76810628D01*
X47328571Y-76810628D02*
X47414285Y-76896342D01*
X47414285Y-76896342D02*
X47499999Y-77067771D01*
X47499999Y-77067771D02*
X47499999Y-77324914D01*
X47499999Y-77324914D02*
X47414285Y-77496342D01*
X47414285Y-77496342D02*
X47328571Y-77582057D01*
X47328571Y-77582057D02*
X47157142Y-77667771D01*
X47157142Y-77667771D02*
X46471428Y-77667771D01*
X48185714Y-78439200D02*
X48442857Y-78524914D01*
X48442857Y-78524914D02*
X48871428Y-78524914D01*
X48871428Y-78524914D02*
X49042857Y-78439200D01*
X49042857Y-78439200D02*
X49128571Y-78353485D01*
X49128571Y-78353485D02*
X49214285Y-78182057D01*
X49214285Y-78182057D02*
X49214285Y-78010628D01*
X49214285Y-78010628D02*
X49128571Y-77839200D01*
X49128571Y-77839200D02*
X49042857Y-77753485D01*
X49042857Y-77753485D02*
X48871428Y-77667771D01*
X48871428Y-77667771D02*
X48528571Y-77582057D01*
X48528571Y-77582057D02*
X48357142Y-77496342D01*
X48357142Y-77496342D02*
X48271428Y-77410628D01*
X48271428Y-77410628D02*
X48185714Y-77239200D01*
X48185714Y-77239200D02*
X48185714Y-77067771D01*
X48185714Y-77067771D02*
X48271428Y-76896342D01*
X48271428Y-76896342D02*
X48357142Y-76810628D01*
X48357142Y-76810628D02*
X48528571Y-76724914D01*
X48528571Y-76724914D02*
X48957142Y-76724914D01*
X48957142Y-76724914D02*
X49214285Y-76810628D01*
X49985714Y-77582057D02*
X50585714Y-77582057D01*
X50842857Y-78524914D02*
X49985714Y-78524914D01*
X49985714Y-78524914D02*
X49985714Y-76724914D01*
X49985714Y-76724914D02*
X50842857Y-76724914D01*
D12*
X69000000Y-132000000D02*
G75*
G03*
X69000000Y-132000000I-10000000J0D01*
G01*
X61512492Y-66012492D02*
G75*
G03*
X61512492Y-66012492I-10012492J0D01*
G01*
X69000000Y-87000000D02*
G75*
G03*
X69000000Y-87000000I-10000000J0D01*
G01*
X69000626Y-109611874D02*
G75*
G03*
X69000626Y-109611874I-10000626J0D01*
G01*
D11*
X71962619Y-170040133D02*
X71486428Y-170373466D01*
X71962619Y-170611561D02*
X70962619Y-170611561D01*
X70962619Y-170611561D02*
X70962619Y-170230609D01*
X70962619Y-170230609D02*
X71010238Y-170135371D01*
X71010238Y-170135371D02*
X71057857Y-170087752D01*
X71057857Y-170087752D02*
X71153095Y-170040133D01*
X71153095Y-170040133D02*
X71295952Y-170040133D01*
X71295952Y-170040133D02*
X71391190Y-170087752D01*
X71391190Y-170087752D02*
X71438809Y-170135371D01*
X71438809Y-170135371D02*
X71486428Y-170230609D01*
X71486428Y-170230609D02*
X71486428Y-170611561D01*
X71438809Y-169611561D02*
X71438809Y-169278228D01*
X71962619Y-169135371D02*
X71962619Y-169611561D01*
X71962619Y-169611561D02*
X70962619Y-169611561D01*
X70962619Y-169611561D02*
X70962619Y-169135371D01*
X71438809Y-168373466D02*
X71438809Y-168706799D01*
X71962619Y-168706799D02*
X70962619Y-168706799D01*
X70962619Y-168706799D02*
X70962619Y-168230609D01*
X70962619Y-167706799D02*
X71200714Y-167706799D01*
X71105476Y-167944894D02*
X71200714Y-167706799D01*
X71200714Y-167706799D02*
X71105476Y-167468704D01*
X71391190Y-167849656D02*
X71200714Y-167706799D01*
X71200714Y-167706799D02*
X71391190Y-167563942D01*
X70962619Y-166944894D02*
X71200714Y-166944894D01*
X71105476Y-167182989D02*
X71200714Y-166944894D01*
X71200714Y-166944894D02*
X71105476Y-166706799D01*
X71391190Y-167087751D02*
X71200714Y-166944894D01*
X71200714Y-166944894D02*
X71391190Y-166802037D01*
X71962619Y-164960133D02*
X71486428Y-165293466D01*
X71962619Y-165531561D02*
X70962619Y-165531561D01*
X70962619Y-165531561D02*
X70962619Y-165150609D01*
X70962619Y-165150609D02*
X71010238Y-165055371D01*
X71010238Y-165055371D02*
X71057857Y-165007752D01*
X71057857Y-165007752D02*
X71153095Y-164960133D01*
X71153095Y-164960133D02*
X71295952Y-164960133D01*
X71295952Y-164960133D02*
X71391190Y-165007752D01*
X71391190Y-165007752D02*
X71438809Y-165055371D01*
X71438809Y-165055371D02*
X71486428Y-165150609D01*
X71486428Y-165150609D02*
X71486428Y-165531561D01*
X71438809Y-164531561D02*
X71438809Y-164198228D01*
X71962619Y-164055371D02*
X71962619Y-164531561D01*
X71962619Y-164531561D02*
X70962619Y-164531561D01*
X70962619Y-164531561D02*
X70962619Y-164055371D01*
X71438809Y-163293466D02*
X71438809Y-163626799D01*
X71962619Y-163626799D02*
X70962619Y-163626799D01*
X70962619Y-163626799D02*
X70962619Y-163150609D01*
X70962619Y-162626799D02*
X71200714Y-162626799D01*
X71105476Y-162864894D02*
X71200714Y-162626799D01*
X71200714Y-162626799D02*
X71105476Y-162388704D01*
X71391190Y-162769656D02*
X71200714Y-162626799D01*
X71200714Y-162626799D02*
X71391190Y-162483942D01*
X70962619Y-161864894D02*
X71200714Y-161864894D01*
X71105476Y-162102989D02*
X71200714Y-161864894D01*
X71200714Y-161864894D02*
X71105476Y-161626799D01*
X71391190Y-162007751D02*
X71200714Y-161864894D01*
X71200714Y-161864894D02*
X71391190Y-161722037D01*
X71962619Y-159880133D02*
X71486428Y-160213466D01*
X71962619Y-160451561D02*
X70962619Y-160451561D01*
X70962619Y-160451561D02*
X70962619Y-160070609D01*
X70962619Y-160070609D02*
X71010238Y-159975371D01*
X71010238Y-159975371D02*
X71057857Y-159927752D01*
X71057857Y-159927752D02*
X71153095Y-159880133D01*
X71153095Y-159880133D02*
X71295952Y-159880133D01*
X71295952Y-159880133D02*
X71391190Y-159927752D01*
X71391190Y-159927752D02*
X71438809Y-159975371D01*
X71438809Y-159975371D02*
X71486428Y-160070609D01*
X71486428Y-160070609D02*
X71486428Y-160451561D01*
X71438809Y-159451561D02*
X71438809Y-159118228D01*
X71962619Y-158975371D02*
X71962619Y-159451561D01*
X71962619Y-159451561D02*
X70962619Y-159451561D01*
X70962619Y-159451561D02*
X70962619Y-158975371D01*
X71438809Y-158213466D02*
X71438809Y-158546799D01*
X71962619Y-158546799D02*
X70962619Y-158546799D01*
X70962619Y-158546799D02*
X70962619Y-158070609D01*
X70962619Y-157546799D02*
X71200714Y-157546799D01*
X71105476Y-157784894D02*
X71200714Y-157546799D01*
X71200714Y-157546799D02*
X71105476Y-157308704D01*
X71391190Y-157689656D02*
X71200714Y-157546799D01*
X71200714Y-157546799D02*
X71391190Y-157403942D01*
X70962619Y-156784894D02*
X71200714Y-156784894D01*
X71105476Y-157022989D02*
X71200714Y-156784894D01*
X71200714Y-156784894D02*
X71105476Y-156546799D01*
X71391190Y-156927751D02*
X71200714Y-156784894D01*
X71200714Y-156784894D02*
X71391190Y-156642037D01*
X64266666Y-171454819D02*
X63933333Y-170978628D01*
X63695238Y-171454819D02*
X63695238Y-170454819D01*
X63695238Y-170454819D02*
X64076190Y-170454819D01*
X64076190Y-170454819D02*
X64171428Y-170502438D01*
X64171428Y-170502438D02*
X64219047Y-170550057D01*
X64219047Y-170550057D02*
X64266666Y-170645295D01*
X64266666Y-170645295D02*
X64266666Y-170788152D01*
X64266666Y-170788152D02*
X64219047Y-170883390D01*
X64219047Y-170883390D02*
X64171428Y-170931009D01*
X64171428Y-170931009D02*
X64076190Y-170978628D01*
X64076190Y-170978628D02*
X63695238Y-170978628D01*
X64695238Y-170931009D02*
X65028571Y-170931009D01*
X65171428Y-171454819D02*
X64695238Y-171454819D01*
X64695238Y-171454819D02*
X64695238Y-170454819D01*
X64695238Y-170454819D02*
X65171428Y-170454819D01*
X65933333Y-170931009D02*
X65600000Y-170931009D01*
X65600000Y-171454819D02*
X65600000Y-170454819D01*
X65600000Y-170454819D02*
X66076190Y-170454819D01*
X66600000Y-170454819D02*
X66600000Y-170692914D01*
X66361905Y-170597676D02*
X66600000Y-170692914D01*
X66600000Y-170692914D02*
X66838095Y-170597676D01*
X66457143Y-170883390D02*
X66600000Y-170692914D01*
X66600000Y-170692914D02*
X66742857Y-170883390D01*
X67361905Y-170454819D02*
X67361905Y-170692914D01*
X67123810Y-170597676D02*
X67361905Y-170692914D01*
X67361905Y-170692914D02*
X67600000Y-170597676D01*
X67219048Y-170883390D02*
X67361905Y-170692914D01*
X67361905Y-170692914D02*
X67504762Y-170883390D01*
X43066666Y-48954819D02*
X42733333Y-48478628D01*
X42495238Y-48954819D02*
X42495238Y-47954819D01*
X42495238Y-47954819D02*
X42876190Y-47954819D01*
X42876190Y-47954819D02*
X42971428Y-48002438D01*
X42971428Y-48002438D02*
X43019047Y-48050057D01*
X43019047Y-48050057D02*
X43066666Y-48145295D01*
X43066666Y-48145295D02*
X43066666Y-48288152D01*
X43066666Y-48288152D02*
X43019047Y-48383390D01*
X43019047Y-48383390D02*
X42971428Y-48431009D01*
X42971428Y-48431009D02*
X42876190Y-48478628D01*
X42876190Y-48478628D02*
X42495238Y-48478628D01*
X43495238Y-48431009D02*
X43828571Y-48431009D01*
X43971428Y-48954819D02*
X43495238Y-48954819D01*
X43495238Y-48954819D02*
X43495238Y-47954819D01*
X43495238Y-47954819D02*
X43971428Y-47954819D01*
X44733333Y-48431009D02*
X44400000Y-48431009D01*
X44400000Y-48954819D02*
X44400000Y-47954819D01*
X44400000Y-47954819D02*
X44876190Y-47954819D01*
X45400000Y-47954819D02*
X45400000Y-48192914D01*
X45161905Y-48097676D02*
X45400000Y-48192914D01*
X45400000Y-48192914D02*
X45638095Y-48097676D01*
X45257143Y-48383390D02*
X45400000Y-48192914D01*
X45400000Y-48192914D02*
X45542857Y-48383390D01*
X46161905Y-47954819D02*
X46161905Y-48192914D01*
X45923810Y-48097676D02*
X46161905Y-48192914D01*
X46161905Y-48192914D02*
X46400000Y-48097676D01*
X46019048Y-48383390D02*
X46161905Y-48192914D01*
X46161905Y-48192914D02*
X46304762Y-48383390D01*
X98071009Y-102948095D02*
X98071009Y-103281428D01*
X98594819Y-103281428D02*
X97594819Y-103281428D01*
X97594819Y-103281428D02*
X97594819Y-102805238D01*
X98594819Y-102424285D02*
X97594819Y-102424285D01*
X97594819Y-102424285D02*
X98309104Y-102090952D01*
X98309104Y-102090952D02*
X97594819Y-101757619D01*
X97594819Y-101757619D02*
X98594819Y-101757619D01*
X98690057Y-101519524D02*
X98690057Y-100757619D01*
X98309104Y-100567142D02*
X98309104Y-100090952D01*
X98594819Y-100662380D02*
X97594819Y-100329047D01*
X97594819Y-100329047D02*
X98594819Y-99995714D01*
X98594819Y-99662380D02*
X97594819Y-99662380D01*
X97594819Y-99662380D02*
X98309104Y-99329047D01*
X98309104Y-99329047D02*
X97594819Y-98995714D01*
X97594819Y-98995714D02*
X98594819Y-98995714D01*
X97594819Y-98329047D02*
X97594819Y-98138571D01*
X97594819Y-98138571D02*
X97642438Y-98043333D01*
X97642438Y-98043333D02*
X97737676Y-97948095D01*
X97737676Y-97948095D02*
X97928152Y-97900476D01*
X97928152Y-97900476D02*
X98261485Y-97900476D01*
X98261485Y-97900476D02*
X98451961Y-97948095D01*
X98451961Y-97948095D02*
X98547200Y-98043333D01*
X98547200Y-98043333D02*
X98594819Y-98138571D01*
X98594819Y-98138571D02*
X98594819Y-98329047D01*
X98594819Y-98329047D02*
X98547200Y-98424285D01*
X98547200Y-98424285D02*
X98451961Y-98519523D01*
X98451961Y-98519523D02*
X98261485Y-98567142D01*
X98261485Y-98567142D02*
X97928152Y-98567142D01*
X97928152Y-98567142D02*
X97737676Y-98519523D01*
X97737676Y-98519523D02*
X97642438Y-98424285D01*
X97642438Y-98424285D02*
X97594819Y-98329047D01*
X97594819Y-97471904D02*
X98404342Y-97471904D01*
X98404342Y-97471904D02*
X98499580Y-97424285D01*
X98499580Y-97424285D02*
X98547200Y-97376666D01*
X98547200Y-97376666D02*
X98594819Y-97281428D01*
X98594819Y-97281428D02*
X98594819Y-97090952D01*
X98594819Y-97090952D02*
X98547200Y-96995714D01*
X98547200Y-96995714D02*
X98499580Y-96948095D01*
X98499580Y-96948095D02*
X98404342Y-96900476D01*
X98404342Y-96900476D02*
X97594819Y-96900476D01*
X98594819Y-96424285D02*
X97594819Y-96424285D01*
X97594819Y-96424285D02*
X98594819Y-95852857D01*
X98594819Y-95852857D02*
X97594819Y-95852857D01*
X97594819Y-95519523D02*
X97594819Y-94948095D01*
X98594819Y-95233809D02*
X97594819Y-95233809D01*
X98594819Y-94090952D02*
X98594819Y-94662380D01*
X98594819Y-94376666D02*
X97594819Y-94376666D01*
X97594819Y-94376666D02*
X97737676Y-94471904D01*
X97737676Y-94471904D02*
X97832914Y-94567142D01*
X97832914Y-94567142D02*
X97880533Y-94662380D01*
X98594819Y-100043333D02*
X98118628Y-100376666D01*
X98594819Y-100614761D02*
X97594819Y-100614761D01*
X97594819Y-100614761D02*
X97594819Y-100233809D01*
X97594819Y-100233809D02*
X97642438Y-100138571D01*
X97642438Y-100138571D02*
X97690057Y-100090952D01*
X97690057Y-100090952D02*
X97785295Y-100043333D01*
X97785295Y-100043333D02*
X97928152Y-100043333D01*
X97928152Y-100043333D02*
X98023390Y-100090952D01*
X98023390Y-100090952D02*
X98071009Y-100138571D01*
X98071009Y-100138571D02*
X98118628Y-100233809D01*
X98118628Y-100233809D02*
X98118628Y-100614761D01*
X98071009Y-99614761D02*
X98071009Y-99281428D01*
X98594819Y-99138571D02*
X98594819Y-99614761D01*
X98594819Y-99614761D02*
X97594819Y-99614761D01*
X97594819Y-99614761D02*
X97594819Y-99138571D01*
X98071009Y-98376666D02*
X98071009Y-98709999D01*
X98594819Y-98709999D02*
X97594819Y-98709999D01*
X97594819Y-98709999D02*
X97594819Y-98233809D01*
X97594819Y-97709999D02*
X97832914Y-97709999D01*
X97737676Y-97948094D02*
X97832914Y-97709999D01*
X97832914Y-97709999D02*
X97737676Y-97471904D01*
X98023390Y-97852856D02*
X97832914Y-97709999D01*
X97832914Y-97709999D02*
X98023390Y-97567142D01*
X97594819Y-96948094D02*
X97832914Y-96948094D01*
X97737676Y-97186189D02*
X97832914Y-96948094D01*
X97832914Y-96948094D02*
X97737676Y-96709999D01*
X98023390Y-97090951D02*
X97832914Y-96948094D01*
X97832914Y-96948094D02*
X98023390Y-96805237D01*
X84314819Y-127980475D02*
X83314819Y-127980475D01*
X83314819Y-127980475D02*
X83314819Y-127599523D01*
X83314819Y-127599523D02*
X83362438Y-127504285D01*
X83362438Y-127504285D02*
X83410057Y-127456666D01*
X83410057Y-127456666D02*
X83505295Y-127409047D01*
X83505295Y-127409047D02*
X83648152Y-127409047D01*
X83648152Y-127409047D02*
X83743390Y-127456666D01*
X83743390Y-127456666D02*
X83791009Y-127504285D01*
X83791009Y-127504285D02*
X83838628Y-127599523D01*
X83838628Y-127599523D02*
X83838628Y-127980475D01*
X83314819Y-126980475D02*
X84124342Y-126980475D01*
X84124342Y-126980475D02*
X84219580Y-126932856D01*
X84219580Y-126932856D02*
X84267200Y-126885237D01*
X84267200Y-126885237D02*
X84314819Y-126789999D01*
X84314819Y-126789999D02*
X84314819Y-126599523D01*
X84314819Y-126599523D02*
X84267200Y-126504285D01*
X84267200Y-126504285D02*
X84219580Y-126456666D01*
X84219580Y-126456666D02*
X84124342Y-126409047D01*
X84124342Y-126409047D02*
X83314819Y-126409047D01*
X84314819Y-125456666D02*
X84314819Y-125932856D01*
X84314819Y-125932856D02*
X83314819Y-125932856D01*
X84267200Y-125170951D02*
X84314819Y-125028094D01*
X84314819Y-125028094D02*
X84314819Y-124789999D01*
X84314819Y-124789999D02*
X84267200Y-124694761D01*
X84267200Y-124694761D02*
X84219580Y-124647142D01*
X84219580Y-124647142D02*
X84124342Y-124599523D01*
X84124342Y-124599523D02*
X84029104Y-124599523D01*
X84029104Y-124599523D02*
X83933866Y-124647142D01*
X83933866Y-124647142D02*
X83886247Y-124694761D01*
X83886247Y-124694761D02*
X83838628Y-124789999D01*
X83838628Y-124789999D02*
X83791009Y-124980475D01*
X83791009Y-124980475D02*
X83743390Y-125075713D01*
X83743390Y-125075713D02*
X83695771Y-125123332D01*
X83695771Y-125123332D02*
X83600533Y-125170951D01*
X83600533Y-125170951D02*
X83505295Y-125170951D01*
X83505295Y-125170951D02*
X83410057Y-125123332D01*
X83410057Y-125123332D02*
X83362438Y-125075713D01*
X83362438Y-125075713D02*
X83314819Y-124980475D01*
X83314819Y-124980475D02*
X83314819Y-124742380D01*
X83314819Y-124742380D02*
X83362438Y-124599523D01*
X83791009Y-124170951D02*
X83791009Y-123837618D01*
X84314819Y-123694761D02*
X84314819Y-124170951D01*
X84314819Y-124170951D02*
X83314819Y-124170951D01*
X83314819Y-124170951D02*
X83314819Y-123694761D01*
X84410057Y-123504285D02*
X84410057Y-122742380D01*
X83314819Y-122599522D02*
X84314819Y-122361427D01*
X84314819Y-122361427D02*
X83600533Y-122170951D01*
X83600533Y-122170951D02*
X84314819Y-121980475D01*
X84314819Y-121980475D02*
X83314819Y-121742380D01*
X84314819Y-121361427D02*
X83314819Y-121361427D01*
X84314819Y-120885237D02*
X83314819Y-120885237D01*
X83314819Y-120885237D02*
X83314819Y-120647142D01*
X83314819Y-120647142D02*
X83362438Y-120504285D01*
X83362438Y-120504285D02*
X83457676Y-120409047D01*
X83457676Y-120409047D02*
X83552914Y-120361428D01*
X83552914Y-120361428D02*
X83743390Y-120313809D01*
X83743390Y-120313809D02*
X83886247Y-120313809D01*
X83886247Y-120313809D02*
X84076723Y-120361428D01*
X84076723Y-120361428D02*
X84171961Y-120409047D01*
X84171961Y-120409047D02*
X84267200Y-120504285D01*
X84267200Y-120504285D02*
X84314819Y-120647142D01*
X84314819Y-120647142D02*
X84314819Y-120885237D01*
X83314819Y-120028094D02*
X83314819Y-119456666D01*
X84314819Y-119742380D02*
X83314819Y-119742380D01*
X84314819Y-119123332D02*
X83314819Y-119123332D01*
X83791009Y-119123332D02*
X83791009Y-118551904D01*
X84314819Y-118551904D02*
X83314819Y-118551904D01*
X84314819Y-117551904D02*
X84314819Y-118123332D01*
X84314819Y-117837618D02*
X83314819Y-117837618D01*
X83314819Y-117837618D02*
X83457676Y-117932856D01*
X83457676Y-117932856D02*
X83552914Y-118028094D01*
X83552914Y-118028094D02*
X83600533Y-118123332D01*
X84314819Y-124123333D02*
X83838628Y-124456666D01*
X84314819Y-124694761D02*
X83314819Y-124694761D01*
X83314819Y-124694761D02*
X83314819Y-124313809D01*
X83314819Y-124313809D02*
X83362438Y-124218571D01*
X83362438Y-124218571D02*
X83410057Y-124170952D01*
X83410057Y-124170952D02*
X83505295Y-124123333D01*
X83505295Y-124123333D02*
X83648152Y-124123333D01*
X83648152Y-124123333D02*
X83743390Y-124170952D01*
X83743390Y-124170952D02*
X83791009Y-124218571D01*
X83791009Y-124218571D02*
X83838628Y-124313809D01*
X83838628Y-124313809D02*
X83838628Y-124694761D01*
X83791009Y-123694761D02*
X83791009Y-123361428D01*
X84314819Y-123218571D02*
X84314819Y-123694761D01*
X84314819Y-123694761D02*
X83314819Y-123694761D01*
X83314819Y-123694761D02*
X83314819Y-123218571D01*
X83791009Y-122456666D02*
X83791009Y-122789999D01*
X84314819Y-122789999D02*
X83314819Y-122789999D01*
X83314819Y-122789999D02*
X83314819Y-122313809D01*
X83314819Y-121789999D02*
X83552914Y-121789999D01*
X83457676Y-122028094D02*
X83552914Y-121789999D01*
X83552914Y-121789999D02*
X83457676Y-121551904D01*
X83743390Y-121932856D02*
X83552914Y-121789999D01*
X83552914Y-121789999D02*
X83743390Y-121647142D01*
X83314819Y-121028094D02*
X83552914Y-121028094D01*
X83457676Y-121266189D02*
X83552914Y-121028094D01*
X83552914Y-121028094D02*
X83457676Y-120789999D01*
X83743390Y-121170951D02*
X83552914Y-121028094D01*
X83552914Y-121028094D02*
X83743390Y-120885237D01*
X90354819Y-63333332D02*
X90354819Y-62761904D01*
X91354819Y-63047618D02*
X90354819Y-63047618D01*
X90354819Y-62428570D02*
X91164342Y-62428570D01*
X91164342Y-62428570D02*
X91259580Y-62380951D01*
X91259580Y-62380951D02*
X91307200Y-62333332D01*
X91307200Y-62333332D02*
X91354819Y-62238094D01*
X91354819Y-62238094D02*
X91354819Y-62047618D01*
X91354819Y-62047618D02*
X91307200Y-61952380D01*
X91307200Y-61952380D02*
X91259580Y-61904761D01*
X91259580Y-61904761D02*
X91164342Y-61857142D01*
X91164342Y-61857142D02*
X90354819Y-61857142D01*
X91354819Y-61380951D02*
X90354819Y-61380951D01*
X90354819Y-61380951D02*
X91354819Y-60809523D01*
X91354819Y-60809523D02*
X90354819Y-60809523D01*
X91354819Y-60333332D02*
X90354819Y-60333332D01*
X91354819Y-59857142D02*
X90354819Y-59857142D01*
X90354819Y-59857142D02*
X91354819Y-59285714D01*
X91354819Y-59285714D02*
X90354819Y-59285714D01*
X90402438Y-58285714D02*
X90354819Y-58380952D01*
X90354819Y-58380952D02*
X90354819Y-58523809D01*
X90354819Y-58523809D02*
X90402438Y-58666666D01*
X90402438Y-58666666D02*
X90497676Y-58761904D01*
X90497676Y-58761904D02*
X90592914Y-58809523D01*
X90592914Y-58809523D02*
X90783390Y-58857142D01*
X90783390Y-58857142D02*
X90926247Y-58857142D01*
X90926247Y-58857142D02*
X91116723Y-58809523D01*
X91116723Y-58809523D02*
X91211961Y-58761904D01*
X91211961Y-58761904D02*
X91307200Y-58666666D01*
X91307200Y-58666666D02*
X91354819Y-58523809D01*
X91354819Y-58523809D02*
X91354819Y-58428571D01*
X91354819Y-58428571D02*
X91307200Y-58285714D01*
X91307200Y-58285714D02*
X91259580Y-58238095D01*
X91259580Y-58238095D02*
X90926247Y-58238095D01*
X90926247Y-58238095D02*
X90926247Y-58428571D01*
X91450057Y-58047619D02*
X91450057Y-57285714D01*
X91259580Y-56476190D02*
X91307200Y-56523809D01*
X91307200Y-56523809D02*
X91354819Y-56666666D01*
X91354819Y-56666666D02*
X91354819Y-56761904D01*
X91354819Y-56761904D02*
X91307200Y-56904761D01*
X91307200Y-56904761D02*
X91211961Y-56999999D01*
X91211961Y-56999999D02*
X91116723Y-57047618D01*
X91116723Y-57047618D02*
X90926247Y-57095237D01*
X90926247Y-57095237D02*
X90783390Y-57095237D01*
X90783390Y-57095237D02*
X90592914Y-57047618D01*
X90592914Y-57047618D02*
X90497676Y-56999999D01*
X90497676Y-56999999D02*
X90402438Y-56904761D01*
X90402438Y-56904761D02*
X90354819Y-56761904D01*
X90354819Y-56761904D02*
X90354819Y-56666666D01*
X90354819Y-56666666D02*
X90402438Y-56523809D01*
X90402438Y-56523809D02*
X90450057Y-56476190D01*
X90354819Y-55857142D02*
X90354819Y-55666666D01*
X90354819Y-55666666D02*
X90402438Y-55571428D01*
X90402438Y-55571428D02*
X90497676Y-55476190D01*
X90497676Y-55476190D02*
X90688152Y-55428571D01*
X90688152Y-55428571D02*
X91021485Y-55428571D01*
X91021485Y-55428571D02*
X91211961Y-55476190D01*
X91211961Y-55476190D02*
X91307200Y-55571428D01*
X91307200Y-55571428D02*
X91354819Y-55666666D01*
X91354819Y-55666666D02*
X91354819Y-55857142D01*
X91354819Y-55857142D02*
X91307200Y-55952380D01*
X91307200Y-55952380D02*
X91211961Y-56047618D01*
X91211961Y-56047618D02*
X91021485Y-56095237D01*
X91021485Y-56095237D02*
X90688152Y-56095237D01*
X90688152Y-56095237D02*
X90497676Y-56047618D01*
X90497676Y-56047618D02*
X90402438Y-55952380D01*
X90402438Y-55952380D02*
X90354819Y-55857142D01*
X91069104Y-55047618D02*
X91069104Y-54571428D01*
X91354819Y-55142856D02*
X90354819Y-54809523D01*
X90354819Y-54809523D02*
X91354819Y-54476190D01*
X91354819Y-53571428D02*
X90878628Y-53904761D01*
X91354819Y-54142856D02*
X90354819Y-54142856D01*
X90354819Y-54142856D02*
X90354819Y-53761904D01*
X90354819Y-53761904D02*
X90402438Y-53666666D01*
X90402438Y-53666666D02*
X90450057Y-53619047D01*
X90450057Y-53619047D02*
X90545295Y-53571428D01*
X90545295Y-53571428D02*
X90688152Y-53571428D01*
X90688152Y-53571428D02*
X90783390Y-53619047D01*
X90783390Y-53619047D02*
X90831009Y-53666666D01*
X90831009Y-53666666D02*
X90878628Y-53761904D01*
X90878628Y-53761904D02*
X90878628Y-54142856D01*
X91307200Y-53190475D02*
X91354819Y-53047618D01*
X91354819Y-53047618D02*
X91354819Y-52809523D01*
X91354819Y-52809523D02*
X91307200Y-52714285D01*
X91307200Y-52714285D02*
X91259580Y-52666666D01*
X91259580Y-52666666D02*
X91164342Y-52619047D01*
X91164342Y-52619047D02*
X91069104Y-52619047D01*
X91069104Y-52619047D02*
X90973866Y-52666666D01*
X90973866Y-52666666D02*
X90926247Y-52714285D01*
X90926247Y-52714285D02*
X90878628Y-52809523D01*
X90878628Y-52809523D02*
X90831009Y-52999999D01*
X90831009Y-52999999D02*
X90783390Y-53095237D01*
X90783390Y-53095237D02*
X90735771Y-53142856D01*
X90735771Y-53142856D02*
X90640533Y-53190475D01*
X90640533Y-53190475D02*
X90545295Y-53190475D01*
X90545295Y-53190475D02*
X90450057Y-53142856D01*
X90450057Y-53142856D02*
X90402438Y-53095237D01*
X90402438Y-53095237D02*
X90354819Y-52999999D01*
X90354819Y-52999999D02*
X90354819Y-52761904D01*
X90354819Y-52761904D02*
X90402438Y-52619047D01*
X90831009Y-52190475D02*
X90831009Y-51857142D01*
X91354819Y-51714285D02*
X91354819Y-52190475D01*
X91354819Y-52190475D02*
X90354819Y-52190475D01*
X90354819Y-52190475D02*
X90354819Y-51714285D01*
X91354819Y-50761904D02*
X91354819Y-51333332D01*
X91354819Y-51047618D02*
X90354819Y-51047618D01*
X90354819Y-51047618D02*
X90497676Y-51142856D01*
X90497676Y-51142856D02*
X90592914Y-51238094D01*
X90592914Y-51238094D02*
X90640533Y-51333332D01*
X76714819Y-58123333D02*
X76238628Y-58456666D01*
X76714819Y-58694761D02*
X75714819Y-58694761D01*
X75714819Y-58694761D02*
X75714819Y-58313809D01*
X75714819Y-58313809D02*
X75762438Y-58218571D01*
X75762438Y-58218571D02*
X75810057Y-58170952D01*
X75810057Y-58170952D02*
X75905295Y-58123333D01*
X75905295Y-58123333D02*
X76048152Y-58123333D01*
X76048152Y-58123333D02*
X76143390Y-58170952D01*
X76143390Y-58170952D02*
X76191009Y-58218571D01*
X76191009Y-58218571D02*
X76238628Y-58313809D01*
X76238628Y-58313809D02*
X76238628Y-58694761D01*
X76191009Y-57694761D02*
X76191009Y-57361428D01*
X76714819Y-57218571D02*
X76714819Y-57694761D01*
X76714819Y-57694761D02*
X75714819Y-57694761D01*
X75714819Y-57694761D02*
X75714819Y-57218571D01*
X76191009Y-56456666D02*
X76191009Y-56789999D01*
X76714819Y-56789999D02*
X75714819Y-56789999D01*
X75714819Y-56789999D02*
X75714819Y-56313809D01*
X75714819Y-55789999D02*
X75952914Y-55789999D01*
X75857676Y-56028094D02*
X75952914Y-55789999D01*
X75952914Y-55789999D02*
X75857676Y-55551904D01*
X76143390Y-55932856D02*
X75952914Y-55789999D01*
X75952914Y-55789999D02*
X76143390Y-55647142D01*
X75714819Y-55028094D02*
X75952914Y-55028094D01*
X75857676Y-55266189D02*
X75952914Y-55028094D01*
X75952914Y-55028094D02*
X75857676Y-54789999D01*
X76143390Y-55170951D02*
X75952914Y-55028094D01*
X75952914Y-55028094D02*
X76143390Y-54885237D01*
X97704819Y-83595237D02*
X97704819Y-83023809D01*
X98704819Y-83309523D02*
X97704819Y-83309523D01*
X97704819Y-82690475D02*
X98514342Y-82690475D01*
X98514342Y-82690475D02*
X98609580Y-82642856D01*
X98609580Y-82642856D02*
X98657200Y-82595237D01*
X98657200Y-82595237D02*
X98704819Y-82499999D01*
X98704819Y-82499999D02*
X98704819Y-82309523D01*
X98704819Y-82309523D02*
X98657200Y-82214285D01*
X98657200Y-82214285D02*
X98609580Y-82166666D01*
X98609580Y-82166666D02*
X98514342Y-82119047D01*
X98514342Y-82119047D02*
X97704819Y-82119047D01*
X98704819Y-81642856D02*
X97704819Y-81642856D01*
X97704819Y-81642856D02*
X98704819Y-81071428D01*
X98704819Y-81071428D02*
X97704819Y-81071428D01*
X98704819Y-80595237D02*
X97704819Y-80595237D01*
X98704819Y-80119047D02*
X97704819Y-80119047D01*
X97704819Y-80119047D02*
X98704819Y-79547619D01*
X98704819Y-79547619D02*
X97704819Y-79547619D01*
X97752438Y-78547619D02*
X97704819Y-78642857D01*
X97704819Y-78642857D02*
X97704819Y-78785714D01*
X97704819Y-78785714D02*
X97752438Y-78928571D01*
X97752438Y-78928571D02*
X97847676Y-79023809D01*
X97847676Y-79023809D02*
X97942914Y-79071428D01*
X97942914Y-79071428D02*
X98133390Y-79119047D01*
X98133390Y-79119047D02*
X98276247Y-79119047D01*
X98276247Y-79119047D02*
X98466723Y-79071428D01*
X98466723Y-79071428D02*
X98561961Y-79023809D01*
X98561961Y-79023809D02*
X98657200Y-78928571D01*
X98657200Y-78928571D02*
X98704819Y-78785714D01*
X98704819Y-78785714D02*
X98704819Y-78690476D01*
X98704819Y-78690476D02*
X98657200Y-78547619D01*
X98657200Y-78547619D02*
X98609580Y-78500000D01*
X98609580Y-78500000D02*
X98276247Y-78500000D01*
X98276247Y-78500000D02*
X98276247Y-78690476D01*
X98800057Y-78309524D02*
X98800057Y-77547619D01*
X98181009Y-76976190D02*
X98181009Y-77309523D01*
X98704819Y-77309523D02*
X97704819Y-77309523D01*
X97704819Y-77309523D02*
X97704819Y-76833333D01*
X98704819Y-76452380D02*
X97704819Y-76452380D01*
X98704819Y-75976190D02*
X97704819Y-75976190D01*
X97704819Y-75976190D02*
X98704819Y-75404762D01*
X98704819Y-75404762D02*
X97704819Y-75404762D01*
X98181009Y-74928571D02*
X98181009Y-74595238D01*
X98704819Y-74452381D02*
X98704819Y-74928571D01*
X98704819Y-74928571D02*
X97704819Y-74928571D01*
X97704819Y-74928571D02*
X97704819Y-74452381D01*
X98704819Y-73500000D02*
X98704819Y-74071428D01*
X98704819Y-73785714D02*
X97704819Y-73785714D01*
X97704819Y-73785714D02*
X97847676Y-73880952D01*
X97847676Y-73880952D02*
X97942914Y-73976190D01*
X97942914Y-73976190D02*
X97990533Y-74071428D01*
X84314819Y-79623333D02*
X83838628Y-79956666D01*
X84314819Y-80194761D02*
X83314819Y-80194761D01*
X83314819Y-80194761D02*
X83314819Y-79813809D01*
X83314819Y-79813809D02*
X83362438Y-79718571D01*
X83362438Y-79718571D02*
X83410057Y-79670952D01*
X83410057Y-79670952D02*
X83505295Y-79623333D01*
X83505295Y-79623333D02*
X83648152Y-79623333D01*
X83648152Y-79623333D02*
X83743390Y-79670952D01*
X83743390Y-79670952D02*
X83791009Y-79718571D01*
X83791009Y-79718571D02*
X83838628Y-79813809D01*
X83838628Y-79813809D02*
X83838628Y-80194761D01*
X83791009Y-79194761D02*
X83791009Y-78861428D01*
X84314819Y-78718571D02*
X84314819Y-79194761D01*
X84314819Y-79194761D02*
X83314819Y-79194761D01*
X83314819Y-79194761D02*
X83314819Y-78718571D01*
X83791009Y-77956666D02*
X83791009Y-78289999D01*
X84314819Y-78289999D02*
X83314819Y-78289999D01*
X83314819Y-78289999D02*
X83314819Y-77813809D01*
X83314819Y-77289999D02*
X83552914Y-77289999D01*
X83457676Y-77528094D02*
X83552914Y-77289999D01*
X83552914Y-77289999D02*
X83457676Y-77051904D01*
X83743390Y-77432856D02*
X83552914Y-77289999D01*
X83552914Y-77289999D02*
X83743390Y-77147142D01*
X83314819Y-76528094D02*
X83552914Y-76528094D01*
X83457676Y-76766189D02*
X83552914Y-76528094D01*
X83552914Y-76528094D02*
X83457676Y-76289999D01*
X83743390Y-76670951D02*
X83552914Y-76528094D01*
X83552914Y-76528094D02*
X83743390Y-76385237D01*
X80817200Y-148257618D02*
X80864819Y-148114761D01*
X80864819Y-148114761D02*
X80864819Y-147876666D01*
X80864819Y-147876666D02*
X80817200Y-147781428D01*
X80817200Y-147781428D02*
X80769580Y-147733809D01*
X80769580Y-147733809D02*
X80674342Y-147686190D01*
X80674342Y-147686190D02*
X80579104Y-147686190D01*
X80579104Y-147686190D02*
X80483866Y-147733809D01*
X80483866Y-147733809D02*
X80436247Y-147781428D01*
X80436247Y-147781428D02*
X80388628Y-147876666D01*
X80388628Y-147876666D02*
X80341009Y-148067142D01*
X80341009Y-148067142D02*
X80293390Y-148162380D01*
X80293390Y-148162380D02*
X80245771Y-148209999D01*
X80245771Y-148209999D02*
X80150533Y-148257618D01*
X80150533Y-148257618D02*
X80055295Y-148257618D01*
X80055295Y-148257618D02*
X79960057Y-148209999D01*
X79960057Y-148209999D02*
X79912438Y-148162380D01*
X79912438Y-148162380D02*
X79864819Y-148067142D01*
X79864819Y-148067142D02*
X79864819Y-147829047D01*
X79864819Y-147829047D02*
X79912438Y-147686190D01*
X80769580Y-146686190D02*
X80817200Y-146733809D01*
X80817200Y-146733809D02*
X80864819Y-146876666D01*
X80864819Y-146876666D02*
X80864819Y-146971904D01*
X80864819Y-146971904D02*
X80817200Y-147114761D01*
X80817200Y-147114761D02*
X80721961Y-147209999D01*
X80721961Y-147209999D02*
X80626723Y-147257618D01*
X80626723Y-147257618D02*
X80436247Y-147305237D01*
X80436247Y-147305237D02*
X80293390Y-147305237D01*
X80293390Y-147305237D02*
X80102914Y-147257618D01*
X80102914Y-147257618D02*
X80007676Y-147209999D01*
X80007676Y-147209999D02*
X79912438Y-147114761D01*
X79912438Y-147114761D02*
X79864819Y-146971904D01*
X79864819Y-146971904D02*
X79864819Y-146876666D01*
X79864819Y-146876666D02*
X79912438Y-146733809D01*
X79912438Y-146733809D02*
X79960057Y-146686190D01*
X80579104Y-146305237D02*
X80579104Y-145829047D01*
X80864819Y-146400475D02*
X79864819Y-146067142D01*
X79864819Y-146067142D02*
X80864819Y-145733809D01*
X80864819Y-144924285D02*
X80864819Y-145400475D01*
X80864819Y-145400475D02*
X79864819Y-145400475D01*
X80341009Y-144590951D02*
X80341009Y-144257618D01*
X80864819Y-144114761D02*
X80864819Y-144590951D01*
X80864819Y-144590951D02*
X79864819Y-144590951D01*
X79864819Y-144590951D02*
X79864819Y-144114761D01*
X80864819Y-143162380D02*
X80864819Y-143733808D01*
X80864819Y-143448094D02*
X79864819Y-143448094D01*
X79864819Y-143448094D02*
X80007676Y-143543332D01*
X80007676Y-143543332D02*
X80102914Y-143638570D01*
X80102914Y-143638570D02*
X80150533Y-143733808D01*
X96781905Y-58494819D02*
X96781905Y-57494819D01*
X96781905Y-57494819D02*
X97020000Y-57494819D01*
X97020000Y-57494819D02*
X97162857Y-57542438D01*
X97162857Y-57542438D02*
X97258095Y-57637676D01*
X97258095Y-57637676D02*
X97305714Y-57732914D01*
X97305714Y-57732914D02*
X97353333Y-57923390D01*
X97353333Y-57923390D02*
X97353333Y-58066247D01*
X97353333Y-58066247D02*
X97305714Y-58256723D01*
X97305714Y-58256723D02*
X97258095Y-58351961D01*
X97258095Y-58351961D02*
X97162857Y-58447200D01*
X97162857Y-58447200D02*
X97020000Y-58494819D01*
X97020000Y-58494819D02*
X96781905Y-58494819D01*
X97686667Y-57494819D02*
X98305714Y-57494819D01*
X98305714Y-57494819D02*
X97972381Y-57875771D01*
X97972381Y-57875771D02*
X98115238Y-57875771D01*
X98115238Y-57875771D02*
X98210476Y-57923390D01*
X98210476Y-57923390D02*
X98258095Y-57971009D01*
X98258095Y-57971009D02*
X98305714Y-58066247D01*
X98305714Y-58066247D02*
X98305714Y-58304342D01*
X98305714Y-58304342D02*
X98258095Y-58399580D01*
X98258095Y-58399580D02*
X98210476Y-58447200D01*
X98210476Y-58447200D02*
X98115238Y-58494819D01*
X98115238Y-58494819D02*
X97829524Y-58494819D01*
X97829524Y-58494819D02*
X97734286Y-58447200D01*
X97734286Y-58447200D02*
X97686667Y-58399580D01*
X73636666Y-124534819D02*
X73636666Y-125249104D01*
X73636666Y-125249104D02*
X73589047Y-125391961D01*
X73589047Y-125391961D02*
X73493809Y-125487200D01*
X73493809Y-125487200D02*
X73350952Y-125534819D01*
X73350952Y-125534819D02*
X73255714Y-125534819D01*
X74017619Y-124534819D02*
X74636666Y-124534819D01*
X74636666Y-124534819D02*
X74303333Y-124915771D01*
X74303333Y-124915771D02*
X74446190Y-124915771D01*
X74446190Y-124915771D02*
X74541428Y-124963390D01*
X74541428Y-124963390D02*
X74589047Y-125011009D01*
X74589047Y-125011009D02*
X74636666Y-125106247D01*
X74636666Y-125106247D02*
X74636666Y-125344342D01*
X74636666Y-125344342D02*
X74589047Y-125439580D01*
X74589047Y-125439580D02*
X74541428Y-125487200D01*
X74541428Y-125487200D02*
X74446190Y-125534819D01*
X74446190Y-125534819D02*
X74160476Y-125534819D01*
X74160476Y-125534819D02*
X74065238Y-125487200D01*
X74065238Y-125487200D02*
X74017619Y-125439580D01*
X73636666Y-105034819D02*
X73636666Y-105749104D01*
X73636666Y-105749104D02*
X73589047Y-105891961D01*
X73589047Y-105891961D02*
X73493809Y-105987200D01*
X73493809Y-105987200D02*
X73350952Y-106034819D01*
X73350952Y-106034819D02*
X73255714Y-106034819D01*
X74541428Y-105368152D02*
X74541428Y-106034819D01*
X74303333Y-104987200D02*
X74065238Y-105701485D01*
X74065238Y-105701485D02*
X74684285Y-105701485D01*
X91636666Y-140034819D02*
X91636666Y-140749104D01*
X91636666Y-140749104D02*
X91589047Y-140891961D01*
X91589047Y-140891961D02*
X91493809Y-140987200D01*
X91493809Y-140987200D02*
X91350952Y-141034819D01*
X91350952Y-141034819D02*
X91255714Y-141034819D01*
X92589047Y-140034819D02*
X92112857Y-140034819D01*
X92112857Y-140034819D02*
X92065238Y-140511009D01*
X92065238Y-140511009D02*
X92112857Y-140463390D01*
X92112857Y-140463390D02*
X92208095Y-140415771D01*
X92208095Y-140415771D02*
X92446190Y-140415771D01*
X92446190Y-140415771D02*
X92541428Y-140463390D01*
X92541428Y-140463390D02*
X92589047Y-140511009D01*
X92589047Y-140511009D02*
X92636666Y-140606247D01*
X92636666Y-140606247D02*
X92636666Y-140844342D01*
X92636666Y-140844342D02*
X92589047Y-140939580D01*
X92589047Y-140939580D02*
X92541428Y-140987200D01*
X92541428Y-140987200D02*
X92446190Y-141034819D01*
X92446190Y-141034819D02*
X92208095Y-141034819D01*
X92208095Y-141034819D02*
X92112857Y-140987200D01*
X92112857Y-140987200D02*
X92065238Y-140939580D01*
X80636666Y-139934819D02*
X80636666Y-140649104D01*
X80636666Y-140649104D02*
X80589047Y-140791961D01*
X80589047Y-140791961D02*
X80493809Y-140887200D01*
X80493809Y-140887200D02*
X80350952Y-140934819D01*
X80350952Y-140934819D02*
X80255714Y-140934819D01*
X81541428Y-139934819D02*
X81350952Y-139934819D01*
X81350952Y-139934819D02*
X81255714Y-139982438D01*
X81255714Y-139982438D02*
X81208095Y-140030057D01*
X81208095Y-140030057D02*
X81112857Y-140172914D01*
X81112857Y-140172914D02*
X81065238Y-140363390D01*
X81065238Y-140363390D02*
X81065238Y-140744342D01*
X81065238Y-140744342D02*
X81112857Y-140839580D01*
X81112857Y-140839580D02*
X81160476Y-140887200D01*
X81160476Y-140887200D02*
X81255714Y-140934819D01*
X81255714Y-140934819D02*
X81446190Y-140934819D01*
X81446190Y-140934819D02*
X81541428Y-140887200D01*
X81541428Y-140887200D02*
X81589047Y-140839580D01*
X81589047Y-140839580D02*
X81636666Y-140744342D01*
X81636666Y-140744342D02*
X81636666Y-140506247D01*
X81636666Y-140506247D02*
X81589047Y-140411009D01*
X81589047Y-140411009D02*
X81541428Y-140363390D01*
X81541428Y-140363390D02*
X81446190Y-140315771D01*
X81446190Y-140315771D02*
X81255714Y-140315771D01*
X81255714Y-140315771D02*
X81160476Y-140363390D01*
X81160476Y-140363390D02*
X81112857Y-140411009D01*
X81112857Y-140411009D02*
X81065238Y-140506247D01*
X94547142Y-71324819D02*
X94213809Y-70848628D01*
X93975714Y-71324819D02*
X93975714Y-70324819D01*
X93975714Y-70324819D02*
X94356666Y-70324819D01*
X94356666Y-70324819D02*
X94451904Y-70372438D01*
X94451904Y-70372438D02*
X94499523Y-70420057D01*
X94499523Y-70420057D02*
X94547142Y-70515295D01*
X94547142Y-70515295D02*
X94547142Y-70658152D01*
X94547142Y-70658152D02*
X94499523Y-70753390D01*
X94499523Y-70753390D02*
X94451904Y-70801009D01*
X94451904Y-70801009D02*
X94356666Y-70848628D01*
X94356666Y-70848628D02*
X93975714Y-70848628D01*
X95499523Y-71324819D02*
X94928095Y-71324819D01*
X95213809Y-71324819D02*
X95213809Y-70324819D01*
X95213809Y-70324819D02*
X95118571Y-70467676D01*
X95118571Y-70467676D02*
X95023333Y-70562914D01*
X95023333Y-70562914D02*
X94928095Y-70610533D01*
X96070952Y-70753390D02*
X95975714Y-70705771D01*
X95975714Y-70705771D02*
X95928095Y-70658152D01*
X95928095Y-70658152D02*
X95880476Y-70562914D01*
X95880476Y-70562914D02*
X95880476Y-70515295D01*
X95880476Y-70515295D02*
X95928095Y-70420057D01*
X95928095Y-70420057D02*
X95975714Y-70372438D01*
X95975714Y-70372438D02*
X96070952Y-70324819D01*
X96070952Y-70324819D02*
X96261428Y-70324819D01*
X96261428Y-70324819D02*
X96356666Y-70372438D01*
X96356666Y-70372438D02*
X96404285Y-70420057D01*
X96404285Y-70420057D02*
X96451904Y-70515295D01*
X96451904Y-70515295D02*
X96451904Y-70562914D01*
X96451904Y-70562914D02*
X96404285Y-70658152D01*
X96404285Y-70658152D02*
X96356666Y-70705771D01*
X96356666Y-70705771D02*
X96261428Y-70753390D01*
X96261428Y-70753390D02*
X96070952Y-70753390D01*
X96070952Y-70753390D02*
X95975714Y-70801009D01*
X95975714Y-70801009D02*
X95928095Y-70848628D01*
X95928095Y-70848628D02*
X95880476Y-70943866D01*
X95880476Y-70943866D02*
X95880476Y-71134342D01*
X95880476Y-71134342D02*
X95928095Y-71229580D01*
X95928095Y-71229580D02*
X95975714Y-71277200D01*
X95975714Y-71277200D02*
X96070952Y-71324819D01*
X96070952Y-71324819D02*
X96261428Y-71324819D01*
X96261428Y-71324819D02*
X96356666Y-71277200D01*
X96356666Y-71277200D02*
X96404285Y-71229580D01*
X96404285Y-71229580D02*
X96451904Y-71134342D01*
X96451904Y-71134342D02*
X96451904Y-70943866D01*
X96451904Y-70943866D02*
X96404285Y-70848628D01*
X96404285Y-70848628D02*
X96356666Y-70801009D01*
X96356666Y-70801009D02*
X96261428Y-70753390D01*
X94499523Y-68954819D02*
X93928095Y-68954819D01*
X94213809Y-68954819D02*
X94213809Y-67954819D01*
X94213809Y-67954819D02*
X94118571Y-68097676D01*
X94118571Y-68097676D02*
X94023333Y-68192914D01*
X94023333Y-68192914D02*
X93928095Y-68240533D01*
X95118571Y-67954819D02*
X95213809Y-67954819D01*
X95213809Y-67954819D02*
X95309047Y-68002438D01*
X95309047Y-68002438D02*
X95356666Y-68050057D01*
X95356666Y-68050057D02*
X95404285Y-68145295D01*
X95404285Y-68145295D02*
X95451904Y-68335771D01*
X95451904Y-68335771D02*
X95451904Y-68573866D01*
X95451904Y-68573866D02*
X95404285Y-68764342D01*
X95404285Y-68764342D02*
X95356666Y-68859580D01*
X95356666Y-68859580D02*
X95309047Y-68907200D01*
X95309047Y-68907200D02*
X95213809Y-68954819D01*
X95213809Y-68954819D02*
X95118571Y-68954819D01*
X95118571Y-68954819D02*
X95023333Y-68907200D01*
X95023333Y-68907200D02*
X94975714Y-68859580D01*
X94975714Y-68859580D02*
X94928095Y-68764342D01*
X94928095Y-68764342D02*
X94880476Y-68573866D01*
X94880476Y-68573866D02*
X94880476Y-68335771D01*
X94880476Y-68335771D02*
X94928095Y-68145295D01*
X94928095Y-68145295D02*
X94975714Y-68050057D01*
X94975714Y-68050057D02*
X95023333Y-68002438D01*
X95023333Y-68002438D02*
X95118571Y-67954819D01*
X95880476Y-68954819D02*
X95880476Y-67954819D01*
X96451904Y-68954819D02*
X96023333Y-68383390D01*
X96451904Y-67954819D02*
X95880476Y-68526247D01*
X106666666Y-59624819D02*
X106666666Y-60339104D01*
X106666666Y-60339104D02*
X106619047Y-60481961D01*
X106619047Y-60481961D02*
X106523809Y-60577200D01*
X106523809Y-60577200D02*
X106380952Y-60624819D01*
X106380952Y-60624819D02*
X106285714Y-60624819D01*
X107666666Y-60624819D02*
X107095238Y-60624819D01*
X107380952Y-60624819D02*
X107380952Y-59624819D01*
X107380952Y-59624819D02*
X107285714Y-59767676D01*
X107285714Y-59767676D02*
X107190476Y-59862914D01*
X107190476Y-59862914D02*
X107095238Y-59910533D01*
D14*
%TO.C,REF\u002A\u002A*%
X75107800Y-171306800D02*
X75107800Y-168706800D01*
X72507800Y-171306800D02*
X72507800Y-169976800D01*
X72507800Y-166106800D02*
X133587800Y-166106800D01*
X73837800Y-171306800D02*
X72507800Y-171306800D01*
X75107800Y-171306800D02*
X133587800Y-171306800D01*
X133587800Y-171306800D02*
X133587800Y-166106800D01*
X75107800Y-168706800D02*
X72507800Y-168706800D01*
X72507800Y-168706800D02*
X72507800Y-166106800D01*
X72507800Y-163626800D02*
X72507800Y-161026800D01*
X75107800Y-163626800D02*
X72507800Y-163626800D01*
X133587800Y-166226800D02*
X133587800Y-161026800D01*
X75107800Y-166226800D02*
X133587800Y-166226800D01*
X73837800Y-166226800D02*
X72507800Y-166226800D01*
X72507800Y-161026800D02*
X133587800Y-161026800D01*
X72507800Y-166226800D02*
X72507800Y-164896800D01*
X75107800Y-166226800D02*
X75107800Y-163626800D01*
X72507800Y-158546800D02*
X72507800Y-155946800D01*
X75107800Y-158546800D02*
X72507800Y-158546800D01*
X133587800Y-161146800D02*
X133587800Y-155946800D01*
X75107800Y-161146800D02*
X133587800Y-161146800D01*
X73837800Y-161146800D02*
X72507800Y-161146800D01*
X72507800Y-155946800D02*
X133587800Y-155946800D01*
X72507800Y-161146800D02*
X72507800Y-159816800D01*
X75107800Y-161146800D02*
X75107800Y-158546800D01*
D10*
%TO.C,mouse-bite-2mm-slot*%
X123627200Y-155496200D02*
G75*
G03*
X123627200Y-153496200I0J1000000D01*
G01*
X127627200Y-153496200D02*
G75*
G03*
X127627200Y-155496200I0J-1000000D01*
G01*
X83027200Y-155496200D02*
G75*
G03*
X83027200Y-153496200I0J1000000D01*
G01*
X87027200Y-153496200D02*
G75*
G03*
X87027200Y-155496200I0J-1000000D01*
G01*
X72000000Y-164990000D02*
G75*
G03*
X70000000Y-164990000I-1000000J0D01*
G01*
X70000000Y-160990000D02*
G75*
G03*
X72000000Y-160990000I1000000J0D01*
G01*
D14*
%TO.C,FM_AMOUNT1*%
X91790000Y-92880000D02*
X92320000Y-92880000D01*
X95870000Y-101410000D02*
X95870000Y-104470000D01*
X95880000Y-92880000D02*
X95880000Y-97600000D01*
X86130000Y-101410000D02*
X86130000Y-104470000D01*
X86130000Y-104470000D02*
X95870000Y-104470000D01*
X94690000Y-92880000D02*
X95870000Y-92880000D01*
X89340000Y-92880000D02*
X90170000Y-92880000D01*
X86130000Y-92880000D02*
X87620000Y-92880000D01*
X86130000Y-92880000D02*
X86130000Y-97600000D01*
%TO.C,PULSE_WIDTH1*%
X90210000Y-128620000D02*
X89680000Y-128620000D01*
X86130000Y-120090000D02*
X86130000Y-117030000D01*
X86120000Y-128620000D02*
X86120000Y-123900000D01*
X95870000Y-120090000D02*
X95870000Y-117030000D01*
X95870000Y-117030000D02*
X86130000Y-117030000D01*
X87310000Y-128620000D02*
X86130000Y-128620000D01*
X92660000Y-128620000D02*
X91830000Y-128620000D01*
X95870000Y-128620000D02*
X94380000Y-128620000D01*
X95870000Y-128620000D02*
X95870000Y-123900000D01*
%TO.C,TUNING_COARSE1*%
X82610000Y-62620000D02*
X82080000Y-62620000D01*
X78530000Y-54090000D02*
X78530000Y-51030000D01*
X78520000Y-62620000D02*
X78520000Y-57900000D01*
X88270000Y-54090000D02*
X88270000Y-51030000D01*
X88270000Y-51030000D02*
X78530000Y-51030000D01*
X79710000Y-62620000D02*
X78530000Y-62620000D01*
X85060000Y-62620000D02*
X84230000Y-62620000D01*
X88270000Y-62620000D02*
X86780000Y-62620000D01*
X88270000Y-62620000D02*
X88270000Y-57900000D01*
%TO.C,TUNING_FINE1*%
X90210000Y-84120000D02*
X89680000Y-84120000D01*
X86130000Y-75590000D02*
X86130000Y-72530000D01*
X86120000Y-84120000D02*
X86120000Y-79400000D01*
X95870000Y-75590000D02*
X95870000Y-72530000D01*
X95870000Y-72530000D02*
X86130000Y-72530000D01*
X87310000Y-84120000D02*
X86130000Y-84120000D01*
X92660000Y-84120000D02*
X91830000Y-84120000D01*
X95870000Y-84120000D02*
X94380000Y-84120000D01*
X95870000Y-84120000D02*
X95870000Y-79400000D01*
D10*
%TO.C,mouse-bite-2mm-slot*%
X72000000Y-66000000D02*
G75*
G03*
X70000000Y-66000000I-1000000J0D01*
G01*
X70000000Y-62000000D02*
G75*
G03*
X72000000Y-62000000I1000000J0D01*
G01*
X104000000Y-56000000D02*
G75*
G03*
X102000000Y-56000000I-1000000J0D01*
G01*
X102000000Y-52000000D02*
G75*
G03*
X104000000Y-52000000I1000000J0D01*
G01*
X102000000Y-131000000D02*
G75*
G03*
X104000000Y-131000000I1000000J0D01*
G01*
X104000000Y-135000000D02*
G75*
G03*
X102000000Y-135000000I-1000000J0D01*
G01*
X72000000Y-145000000D02*
G75*
G03*
X70000000Y-145000000I-1000000J0D01*
G01*
X70000000Y-141000000D02*
G75*
G03*
X72000000Y-141000000I1000000J0D01*
G01*
D14*
%TO.C,SCALE1*%
X79280000Y-142235000D02*
X79280000Y-149185000D01*
X74540000Y-142235000D02*
X74540000Y-149185000D01*
X79280000Y-142235000D02*
X77494000Y-142235000D01*
X76504000Y-142235000D02*
X74540000Y-142235000D01*
X79280000Y-149185000D02*
X77494000Y-149185000D01*
X76504000Y-149185000D02*
X74540000Y-149185000D01*
%TO.C,D3*%
X95960000Y-62080000D02*
X95960000Y-62236000D01*
X95960000Y-59764000D02*
X95960000Y-59920000D01*
X99192334Y-59921392D02*
G75*
G03*
X95960001Y-59764485I-1672334J-1078608D01*
G01*
X95960001Y-62235515D02*
G75*
G03*
X99192334Y-62078608I1559999J1235515D01*
G01*
X98561129Y-59920164D02*
G75*
G03*
X96479040Y-59920001I-1041129J-1079836D01*
G01*
X96479040Y-62079999D02*
G75*
G03*
X98561129Y-62079836I1040960J1079999D01*
G01*
%TO.C,J3*%
X76940000Y-123000000D02*
X77800000Y-123000000D01*
X76940000Y-123000000D02*
X76940000Y-123800000D01*
X79800000Y-130480000D02*
G75*
G03*
X79800000Y-130480000I-1800000J0D01*
G01*
X77650000Y-125980000D02*
X73500000Y-125980000D01*
X82500000Y-125980000D02*
X78350000Y-125980000D01*
X77500000Y-136480000D02*
X73500000Y-136480000D01*
X82500000Y-136480000D02*
X78500000Y-136480000D01*
X82500000Y-125980000D02*
X82500000Y-136480000D01*
X73500000Y-125980000D02*
X73500000Y-136480000D01*
%TO.C,J4*%
X73500000Y-106480000D02*
X73500000Y-116980000D01*
X82500000Y-106480000D02*
X82500000Y-116980000D01*
X82500000Y-116980000D02*
X78500000Y-116980000D01*
X77500000Y-116980000D02*
X73500000Y-116980000D01*
X82500000Y-106480000D02*
X78350000Y-106480000D01*
X77650000Y-106480000D02*
X73500000Y-106480000D01*
X79800000Y-110980000D02*
G75*
G03*
X79800000Y-110980000I-1800000J0D01*
G01*
X76940000Y-103500000D02*
X76940000Y-104300000D01*
X76940000Y-103500000D02*
X77800000Y-103500000D01*
%TO.C,J5*%
X94940000Y-138500000D02*
X95800000Y-138500000D01*
X94940000Y-138500000D02*
X94940000Y-139300000D01*
X97800000Y-145980000D02*
G75*
G03*
X97800000Y-145980000I-1800000J0D01*
G01*
X95650000Y-141480000D02*
X91500000Y-141480000D01*
X100500000Y-141480000D02*
X96350000Y-141480000D01*
X95500000Y-151980000D02*
X91500000Y-151980000D01*
X100500000Y-151980000D02*
X96500000Y-151980000D01*
X100500000Y-141480000D02*
X100500000Y-151980000D01*
X91500000Y-141480000D02*
X91500000Y-151980000D01*
%TO.C,J6*%
X80500000Y-141380000D02*
X80500000Y-151880000D01*
X89500000Y-141380000D02*
X89500000Y-151880000D01*
X89500000Y-151880000D02*
X85500000Y-151880000D01*
X84500000Y-151880000D02*
X80500000Y-151880000D01*
X89500000Y-141380000D02*
X85350000Y-141380000D01*
X84650000Y-141380000D02*
X80500000Y-141380000D01*
X86800000Y-145880000D02*
G75*
G03*
X86800000Y-145880000I-1800000J0D01*
G01*
X83940000Y-138400000D02*
X83940000Y-139200000D01*
X83940000Y-138400000D02*
X84800000Y-138400000D01*
%TO.C,R18*%
X98460000Y-69540000D02*
X98460000Y-69870000D01*
X98460000Y-69870000D02*
X91920000Y-69870000D01*
X91920000Y-69870000D02*
X91920000Y-69540000D01*
X98460000Y-67460000D02*
X98460000Y-67130000D01*
X98460000Y-67130000D02*
X91920000Y-67130000D01*
X91920000Y-67130000D02*
X91920000Y-67460000D01*
%TO.C,J1*%
X105670000Y-101930000D02*
X108330000Y-101930000D01*
X105670000Y-63770000D02*
X105670000Y-101930000D01*
X108330000Y-63770000D02*
X108330000Y-101930000D01*
X105670000Y-63770000D02*
X108330000Y-63770000D01*
X105670000Y-62500000D02*
X105670000Y-61170000D01*
X105670000Y-61170000D02*
X107000000Y-61170000D01*
%TD*%
M02*
