M48
; DRILL file {KiCad 7.0.9} date Fri Dec  8 20:01:00 2023
; FORMAT={-:-/ absolute / inch / decimal}
; #@! TF.CreationDate,2023-12-08T20:01:00+01:00
; #@! TF.GenerationSoftware,Kicad,Pcbnew,7.0.9
; #@! TF.FileFunction,Plated,1,2,PTH
FMAT,2
INCH
; #@! TA.AperFunction,Plated,PTH,ViaDrill
T1C0.0157
; #@! TA.AperFunction,Plated,PTH,ComponentDrill
T2C0.0295
; #@! TA.AperFunction,Plated,PTH,ComponentDrill
T3C0.0315
; #@! TA.AperFunction,Plated,PTH,ComponentDrill
T4C0.0354
; #@! TA.AperFunction,Plated,PTH,ComponentDrill
T5C0.0374
; #@! TA.AperFunction,Plated,PTH,ComponentDrill
T6C0.0394
; #@! TA.AperFunction,Plated,PTH,ComponentDrill
T7C0.0433
; #@! TA.AperFunction,Plated,PTH,ComponentDrill
T8C0.0480
; #@! TA.AperFunction,Plated,PTH,ComponentDrill
T9C0.0559
; #@! TA.AperFunction,Plated,PTH,ComponentDrill
T10C0.0563
; #@! TA.AperFunction,Plated,PTH,ComponentDrill
T11C0.1260
%
G90
G05
T1
X3.0709Y-2.6969
X3.0709Y-2.7362
X3.0709Y-2.7756
X3.0709Y-2.815
X3.0709Y-2.8543
X3.0709Y-2.8937
X3.0709Y-2.9331
X3.0709Y-2.9724
X3.0709Y-3.0118
X3.0709Y-3.3071
X3.0709Y-3.3465
X3.0709Y-3.3858
X3.1102Y-2.6969
X3.1102Y-2.7362
X3.1102Y-2.7756
X3.1102Y-2.815
X3.1102Y-2.8543
X3.1102Y-2.8937
X3.1102Y-2.9331
X3.1102Y-2.9724
X3.1102Y-3.0118
X3.1102Y-3.3071
X3.1102Y-3.3465
X3.1102Y-3.3858
X3.1102Y-3.4252
X3.1496Y-3.3465
X3.1496Y-3.3858
X3.1496Y-3.4252
X3.1496Y-3.4646
X3.189Y-3.3858
X3.189Y-3.4252
X3.189Y-3.4646
X3.189Y-3.5039
X3.2283Y-3.4252
X3.2283Y-3.4646
X3.2283Y-3.5039
X3.2283Y-3.5433
X3.2677Y-3.4646
X3.2677Y-3.5039
X3.2677Y-3.5433
X3.2677Y-3.5827
X3.3071Y-3.5039
X3.3071Y-3.5433
X3.3071Y-3.5827
X3.3268Y-2.6969
X3.3268Y-2.7362
X3.3268Y-5.1969
X3.3661Y-2.6969
X3.3661Y-2.7362
X3.3661Y-4.1732
X3.3661Y-4.2126
X3.3661Y-4.252
X3.3661Y-4.2913
X3.3661Y-4.3307
X3.3661Y-4.3701
X3.3661Y-4.4094
X3.3661Y-4.4488
X3.3661Y-4.4882
X3.3661Y-4.5276
X3.3661Y-5.1969
X3.3661Y-5.2362
X3.4055Y-2.6969
X3.4055Y-2.7362
X3.4055Y-4.1732
X3.4055Y-4.2126
X3.4055Y-4.252
X3.4055Y-4.2913
X3.4055Y-4.3307
X3.4055Y-4.3701
X3.4055Y-4.4094
X3.4055Y-4.4488
X3.4055Y-4.4882
X3.4055Y-4.5276
X3.4055Y-5.1969
X3.4055Y-5.2362
X3.4055Y-5.2756
X3.4449Y-2.6969
X3.4449Y-2.7362
X3.4449Y-4.1732
X3.4449Y-4.2126
X3.4449Y-4.252
X3.4449Y-4.2913
X3.4449Y-4.3307
X3.4449Y-4.3701
X3.4449Y-4.4094
X3.4449Y-4.4488
X3.4449Y-4.4882
X3.4449Y-4.5276
X3.4449Y-5.1969
X3.4449Y-5.2362
X3.4449Y-5.2756
X3.4449Y-5.315
X3.4646Y-2.3819
X3.4646Y-2.4213
X3.4646Y-2.4606
X3.4646Y-2.5
X3.4843Y-2.6969
X3.4843Y-2.7362
X3.4843Y-4.1732
X3.4843Y-4.2126
X3.4843Y-4.252
X3.4843Y-4.2913
X3.4843Y-4.3307
X3.4843Y-4.3701
X3.4843Y-4.4094
X3.4843Y-4.4488
X3.4843Y-4.4882
X3.4843Y-4.5276
X3.4843Y-5.1969
X3.4843Y-5.2362
X3.4843Y-5.2756
X3.4843Y-5.315
X3.4843Y-5.3543
X3.5039Y-2.3819
X3.5039Y-2.4213
X3.5039Y-2.4606
X3.5039Y-2.5
X3.5236Y-2.6969
X3.5236Y-2.7362
X3.5236Y-4.1732
X3.5236Y-4.2126
X3.5236Y-4.252
X3.5236Y-4.2913
X3.5236Y-4.3307
X3.5236Y-4.3701
X3.5236Y-4.4094
X3.5236Y-4.4488
X3.5236Y-4.4882
X3.5236Y-4.5276
X3.5236Y-5.1969
X3.5236Y-5.2362
X3.5236Y-5.2756
X3.5236Y-5.315
X3.5236Y-5.3543
X3.5236Y-5.3937
X3.563Y-4.1732
X3.563Y-4.2126
X3.563Y-5.1969
X3.563Y-5.2362
X3.563Y-5.2756
X3.563Y-5.315
X3.563Y-5.3543
X3.563Y-5.3937
X3.6024Y-4.1732
X3.6024Y-4.2126
X3.6024Y-5.1969
X3.6024Y-5.2362
X3.6024Y-5.2756
X3.6024Y-5.315
X3.6024Y-5.3543
X3.6024Y-5.3937
X3.6417Y-2.2441
X3.6417Y-2.2835
X3.6417Y-2.3228
X3.6417Y-2.3622
X3.6417Y-2.4016
X3.6417Y-2.4409
X3.6417Y-2.4803
X3.6417Y-2.5197
X3.6417Y-2.5591
X3.6417Y-4.1732
X3.6417Y-4.2126
X3.6417Y-5.1969
X3.6417Y-5.2362
X3.6417Y-5.2756
X3.6417Y-5.315
X3.6417Y-5.3543
X3.6417Y-5.3937
X3.6811Y-2.2441
X3.6811Y-2.2835
X3.6811Y-2.3228
X3.6811Y-2.3622
X3.6811Y-2.4016
X3.6811Y-2.4409
X3.6811Y-2.4803
X3.6811Y-2.5197
X3.6811Y-2.5591
X3.6811Y-4.1732
X3.6811Y-4.2126
X3.6811Y-5.1969
X3.6811Y-5.2362
X3.6811Y-5.2756
X3.6811Y-5.315
X3.6811Y-5.3543
X3.6811Y-5.3937
X3.7205Y-2.2441
X3.7205Y-2.2835
X3.7205Y-2.3228
X3.7205Y-2.3622
X3.7205Y-2.4016
X3.7205Y-2.4409
X3.7205Y-2.4803
X3.7205Y-2.5197
X3.7205Y-2.5591
X3.7205Y-4.1732
X3.7205Y-4.2126
X3.7205Y-5.1969
X3.7205Y-5.2362
X3.7205Y-5.2756
X3.7205Y-5.315
X3.7205Y-5.3543
X3.7205Y-5.3937
X3.7598Y-2.2441
X3.7598Y-2.2835
X3.7598Y-2.5591
X3.7598Y-4.1732
X3.7598Y-4.2126
X3.7598Y-5.1969
X3.7598Y-5.2362
X3.7598Y-5.2756
X3.7598Y-5.315
X3.7598Y-5.3543
X3.7598Y-5.3937
X3.7992Y-4.1732
X3.7992Y-4.2126
X3.7992Y-5.1969
X3.7992Y-5.2362
X3.7992Y-5.2756
X3.7992Y-5.315
X3.7992Y-5.3543
X3.7992Y-5.3937
X3.8386Y-4.1732
X3.8386Y-4.2126
X3.8386Y-5.1969
X3.8386Y-5.2362
X3.8386Y-5.2756
X3.8386Y-5.315
X3.8386Y-5.3543
X3.8386Y-5.3937
X4.311Y-3.248
X4.311Y-3.2874
X4.311Y-3.3268
X4.311Y-3.3661
X4.311Y-3.4055
X4.3504Y-3.248
X4.3504Y-3.2874
X4.3504Y-3.3268
X4.3504Y-3.3661
X4.3898Y-3.248
X4.3898Y-3.2874
X4.3898Y-3.3268
X4.4291Y-3.248
X4.4291Y-3.2874
X4.4488Y-3.5827
X4.4488Y-3.622
X4.4488Y-3.6614
X4.4488Y-3.7008
X4.4488Y-3.7402
X4.4488Y-3.7795
X4.4488Y-3.8189
X4.4488Y-3.8583
X4.4685Y-3.248
X4.4882Y-3.8583
X4.7047Y-4.4291
X4.7047Y-4.4685
X4.7441Y-4.4291
X4.7441Y-4.4685
X4.7441Y-4.5079
X4.7835Y-4.4291
X4.7835Y-4.4685
X4.7835Y-4.5079
X4.7835Y-4.5472
X4.8228Y-4.4291
X4.8228Y-4.4685
X4.8228Y-4.5079
X4.8228Y-4.5472
X4.8228Y-4.5866
X4.9409Y-3.9567
X4.9409Y-3.9961
X4.9409Y-4.0354
X4.9409Y-4.0748
X4.9409Y-4.1142
X4.9409Y-4.1535
X4.9409Y-4.1929
X4.9409Y-4.2323
X4.9803Y-3.9567
X4.9803Y-3.9961
X4.9803Y-4.0354
X4.9803Y-4.0748
X4.9803Y-4.1142
X4.9803Y-4.1535
X4.9803Y-4.1929
X4.9803Y-4.2323
X5.0197Y-3.9567
X5.0197Y-3.9961
X5.0197Y-4.0354
X5.0197Y-4.0748
X5.0197Y-4.1142
X5.0197Y-4.1535
X5.0197Y-4.1929
X5.0197Y-4.2323
X5.0591Y-3.9567
X5.0591Y-3.9961
X5.0591Y-4.0354
X5.0591Y-4.0748
X5.0591Y-4.1142
X5.0591Y-4.1535
X5.0591Y-4.1929
X5.0591Y-4.2323
X5.0984Y-3.9567
X5.0984Y-3.9961
X5.0984Y-4.0354
X5.0984Y-4.0748
X5.0984Y-4.1142
X5.0984Y-4.1535
X5.0984Y-4.1929
X5.0984Y-4.2323
T2
X4.9669Y-3.5945
X4.9685Y-3.7638
X5.0169Y-3.5945
X5.0185Y-3.7638
X5.0669Y-3.5945
X5.0685Y-3.7638
T3
X3.0315Y-5.6366
X3.0315Y-5.7366
X3.0315Y-5.8366
X3.5976Y-2.6969
X3.8976Y-2.6969
X4.2118Y-4.4528
X4.2118Y-4.5528
X4.2118Y-4.6528
X4.2118Y-4.7528
X4.2118Y-4.8528
X4.2118Y-4.9528
X4.2118Y-5.0528
X4.2126Y-5.2433
X4.2126Y-5.5433
X4.2126Y-5.637
X4.2126Y-5.937
X4.2953Y-1.9272
X4.2953Y-2.0256
X4.3228Y-4.1732
X4.3228Y-4.311
X4.3465Y-5.3346
X4.3465Y-5.5315
X4.3465Y-5.6339
X4.3465Y-5.9339
X4.4795Y-5.3189
X4.4795Y-5.4189
X4.4795Y-5.5189
X4.4795Y-5.6189
X4.4795Y-5.7189
X4.4795Y-5.8189
X4.4795Y-5.9189
X4.5118Y-4.4528
X4.5118Y-4.5528
X4.5118Y-4.6528
X4.5118Y-4.7528
X4.5118Y-4.8528
X4.5118Y-4.9528
X4.5118Y-5.0528
X4.5197Y-4.1732
X4.5197Y-4.311
X4.5512Y-4.0118
X4.5524Y-3.0197
X4.5524Y-3.1437
X4.5524Y-3.3917
X4.5524Y-3.5157
X4.5524Y-3.6398
X4.5524Y-3.7638
X4.5524Y-3.8878
X4.5531Y-3.2677
X4.5551Y-2.7441
X4.6535Y-2.7441
X4.6823Y-5.0571
X4.6843Y-4.7047
X4.6843Y-4.935
X4.685Y-4.815
X4.7362Y-4.1811
X4.7362Y-4.2795
X4.7795Y-5.3189
X4.7795Y-5.4189
X4.7795Y-5.5189
X4.7795Y-5.6189
X4.7795Y-5.7189
X4.7795Y-5.8189
X4.7795Y-5.9189
X4.8512Y-4.0118
X4.8524Y-3.0197
X4.8524Y-3.1437
X4.8524Y-3.3917
X4.8524Y-3.5157
X4.8524Y-3.6398
X4.8524Y-3.7638
X4.8524Y-3.8878
X4.8531Y-3.2677
X4.8898Y-5.6732
X4.8898Y-5.7992
X4.8898Y-5.9252
X4.8976Y-5.5433
X4.9567Y-5.3189
X4.9685Y-3.0236
X4.9685Y-3.1535
X4.9705Y-3.2835
X4.9705Y-3.4134
X4.9823Y-5.0571
X4.9843Y-4.7047
X4.9843Y-4.935
X4.985Y-4.815
X5.0551Y-5.3189
X5.0669Y-3.0236
X5.0669Y-3.1535
X5.0689Y-3.2835
X5.0689Y-3.4134
X5.0945Y-5.5433
X5.1898Y-5.6732
X5.1898Y-5.7992
X5.1898Y-5.9252
T4
X3.7894Y-2.4016
X3.8894Y-2.4016
T5
X4.6299Y-1.9272
X4.6299Y-2.0256
X4.6299Y-2.124
X4.6299Y-2.2224
X4.6299Y-2.3209
X4.6299Y-2.4193
T6
X2.907Y-6.192
X2.907Y-6.292
X2.907Y-6.392
X2.907Y-6.492
X2.907Y-6.592
X2.907Y-6.692
X2.9528Y-2.4606
X2.9528Y-2.5606
X2.9528Y-2.6606
X2.9528Y-2.7606
X2.9528Y-2.8606
X2.9528Y-2.9606
X2.9528Y-3.0606
X2.9528Y-3.1606
X2.9528Y-3.2606
X2.9528Y-3.3606
X2.9528Y-3.4606
X2.9528Y-3.5606
X2.9528Y-3.6606
X2.9528Y-3.7606
X2.9528Y-3.8606
X2.9528Y-3.9606
X3.007Y-6.192
X3.007Y-6.292
X3.007Y-6.392
X3.007Y-6.492
X3.007Y-6.592
X3.007Y-6.692
X3.107Y-6.192
X3.107Y-6.292
X3.107Y-6.392
X3.107Y-6.492
X3.107Y-6.592
X3.107Y-6.692
X3.185Y-2.5
X3.207Y-6.192
X3.207Y-6.292
X3.207Y-6.392
X3.207Y-6.492
X3.207Y-6.592
X3.207Y-6.692
X3.2835Y-2.5
X3.307Y-6.192
X3.307Y-6.292
X3.307Y-6.392
X3.307Y-6.492
X3.307Y-6.592
X3.307Y-6.692
X3.3819Y-2.5
X3.407Y-6.192
X3.407Y-6.292
X3.407Y-6.392
X3.407Y-6.492
X3.407Y-6.592
X3.407Y-6.692
X3.4843Y-3.3465
X3.4843Y-3.622
X3.4843Y-5.0984
X3.507Y-6.192
X3.507Y-6.292
X3.507Y-6.392
X3.507Y-6.492
X3.507Y-6.592
X3.507Y-6.692
X3.5827Y-3.3465
X3.5827Y-3.622
X3.5827Y-5.0984
X3.607Y-6.192
X3.607Y-6.292
X3.607Y-6.392
X3.607Y-6.492
X3.607Y-6.592
X3.607Y-6.692
X3.6811Y-3.3465
X3.6811Y-3.622
X3.6811Y-5.0984
X3.707Y-6.192
X3.707Y-6.292
X3.707Y-6.392
X3.707Y-6.492
X3.707Y-6.592
X3.707Y-6.692
X3.807Y-6.192
X3.807Y-6.292
X3.807Y-6.392
X3.807Y-6.492
X3.807Y-6.592
X3.807Y-6.692
X3.907Y-6.192
X3.907Y-6.292
X3.907Y-6.392
X3.907Y-6.492
X3.907Y-6.592
X3.907Y-6.692
X4.007Y-6.192
X4.007Y-6.292
X4.007Y-6.392
X4.007Y-6.492
X4.007Y-6.592
X4.007Y-6.692
X4.107Y-6.192
X4.107Y-6.292
X4.107Y-6.392
X4.107Y-6.492
X4.107Y-6.592
X4.107Y-6.692
X4.207Y-6.192
X4.207Y-6.292
X4.207Y-6.392
X4.207Y-6.492
X4.207Y-6.592
X4.207Y-6.692
X4.2126Y-2.4606
X4.2126Y-2.5606
X4.2126Y-2.6606
X4.2126Y-2.7606
X4.2126Y-2.8606
X4.2126Y-2.9606
X4.2126Y-3.0606
X4.2126Y-3.1606
X4.2126Y-3.2606
X4.2126Y-3.3606
X4.2126Y-3.4606
X4.2126Y-3.5606
X4.2126Y-3.6606
X4.2126Y-3.7606
X4.2126Y-3.8606
X4.2126Y-3.9606
X4.307Y-6.192
X4.307Y-6.292
X4.307Y-6.392
X4.307Y-6.492
X4.307Y-6.592
X4.307Y-6.692
X4.407Y-6.192
X4.407Y-6.292
X4.407Y-6.392
X4.407Y-6.492
X4.407Y-6.592
X4.407Y-6.692
X4.507Y-6.192
X4.507Y-6.292
X4.507Y-6.392
X4.507Y-6.492
X4.507Y-6.592
X4.507Y-6.692
X4.607Y-6.192
X4.607Y-6.292
X4.607Y-6.392
X4.607Y-6.492
X4.607Y-6.592
X4.607Y-6.692
X4.707Y-6.192
X4.707Y-6.292
X4.707Y-6.392
X4.707Y-6.492
X4.707Y-6.592
X4.707Y-6.692
X4.807Y-6.192
X4.807Y-6.292
X4.807Y-6.392
X4.807Y-6.492
X4.807Y-6.592
X4.807Y-6.692
X4.907Y-6.192
X4.907Y-6.292
X4.907Y-6.392
X4.907Y-6.492
X4.907Y-6.592
X4.907Y-6.692
X4.9118Y-2.0315
X4.9118Y-2.1315
X4.9118Y-2.2315
X4.9118Y-2.3315
X4.9118Y-2.4315
X4.9118Y-2.5315
X4.9118Y-2.6315
X4.9118Y-2.7315
X5.007Y-6.192
X5.007Y-6.292
X5.007Y-6.392
X5.007Y-6.492
X5.007Y-6.592
X5.007Y-6.692
X5.0118Y-2.0315
X5.0118Y-2.1315
X5.0118Y-2.2315
X5.0118Y-2.3315
X5.0118Y-2.4315
X5.0118Y-2.5315
X5.0118Y-2.6315
X5.0118Y-2.7315
X5.107Y-6.192
X5.107Y-6.292
X5.107Y-6.392
X5.107Y-6.492
X5.107Y-6.592
X5.107Y-6.692
X5.207Y-6.192
X5.207Y-6.292
X5.207Y-6.392
X5.207Y-6.492
X5.207Y-6.592
X5.207Y-6.692
T8
X3.0709Y-4.1142
X3.0709Y-4.8819
X3.3465Y-5.4882
X3.7795Y-5.4921
T9
X3.0709Y-4.2362
X3.0709Y-5.0039
X3.3465Y-5.6102
X3.7795Y-5.6142
T10
X3.0709Y-4.563
X3.0709Y-5.3307
X3.3465Y-5.937
X3.7795Y-5.9409
T7
G00X3.0945Y-2.2283
M15
G01X3.0945Y-2.1811
M16
G05
G00X3.3937Y-3.0748
M15
G01X3.3937Y-3.0276
M16
G05
G00X3.3937Y-3.8937
M15
G01X3.3937Y-3.9409
M16
G05
G00X3.3937Y-4.8268
M15
G01X3.3937Y-4.7795
M16
G05
G00X3.4724Y-2.2283
M15
G01X3.4724Y-2.1811
M16
G05
G00X3.7717Y-3.0748
M15
G01X3.7717Y-3.0276
M16
G05
G00X3.7717Y-3.8937
M15
G01X3.7717Y-3.9409
M16
G05
G00X3.7717Y-4.8268
M15
G01X3.7717Y-4.7795
M16
G05
T11
G00X1.6929Y-1.8898
M15
G01X1.8031Y-1.8898
M16
G05
G00X2.5276Y-6.7126
M15
G01X2.6378Y-6.7126
M16
G05
T0
M30
