%TF.GenerationSoftware,KiCad,Pcbnew,7.0.9*%
%TF.CreationDate,2023-12-20T21:33:15+01:00*%
%TF.ProjectId,MiniOSC,4d696e69-4f53-4432-9e6b-696361645f70,rev?*%
%TF.SameCoordinates,Original*%
%TF.FileFunction,Soldermask,Bot*%
%TF.FilePolarity,Negative*%
%FSLAX46Y46*%
G04 Gerber Fmt 4.6, Leading zero omitted, Abs format (unit mm)*
G04 Created by KiCad (PCBNEW 7.0.9) date 2023-12-20 21:33:15*
%MOMM*%
%LPD*%
G01*
G04 APERTURE LIST*
G04 Aperture macros list*
%AMRoundRect*
0 Rectangle with rounded corners*
0 $1 Rounding radius*
0 $2 $3 $4 $5 $6 $7 $8 $9 X,Y pos of 4 corners*
0 Add a 4 corners polygon primitive as box body*
4,1,4,$2,$3,$4,$5,$6,$7,$8,$9,$2,$3,0*
0 Add four circle primitives for the rounded corners*
1,1,$1+$1,$2,$3*
1,1,$1+$1,$4,$5*
1,1,$1+$1,$6,$7*
1,1,$1+$1,$8,$9*
0 Add four rect primitives between the rounded corners*
20,1,$1+$1,$2,$3,$4,$5,0*
20,1,$1+$1,$4,$5,$6,$7,0*
20,1,$1+$1,$6,$7,$8,$9,0*
20,1,$1+$1,$8,$9,$2,$3,0*%
G04 Aperture macros list end*
%ADD10O,2.720000X3.240000*%
%ADD11R,1.800000X1.800000*%
%ADD12C,1.800000*%
%ADD13C,1.440000*%
%ADD14R,1.930000X1.830000*%
%ADD15C,2.130000*%
%ADD16C,1.600000*%
%ADD17O,1.600000X1.600000*%
%ADD18R,1.700000X1.700000*%
%ADD19O,1.700000X1.700000*%
%ADD20C,0.500000*%
%ADD21C,3.200000*%
%ADD22O,7.000000X4.200000*%
%ADD23RoundRect,0.250000X0.600000X0.600000X-0.600000X0.600000X-0.600000X-0.600000X0.600000X-0.600000X0*%
%ADD24C,1.700000*%
%ADD25R,1.600000X1.600000*%
%ADD26RoundRect,0.250000X0.725000X-0.600000X0.725000X0.600000X-0.725000X0.600000X-0.725000X-0.600000X0*%
%ADD27O,1.950000X1.700000*%
%ADD28R,1.050000X1.500000*%
%ADD29O,1.050000X1.500000*%
G04 APERTURE END LIST*
D10*
%TO.C,TUNING_FINE1*%
X86200000Y-77500000D03*
X95800000Y-77500000D03*
D11*
X88500000Y-85000000D03*
D12*
X91000000Y-85000000D03*
X93500000Y-85000000D03*
%TD*%
D10*
%TO.C,TUNING_COARSE1*%
X78600000Y-56000000D03*
X88200000Y-56000000D03*
D11*
X80900000Y-63500000D03*
D12*
X83400000Y-63500000D03*
X85900000Y-63500000D03*
%TD*%
D13*
%TO.C,SCALE1*%
X77000000Y-148250000D03*
X77000000Y-145710000D03*
X77000000Y-143170000D03*
%TD*%
D14*
%TO.C,J6*%
X85000000Y-139400000D03*
D15*
X85000000Y-150800000D03*
X85000000Y-142500000D03*
%TD*%
D14*
%TO.C,J5*%
X96000000Y-139500000D03*
D15*
X96000000Y-150900000D03*
X96000000Y-142600000D03*
%TD*%
D14*
%TO.C,J4*%
X78000000Y-104500000D03*
D15*
X78000000Y-115900000D03*
X78000000Y-107600000D03*
%TD*%
D14*
%TO.C,J3*%
X78000000Y-124000000D03*
D15*
X78000000Y-135400000D03*
X78000000Y-127100000D03*
%TD*%
D10*
%TO.C,FM_AMOUNT1*%
X95800000Y-99500000D03*
X86200000Y-99500000D03*
D11*
X93500000Y-92000000D03*
D12*
X91000000Y-92000000D03*
X88500000Y-92000000D03*
%TD*%
D10*
%TO.C,PULSE_WIDTH1*%
X86200000Y-122000000D03*
X95800000Y-122000000D03*
D11*
X88500000Y-129500000D03*
D12*
X91000000Y-129500000D03*
X93500000Y-129500000D03*
%TD*%
D11*
%TO.C,D3*%
X96250000Y-61000000D03*
D12*
X98790000Y-61000000D03*
%TD*%
D16*
%TO.C,R18*%
X99000000Y-68500000D03*
D17*
X91380000Y-68500000D03*
%TD*%
D18*
%TO.C,J1*%
X107000000Y-62500000D03*
D19*
X107000000Y-65040000D03*
X107000000Y-67580000D03*
X107000000Y-70120000D03*
X107000000Y-72660000D03*
X107000000Y-75200000D03*
X107000000Y-77740000D03*
X107000000Y-80280000D03*
X107000000Y-82820000D03*
X107000000Y-85360000D03*
X107000000Y-87900000D03*
X107000000Y-90440000D03*
X107000000Y-92980000D03*
X107000000Y-95520000D03*
X107000000Y-98060000D03*
X107000000Y-100600000D03*
%TD*%
D20*
%TO.C,mouse-bite-2mm-slot*%
X70250000Y-64750000D03*
X71750000Y-64750000D03*
X70250000Y-64000000D03*
X71750000Y-64000000D03*
X70250000Y-63250000D03*
X71750000Y-63250000D03*
%TD*%
D21*
%TO.C,REF\u002A\u002A*%
X127100000Y-112000000D03*
%TD*%
%TO.C,REF\u002A\u002A*%
X94800000Y-112000000D03*
%TD*%
D20*
%TO.C,mouse-bite-2mm-slot*%
X70250000Y-143750000D03*
X71750000Y-143750000D03*
X70250000Y-143000000D03*
X71750000Y-143000000D03*
X70250000Y-142250000D03*
X71750000Y-142250000D03*
%TD*%
%TO.C,mouse-bite-2mm-slot*%
X102250000Y-133750000D03*
X103750000Y-133750000D03*
X102250000Y-133000000D03*
X103750000Y-133000000D03*
X102250000Y-132250000D03*
X103750000Y-132250000D03*
%TD*%
D22*
%TO.C,REF\u002A\u002A*%
X44400000Y-48000000D03*
%TD*%
%TO.C,REF\u002A\u002A*%
X65600000Y-170500000D03*
%TD*%
D20*
%TO.C,mouse-bite-2mm-slot*%
X126377200Y-155246200D03*
X126377200Y-153746200D03*
X125627200Y-155246200D03*
X125627200Y-153746200D03*
X124877200Y-155246200D03*
X124877200Y-153746200D03*
%TD*%
%TO.C,mouse-bite-2mm-slot*%
X85777200Y-155246200D03*
X85777200Y-153746200D03*
X85027200Y-155246200D03*
X85027200Y-153746200D03*
X84277200Y-155246200D03*
X84277200Y-153746200D03*
%TD*%
%TO.C,mouse-bite-2mm-slot*%
X70250000Y-163740000D03*
X71750000Y-163740000D03*
X70250000Y-162990000D03*
X71750000Y-162990000D03*
X70250000Y-162240000D03*
X71750000Y-162240000D03*
%TD*%
%TO.C,mouse-bite-2mm-slot*%
X102250000Y-54750000D03*
X103750000Y-54750000D03*
X102250000Y-54000000D03*
X103750000Y-54000000D03*
X102250000Y-53250000D03*
X103750000Y-53250000D03*
%TD*%
D18*
%TO.C,REF\u002A\u002A*%
X73837800Y-164896800D03*
D19*
X73837800Y-162356800D03*
X76377800Y-164896800D03*
X76377800Y-162356800D03*
X78917800Y-164896800D03*
X78917800Y-162356800D03*
X81457800Y-164896800D03*
X81457800Y-162356800D03*
X83997800Y-164896800D03*
X83997800Y-162356800D03*
X86537800Y-164896800D03*
X86537800Y-162356800D03*
X89077800Y-164896800D03*
X89077800Y-162356800D03*
X91617800Y-164896800D03*
X91617800Y-162356800D03*
X94157800Y-164896800D03*
X94157800Y-162356800D03*
X96697800Y-164896800D03*
X96697800Y-162356800D03*
X99237800Y-164896800D03*
X99237800Y-162356800D03*
X101777800Y-164896800D03*
X101777800Y-162356800D03*
X104317800Y-164896800D03*
X104317800Y-162356800D03*
X106857800Y-164896800D03*
X106857800Y-162356800D03*
X109397800Y-164896800D03*
X109397800Y-162356800D03*
X111937800Y-164896800D03*
X111937800Y-162356800D03*
X114477800Y-164896800D03*
X114477800Y-162356800D03*
X117017800Y-164896800D03*
X117017800Y-162356800D03*
X119557800Y-164896800D03*
X119557800Y-162356800D03*
X122097800Y-164896800D03*
X122097800Y-162356800D03*
X124637800Y-164896800D03*
X124637800Y-162356800D03*
X127177800Y-164896800D03*
X127177800Y-162356800D03*
X129717800Y-164896800D03*
X129717800Y-162356800D03*
X132257800Y-164896800D03*
X132257800Y-162356800D03*
%TD*%
D18*
%TO.C,REF\u002A\u002A*%
X73837800Y-159816800D03*
D19*
X73837800Y-157276800D03*
X76377800Y-159816800D03*
X76377800Y-157276800D03*
X78917800Y-159816800D03*
X78917800Y-157276800D03*
X81457800Y-159816800D03*
X81457800Y-157276800D03*
X83997800Y-159816800D03*
X83997800Y-157276800D03*
X86537800Y-159816800D03*
X86537800Y-157276800D03*
X89077800Y-159816800D03*
X89077800Y-157276800D03*
X91617800Y-159816800D03*
X91617800Y-157276800D03*
X94157800Y-159816800D03*
X94157800Y-157276800D03*
X96697800Y-159816800D03*
X96697800Y-157276800D03*
X99237800Y-159816800D03*
X99237800Y-157276800D03*
X101777800Y-159816800D03*
X101777800Y-157276800D03*
X104317800Y-159816800D03*
X104317800Y-157276800D03*
X106857800Y-159816800D03*
X106857800Y-157276800D03*
X109397800Y-159816800D03*
X109397800Y-157276800D03*
X111937800Y-159816800D03*
X111937800Y-157276800D03*
X114477800Y-159816800D03*
X114477800Y-157276800D03*
X117017800Y-159816800D03*
X117017800Y-157276800D03*
X119557800Y-159816800D03*
X119557800Y-157276800D03*
X122097800Y-159816800D03*
X122097800Y-157276800D03*
X124637800Y-159816800D03*
X124637800Y-157276800D03*
X127177800Y-159816800D03*
X127177800Y-157276800D03*
X129717800Y-159816800D03*
X129717800Y-157276800D03*
X132257800Y-159816800D03*
X132257800Y-157276800D03*
%TD*%
D18*
%TO.C,REF\u002A\u002A*%
X73837800Y-169976800D03*
D19*
X73837800Y-167436800D03*
X76377800Y-169976800D03*
X76377800Y-167436800D03*
X78917800Y-169976800D03*
X78917800Y-167436800D03*
X81457800Y-169976800D03*
X81457800Y-167436800D03*
X83997800Y-169976800D03*
X83997800Y-167436800D03*
X86537800Y-169976800D03*
X86537800Y-167436800D03*
X89077800Y-169976800D03*
X89077800Y-167436800D03*
X91617800Y-169976800D03*
X91617800Y-167436800D03*
X94157800Y-169976800D03*
X94157800Y-167436800D03*
X96697800Y-169976800D03*
X96697800Y-167436800D03*
X99237800Y-169976800D03*
X99237800Y-167436800D03*
X101777800Y-169976800D03*
X101777800Y-167436800D03*
X104317800Y-169976800D03*
X104317800Y-167436800D03*
X106857800Y-169976800D03*
X106857800Y-167436800D03*
X109397800Y-169976800D03*
X109397800Y-167436800D03*
X111937800Y-169976800D03*
X111937800Y-167436800D03*
X114477800Y-169976800D03*
X114477800Y-167436800D03*
X117017800Y-169976800D03*
X117017800Y-167436800D03*
X119557800Y-169976800D03*
X119557800Y-167436800D03*
X122097800Y-169976800D03*
X122097800Y-167436800D03*
X124637800Y-169976800D03*
X124637800Y-167436800D03*
X127177800Y-169976800D03*
X127177800Y-167436800D03*
X129717800Y-169976800D03*
X129717800Y-167436800D03*
X132257800Y-169976800D03*
X132257800Y-167436800D03*
%TD*%
D16*
%TO.C,C7*%
X124400000Y-140800000D03*
X129400000Y-140800000D03*
%TD*%
D18*
%TO.C,J2*%
X75000000Y-62500000D03*
D19*
X75000000Y-65040000D03*
X75000000Y-67580000D03*
X75000000Y-70120000D03*
X75000000Y-72660000D03*
X75000000Y-75200000D03*
X75000000Y-77740000D03*
X75000000Y-80280000D03*
X75000000Y-82820000D03*
X75000000Y-85360000D03*
X75000000Y-87900000D03*
X75000000Y-90440000D03*
X75000000Y-92980000D03*
X75000000Y-95520000D03*
X75000000Y-98060000D03*
X75000000Y-100600000D03*
%TD*%
D16*
%TO.C,C6*%
X109800000Y-109500000D03*
X114800000Y-109500000D03*
%TD*%
%TO.C,R7*%
X110400000Y-143100000D03*
D17*
X110400000Y-150720000D03*
%TD*%
D16*
%TO.C,TH4*%
X128700000Y-76800000D03*
X126200000Y-76800000D03*
%TD*%
D23*
%TO.C,J8*%
X127300000Y-51600000D03*
D24*
X124760000Y-51600000D03*
X127300000Y-54140000D03*
X124760000Y-54140000D03*
X127300000Y-56680000D03*
X124760000Y-56680000D03*
X127300000Y-59220000D03*
X124760000Y-59220000D03*
X127300000Y-61760000D03*
X124760000Y-61760000D03*
X127300000Y-64300000D03*
X124760000Y-64300000D03*
X127300000Y-66840000D03*
X124760000Y-66840000D03*
X127300000Y-69380000D03*
X124760000Y-69380000D03*
%TD*%
D16*
%TO.C,R11*%
X123250000Y-95600000D03*
D17*
X115630000Y-95600000D03*
%TD*%
D25*
%TO.C,C2*%
X125900000Y-135100000D03*
D16*
X128400000Y-135100000D03*
%TD*%
%TO.C,R1*%
X123250000Y-89300000D03*
D17*
X115630000Y-89300000D03*
%TD*%
D16*
%TO.C,R14*%
X124200000Y-147300000D03*
D17*
X131820000Y-147300000D03*
%TD*%
D16*
%TO.C,TH3*%
X126200000Y-80100000D03*
X128700000Y-80100000D03*
%TD*%
D26*
%TO.C,J7*%
X117600000Y-61450000D03*
D27*
X117600000Y-58950000D03*
X117600000Y-56450000D03*
X117600000Y-53950000D03*
X117600000Y-51450000D03*
X117600000Y-48950000D03*
%TD*%
D16*
%TO.C,R2*%
X123250000Y-86150000D03*
D17*
X115630000Y-86150000D03*
%TD*%
D25*
%TO.C,U1*%
X121400000Y-135100000D03*
D17*
X121400000Y-137640000D03*
X121400000Y-140180000D03*
X121400000Y-142720000D03*
X121400000Y-145260000D03*
X121400000Y-147800000D03*
X121400000Y-150340000D03*
X113780000Y-150340000D03*
X113780000Y-147800000D03*
X113780000Y-145260000D03*
X113780000Y-142720000D03*
X113780000Y-140180000D03*
X113780000Y-137640000D03*
X113780000Y-135100000D03*
%TD*%
D16*
%TO.C,C1*%
X114800000Y-106000000D03*
X109800000Y-106000000D03*
%TD*%
%TO.C,R8*%
X126600000Y-125350000D03*
D17*
X118980000Y-125350000D03*
%TD*%
D16*
%TO.C,R6*%
X123250000Y-92450000D03*
D17*
X115630000Y-92450000D03*
%TD*%
D25*
%TO.C,C3*%
X120300000Y-108700000D03*
D16*
X120300000Y-106200000D03*
%TD*%
D25*
%TO.C,U2*%
X114600000Y-113100000D03*
D17*
X114600000Y-115640000D03*
X114600000Y-118180000D03*
X114600000Y-120720000D03*
X114600000Y-123260000D03*
X114600000Y-125800000D03*
X114600000Y-128340000D03*
X106980000Y-128340000D03*
X106980000Y-125800000D03*
X106980000Y-123260000D03*
X106980000Y-120720000D03*
X106980000Y-118180000D03*
X106980000Y-115640000D03*
X106980000Y-113100000D03*
%TD*%
D16*
%TO.C,R5*%
X115650000Y-83000000D03*
D17*
X123270000Y-83000000D03*
%TD*%
D16*
%TO.C,R16*%
X107000000Y-140800000D03*
D17*
X107000000Y-133180000D03*
%TD*%
D28*
%TO.C,Q1*%
X128700000Y-91300000D03*
D29*
X127430000Y-91300000D03*
X126160000Y-91300000D03*
%TD*%
D16*
%TO.C,R3*%
X123250000Y-79850000D03*
D17*
X115630000Y-79850000D03*
%TD*%
D16*
%TO.C,R13*%
X124200000Y-144100000D03*
D17*
X131820000Y-144100000D03*
%TD*%
D16*
%TO.C,TH1*%
X128750000Y-86700000D03*
X126250000Y-86700000D03*
%TD*%
%TO.C,R4*%
X123250000Y-76700000D03*
D17*
X115630000Y-76700000D03*
%TD*%
D16*
%TO.C,TH2*%
X128750000Y-83400000D03*
X126250000Y-83400000D03*
%TD*%
D28*
%TO.C,Q2*%
X126200000Y-95600000D03*
D29*
X127470000Y-95600000D03*
X128740000Y-95600000D03*
%TD*%
D25*
%TO.C,C4*%
X115700000Y-69700000D03*
D16*
X118200000Y-69700000D03*
%TD*%
D25*
%TO.C,C5*%
X109100000Y-48950000D03*
D16*
X109100000Y-51450000D03*
%TD*%
%TO.C,R10*%
X115600000Y-101900000D03*
D17*
X123220000Y-101900000D03*
%TD*%
D16*
%TO.C,R9*%
X126550000Y-128450000D03*
D17*
X118930000Y-128450000D03*
%TD*%
D25*
%TO.C,D2*%
X119000000Y-122300000D03*
D17*
X126620000Y-122300000D03*
%TD*%
D16*
%TO.C,R12*%
X123250000Y-98750000D03*
D17*
X115630000Y-98750000D03*
%TD*%
D16*
%TO.C,C8*%
X110400000Y-135500000D03*
X110400000Y-140500000D03*
%TD*%
%TO.C,R17*%
X107000000Y-150800000D03*
D17*
X107000000Y-143180000D03*
%TD*%
D16*
%TO.C,R15*%
X124200000Y-150500000D03*
D17*
X131820000Y-150500000D03*
%TD*%
D25*
%TO.C,D1*%
X126600000Y-119500000D03*
D17*
X118980000Y-119500000D03*
%TD*%
M02*
