%TF.GenerationSoftware,KiCad,Pcbnew,7.0.9*%
%TF.CreationDate,2023-12-08T20:00:54+01:00*%
%TF.ProjectId,MiniOSC,4d696e69-4f53-4432-9e6b-696361645f70,rev?*%
%TF.SameCoordinates,Original*%
%TF.FileFunction,Profile,NP*%
%FSLAX46Y46*%
G04 Gerber Fmt 4.6, Leading zero omitted, Abs format (unit mm)*
G04 Created by KiCad (PCBNEW 7.0.9) date 2023-12-08 20:00:54*
%MOMM*%
%LPD*%
G01*
G04 APERTURE LIST*
%TA.AperFunction,Profile*%
%ADD10C,0.100000*%
%TD*%
G04 APERTURE END LIST*
D10*
X72000000Y-66000000D02*
G75*
G03*
X70000000Y-66000000I-1000000J0D01*
G01*
X70000000Y-62000000D02*
G75*
G03*
X72000000Y-62000000I1000000J0D01*
G01*
X70000000Y-45000000D02*
X70000000Y-62000000D01*
X72000000Y-62000000D02*
X72000000Y-45000000D01*
X104000000Y-56000000D02*
G75*
G03*
X102000000Y-56000000I-1000000J0D01*
G01*
X102000000Y-52000000D02*
G75*
G03*
X104000000Y-52000000I1000000J0D01*
G01*
X102000000Y-45000000D02*
X102000000Y-52000000D01*
X104000000Y-52000000D02*
X104000000Y-45000000D01*
X122550000Y-153500000D02*
X134100000Y-153500000D01*
X134100000Y-45000000D02*
X122550000Y-45000000D01*
X104000000Y-56000000D02*
X104050000Y-131000000D01*
X102000000Y-131000000D02*
X102000000Y-56000000D01*
X104049802Y-135000000D02*
G75*
G03*
X102000001Y-134979905I-1024999J0D01*
G01*
X102000000Y-131000000D02*
G75*
G03*
X104050000Y-131000000I1025000J0D01*
G01*
X72000000Y-144950000D02*
G75*
G03*
X69998751Y-145000000I-1000000J-50000D01*
G01*
X70000001Y-141000000D02*
G75*
G03*
X71999260Y-141038431I999999J0D01*
G01*
X69998751Y-145000000D02*
X70000000Y-173500000D01*
X71999261Y-141038431D02*
X72000000Y-66000000D01*
X134100000Y-45000000D02*
X134100000Y-153500000D01*
X104000000Y-45000000D02*
X122550000Y-45000000D01*
X104050000Y-153500000D02*
X104049803Y-135000000D01*
X122550000Y-153500000D02*
X104050000Y-153500000D01*
X72025000Y-153500000D02*
X72000000Y-144950000D01*
X102000000Y-153500000D02*
X72025000Y-153500000D01*
X102000000Y-134979905D02*
X102000000Y-153500000D01*
X72000000Y-45000000D02*
X102000000Y-45000000D01*
X66750000Y-71000000D02*
G75*
G03*
X66750000Y-71000000I-1500000J0D01*
G01*
X45500000Y-158000000D02*
G75*
G03*
X45500000Y-158000000I-1500000J0D01*
G01*
X63000000Y-132000000D02*
G75*
G03*
X63000000Y-132000000I-4000000J0D01*
G01*
X63000000Y-109500000D02*
G75*
G03*
X63000000Y-109500000I-4000000J0D01*
G01*
X63000000Y-87500000D02*
G75*
G03*
X63000000Y-87500000I-4000000J0D01*
G01*
X55500000Y-66000000D02*
G75*
G03*
X55500000Y-66000000I-4000000J0D01*
G01*
X56000000Y-156000000D02*
G75*
G03*
X56000000Y-156000000I-3000000J0D01*
G01*
X67041381Y-156000000D02*
G75*
G03*
X67041381Y-156000000I-3041381J0D01*
G01*
X49000000Y-140500000D02*
G75*
G03*
X49000000Y-140500000I-3000000J0D01*
G01*
X49041381Y-121000000D02*
G75*
G03*
X49041381Y-121000000I-3041381J0D01*
G01*
X70000000Y-173500000D02*
X40000000Y-173500000D01*
X70000000Y-66000000D02*
X70000000Y-141000000D01*
X40000000Y-45000000D02*
X70000000Y-45000000D01*
X40000000Y-45000000D02*
X40000000Y-173500000D01*
M02*
