%TF.GenerationSoftware,KiCad,Pcbnew,7.0.9*%
%TF.CreationDate,2023-12-08T22:38:07+01:00*%
%TF.ProjectId,MiniOSC-handscore,4d696e69-4f53-4432-9d68-616e6473636f,rev?*%
%TF.SameCoordinates,Original*%
%TF.FileFunction,Soldermask,Bot*%
%TF.FilePolarity,Negative*%
%FSLAX46Y46*%
G04 Gerber Fmt 4.6, Leading zero omitted, Abs format (unit mm)*
G04 Created by KiCad (PCBNEW 7.0.9) date 2023-12-08 22:38:07*
%MOMM*%
%LPD*%
G01*
G04 APERTURE LIST*
G04 Aperture macros list*
%AMRoundRect*
0 Rectangle with rounded corners*
0 $1 Rounding radius*
0 $2 $3 $4 $5 $6 $7 $8 $9 X,Y pos of 4 corners*
0 Add a 4 corners polygon primitive as box body*
4,1,4,$2,$3,$4,$5,$6,$7,$8,$9,$2,$3,0*
0 Add four circle primitives for the rounded corners*
1,1,$1+$1,$2,$3*
1,1,$1+$1,$4,$5*
1,1,$1+$1,$6,$7*
1,1,$1+$1,$8,$9*
0 Add four rect primitives between the rounded corners*
20,1,$1+$1,$2,$3,$4,$5,0*
20,1,$1+$1,$4,$5,$6,$7,0*
20,1,$1+$1,$6,$7,$8,$9,0*
20,1,$1+$1,$8,$9,$2,$3,0*%
G04 Aperture macros list end*
%ADD10O,1.700000X1.700000*%
%ADD11R,1.700000X1.700000*%
%ADD12O,2.720000X3.240000*%
%ADD13R,1.800000X1.800000*%
%ADD14C,1.800000*%
%ADD15C,1.440000*%
%ADD16R,1.930000X1.830000*%
%ADD17C,2.130000*%
%ADD18C,1.600000*%
%ADD19O,1.600000X1.600000*%
%ADD20C,3.200000*%
%ADD21O,7.000000X4.200000*%
%ADD22RoundRect,0.250000X0.600000X0.600000X-0.600000X0.600000X-0.600000X-0.600000X0.600000X-0.600000X0*%
%ADD23C,1.700000*%
%ADD24R,1.600000X1.600000*%
%ADD25RoundRect,0.250000X0.725000X-0.600000X0.725000X0.600000X-0.725000X0.600000X-0.725000X-0.600000X0*%
%ADD26O,1.950000X1.700000*%
%ADD27R,1.050000X1.500000*%
%ADD28O,1.050000X1.500000*%
G04 APERTURE END LIST*
D10*
%TO.C,REF\u002A\u002A*%
X127762000Y-170434000D03*
X125222000Y-170434000D03*
X122682000Y-170434000D03*
X120142000Y-170434000D03*
X117602000Y-170434000D03*
X115062000Y-170434000D03*
X112522000Y-170434000D03*
X109982000Y-170434000D03*
X107442000Y-170434000D03*
X104902000Y-170434000D03*
X102362000Y-170434000D03*
X99822000Y-170434000D03*
X97282000Y-170434000D03*
X94742000Y-170434000D03*
X92202000Y-170434000D03*
X89662000Y-170434000D03*
X87122000Y-170434000D03*
X84582000Y-170434000D03*
X82042000Y-170434000D03*
X79502000Y-170434000D03*
X76962000Y-170434000D03*
X74422000Y-170434000D03*
D11*
X71882000Y-170434000D03*
%TD*%
D10*
%TO.C,REF\u002A\u002A*%
X127762000Y-160274000D03*
X127762000Y-162814000D03*
X125222000Y-160274000D03*
X125222000Y-162814000D03*
X122682000Y-160274000D03*
X122682000Y-162814000D03*
X120142000Y-160274000D03*
X120142000Y-162814000D03*
X117602000Y-160274000D03*
X117602000Y-162814000D03*
X115062000Y-160274000D03*
X115062000Y-162814000D03*
X112522000Y-160274000D03*
X112522000Y-162814000D03*
X109982000Y-160274000D03*
X109982000Y-162814000D03*
X107442000Y-160274000D03*
X107442000Y-162814000D03*
X104902000Y-160274000D03*
X104902000Y-162814000D03*
X102362000Y-160274000D03*
X102362000Y-162814000D03*
X99822000Y-160274000D03*
X99822000Y-162814000D03*
X97282000Y-160274000D03*
X97282000Y-162814000D03*
X94742000Y-160274000D03*
X94742000Y-162814000D03*
X92202000Y-160274000D03*
X92202000Y-162814000D03*
X89662000Y-160274000D03*
X89662000Y-162814000D03*
X87122000Y-160274000D03*
X87122000Y-162814000D03*
X84582000Y-160274000D03*
X84582000Y-162814000D03*
X82042000Y-160274000D03*
X82042000Y-162814000D03*
X79502000Y-160274000D03*
X79502000Y-162814000D03*
X76962000Y-160274000D03*
X76962000Y-162814000D03*
X74422000Y-160274000D03*
X74422000Y-162814000D03*
X71882000Y-160274000D03*
D11*
X71882000Y-162814000D03*
%TD*%
D10*
%TO.C,REF\u002A\u002A*%
X127762000Y-165354000D03*
X127762000Y-167894000D03*
X125222000Y-165354000D03*
X125222000Y-167894000D03*
X122682000Y-165354000D03*
X122682000Y-167894000D03*
X120142000Y-165354000D03*
X120142000Y-167894000D03*
X117602000Y-165354000D03*
X117602000Y-167894000D03*
X115062000Y-165354000D03*
X115062000Y-167894000D03*
X112522000Y-165354000D03*
X112522000Y-167894000D03*
X109982000Y-165354000D03*
X109982000Y-167894000D03*
X107442000Y-165354000D03*
X107442000Y-167894000D03*
X104902000Y-165354000D03*
X104902000Y-167894000D03*
X102362000Y-165354000D03*
X102362000Y-167894000D03*
X99822000Y-165354000D03*
X99822000Y-167894000D03*
X97282000Y-165354000D03*
X97282000Y-167894000D03*
X94742000Y-165354000D03*
X94742000Y-167894000D03*
X92202000Y-165354000D03*
X92202000Y-167894000D03*
X89662000Y-165354000D03*
X89662000Y-167894000D03*
X87122000Y-165354000D03*
X87122000Y-167894000D03*
X84582000Y-165354000D03*
X84582000Y-167894000D03*
X82042000Y-165354000D03*
X82042000Y-167894000D03*
X79502000Y-165354000D03*
X79502000Y-167894000D03*
X76962000Y-165354000D03*
X76962000Y-167894000D03*
X74422000Y-165354000D03*
X74422000Y-167894000D03*
X71882000Y-165354000D03*
D11*
X71882000Y-167894000D03*
%TD*%
%TO.C,REF\u002A\u002A*%
X71882000Y-157734000D03*
D10*
X71882000Y-155194000D03*
X74422000Y-157734000D03*
X74422000Y-155194000D03*
X76962000Y-157734000D03*
X76962000Y-155194000D03*
X79502000Y-157734000D03*
X79502000Y-155194000D03*
X82042000Y-157734000D03*
X82042000Y-155194000D03*
X84582000Y-157734000D03*
X84582000Y-155194000D03*
X87122000Y-157734000D03*
X87122000Y-155194000D03*
X89662000Y-157734000D03*
X89662000Y-155194000D03*
X92202000Y-157734000D03*
X92202000Y-155194000D03*
X94742000Y-157734000D03*
X94742000Y-155194000D03*
X97282000Y-157734000D03*
X97282000Y-155194000D03*
X99822000Y-157734000D03*
X99822000Y-155194000D03*
X102362000Y-157734000D03*
X102362000Y-155194000D03*
X104902000Y-157734000D03*
X104902000Y-155194000D03*
X107442000Y-157734000D03*
X107442000Y-155194000D03*
X109982000Y-157734000D03*
X109982000Y-155194000D03*
X112522000Y-157734000D03*
X112522000Y-155194000D03*
X115062000Y-157734000D03*
X115062000Y-155194000D03*
X117602000Y-157734000D03*
X117602000Y-155194000D03*
X120142000Y-157734000D03*
X120142000Y-155194000D03*
X122682000Y-157734000D03*
X122682000Y-155194000D03*
X125222000Y-157734000D03*
X125222000Y-155194000D03*
X127762000Y-157734000D03*
X127762000Y-155194000D03*
%TD*%
D12*
%TO.C,TUNING_FINE1*%
X84200000Y-77500000D03*
X93800000Y-77500000D03*
D13*
X86500000Y-85000000D03*
D14*
X89000000Y-85000000D03*
X91500000Y-85000000D03*
%TD*%
D12*
%TO.C,TUNING_COARSE1*%
X76600000Y-56000000D03*
X86200000Y-56000000D03*
D13*
X78900000Y-63500000D03*
D14*
X81400000Y-63500000D03*
X83900000Y-63500000D03*
%TD*%
D15*
%TO.C,SCALE1*%
X75000000Y-148250000D03*
X75000000Y-145710000D03*
X75000000Y-143170000D03*
%TD*%
D16*
%TO.C,J6*%
X83000000Y-139400000D03*
D17*
X83000000Y-150800000D03*
X83000000Y-142500000D03*
%TD*%
D16*
%TO.C,J5*%
X94000000Y-139500000D03*
D17*
X94000000Y-150900000D03*
X94000000Y-142600000D03*
%TD*%
D16*
%TO.C,J4*%
X76000000Y-104500000D03*
D17*
X76000000Y-115900000D03*
X76000000Y-107600000D03*
%TD*%
D16*
%TO.C,J3*%
X76000000Y-124000000D03*
D17*
X76000000Y-135400000D03*
X76000000Y-127100000D03*
%TD*%
D12*
%TO.C,FM_AMOUNT1*%
X93800000Y-99500000D03*
X84200000Y-99500000D03*
D13*
X91500000Y-92000000D03*
D14*
X89000000Y-92000000D03*
X86500000Y-92000000D03*
%TD*%
D12*
%TO.C,PULSE_WIDTH1*%
X84200000Y-122000000D03*
X93800000Y-122000000D03*
D13*
X86500000Y-129500000D03*
D14*
X89000000Y-129500000D03*
X91500000Y-129500000D03*
%TD*%
D13*
%TO.C,D3*%
X94250000Y-61000000D03*
D14*
X96790000Y-61000000D03*
%TD*%
D18*
%TO.C,R18*%
X97000000Y-68500000D03*
D19*
X89380000Y-68500000D03*
%TD*%
D11*
%TO.C,J1*%
X103000000Y-62500000D03*
D10*
X103000000Y-65040000D03*
X103000000Y-67580000D03*
X103000000Y-70120000D03*
X103000000Y-72660000D03*
X103000000Y-75200000D03*
X103000000Y-77740000D03*
X103000000Y-80280000D03*
X103000000Y-82820000D03*
X103000000Y-85360000D03*
X103000000Y-87900000D03*
X103000000Y-90440000D03*
X103000000Y-92980000D03*
X103000000Y-95520000D03*
X103000000Y-98060000D03*
X103000000Y-100600000D03*
%TD*%
D20*
%TO.C,REF\u002A\u002A*%
X123100000Y-112000000D03*
%TD*%
%TO.C,REF\u002A\u002A*%
X92800000Y-112000000D03*
%TD*%
D21*
%TO.C,REF\u002A\u002A*%
X44400000Y-48000000D03*
%TD*%
%TO.C,REF\u002A\u002A*%
X65600000Y-170500000D03*
%TD*%
D18*
%TO.C,C7*%
X120400000Y-140800000D03*
X125400000Y-140800000D03*
%TD*%
D11*
%TO.C,J2*%
X73000000Y-62500000D03*
D10*
X73000000Y-65040000D03*
X73000000Y-67580000D03*
X73000000Y-70120000D03*
X73000000Y-72660000D03*
X73000000Y-75200000D03*
X73000000Y-77740000D03*
X73000000Y-80280000D03*
X73000000Y-82820000D03*
X73000000Y-85360000D03*
X73000000Y-87900000D03*
X73000000Y-90440000D03*
X73000000Y-92980000D03*
X73000000Y-95520000D03*
X73000000Y-98060000D03*
X73000000Y-100600000D03*
%TD*%
D18*
%TO.C,C6*%
X105800000Y-109500000D03*
X110800000Y-109500000D03*
%TD*%
%TO.C,R7*%
X106400000Y-143100000D03*
D19*
X106400000Y-150720000D03*
%TD*%
D18*
%TO.C,TH4*%
X124700000Y-76800000D03*
X122200000Y-76800000D03*
%TD*%
D22*
%TO.C,J8*%
X123300000Y-51600000D03*
D23*
X120760000Y-51600000D03*
X123300000Y-54140000D03*
X120760000Y-54140000D03*
X123300000Y-56680000D03*
X120760000Y-56680000D03*
X123300000Y-59220000D03*
X120760000Y-59220000D03*
X123300000Y-61760000D03*
X120760000Y-61760000D03*
X123300000Y-64300000D03*
X120760000Y-64300000D03*
X123300000Y-66840000D03*
X120760000Y-66840000D03*
X123300000Y-69380000D03*
X120760000Y-69380000D03*
%TD*%
D18*
%TO.C,R11*%
X119250000Y-95600000D03*
D19*
X111630000Y-95600000D03*
%TD*%
D24*
%TO.C,C2*%
X121900000Y-135100000D03*
D18*
X124400000Y-135100000D03*
%TD*%
%TO.C,R1*%
X119250000Y-89300000D03*
D19*
X111630000Y-89300000D03*
%TD*%
D18*
%TO.C,R14*%
X120200000Y-147300000D03*
D19*
X127820000Y-147300000D03*
%TD*%
D18*
%TO.C,TH3*%
X122200000Y-80100000D03*
X124700000Y-80100000D03*
%TD*%
D25*
%TO.C,J7*%
X113600000Y-61450000D03*
D26*
X113600000Y-58950000D03*
X113600000Y-56450000D03*
X113600000Y-53950000D03*
X113600000Y-51450000D03*
X113600000Y-48950000D03*
%TD*%
D18*
%TO.C,R2*%
X119250000Y-86150000D03*
D19*
X111630000Y-86150000D03*
%TD*%
D24*
%TO.C,U1*%
X117400000Y-135100000D03*
D19*
X117400000Y-137640000D03*
X117400000Y-140180000D03*
X117400000Y-142720000D03*
X117400000Y-145260000D03*
X117400000Y-147800000D03*
X117400000Y-150340000D03*
X109780000Y-150340000D03*
X109780000Y-147800000D03*
X109780000Y-145260000D03*
X109780000Y-142720000D03*
X109780000Y-140180000D03*
X109780000Y-137640000D03*
X109780000Y-135100000D03*
%TD*%
D18*
%TO.C,C1*%
X110800000Y-106000000D03*
X105800000Y-106000000D03*
%TD*%
%TO.C,R8*%
X122600000Y-125350000D03*
D19*
X114980000Y-125350000D03*
%TD*%
D18*
%TO.C,R6*%
X119250000Y-92450000D03*
D19*
X111630000Y-92450000D03*
%TD*%
D24*
%TO.C,C3*%
X116300000Y-108700000D03*
D18*
X116300000Y-106200000D03*
%TD*%
D24*
%TO.C,U2*%
X110600000Y-113100000D03*
D19*
X110600000Y-115640000D03*
X110600000Y-118180000D03*
X110600000Y-120720000D03*
X110600000Y-123260000D03*
X110600000Y-125800000D03*
X110600000Y-128340000D03*
X102980000Y-128340000D03*
X102980000Y-125800000D03*
X102980000Y-123260000D03*
X102980000Y-120720000D03*
X102980000Y-118180000D03*
X102980000Y-115640000D03*
X102980000Y-113100000D03*
%TD*%
D18*
%TO.C,R5*%
X111650000Y-83000000D03*
D19*
X119270000Y-83000000D03*
%TD*%
D18*
%TO.C,R16*%
X103000000Y-140800000D03*
D19*
X103000000Y-133180000D03*
%TD*%
D27*
%TO.C,Q1*%
X124700000Y-91300000D03*
D28*
X123430000Y-91300000D03*
X122160000Y-91300000D03*
%TD*%
D18*
%TO.C,R3*%
X119250000Y-79850000D03*
D19*
X111630000Y-79850000D03*
%TD*%
D18*
%TO.C,R13*%
X120200000Y-144100000D03*
D19*
X127820000Y-144100000D03*
%TD*%
D18*
%TO.C,TH1*%
X124750000Y-86700000D03*
X122250000Y-86700000D03*
%TD*%
%TO.C,R4*%
X119250000Y-76700000D03*
D19*
X111630000Y-76700000D03*
%TD*%
D18*
%TO.C,TH2*%
X124750000Y-83400000D03*
X122250000Y-83400000D03*
%TD*%
D27*
%TO.C,Q2*%
X122200000Y-95600000D03*
D28*
X123470000Y-95600000D03*
X124740000Y-95600000D03*
%TD*%
D24*
%TO.C,C4*%
X111700000Y-69700000D03*
D18*
X114200000Y-69700000D03*
%TD*%
D24*
%TO.C,C5*%
X105100000Y-48950000D03*
D18*
X105100000Y-51450000D03*
%TD*%
%TO.C,R10*%
X111600000Y-101900000D03*
D19*
X119220000Y-101900000D03*
%TD*%
D18*
%TO.C,R9*%
X122550000Y-128450000D03*
D19*
X114930000Y-128450000D03*
%TD*%
D24*
%TO.C,D2*%
X115000000Y-122300000D03*
D19*
X122620000Y-122300000D03*
%TD*%
D18*
%TO.C,R12*%
X119250000Y-98750000D03*
D19*
X111630000Y-98750000D03*
%TD*%
D18*
%TO.C,C8*%
X106400000Y-135500000D03*
X106400000Y-140500000D03*
%TD*%
%TO.C,R17*%
X103000000Y-150800000D03*
D19*
X103000000Y-143180000D03*
%TD*%
D18*
%TO.C,R15*%
X120200000Y-150500000D03*
D19*
X127820000Y-150500000D03*
%TD*%
D24*
%TO.C,D1*%
X122600000Y-119500000D03*
D19*
X114980000Y-119500000D03*
%TD*%
M02*
