%TF.GenerationSoftware,KiCad,Pcbnew,7.0.9*%
%TF.CreationDate,2023-12-08T22:38:10+01:00*%
%TF.ProjectId,MiniOSC-handscore,4d696e69-4f53-4432-9d68-616e6473636f,rev?*%
%TF.SameCoordinates,Original*%
%TF.FileFunction,Drillmap*%
%TF.FilePolarity,Positive*%
%FSLAX45Y45*%
G04 Gerber Fmt 4.5, Leading zero omitted, Abs format (unit mm)*
G04 Created by KiCad (PCBNEW 7.0.9) date 2023-12-08 22:38:10*
%MOMM*%
%LPD*%
G01*
G04 APERTURE LIST*
%ADD10C,0.100000*%
%ADD11C,0.200000*%
%ADD12C,0.320000*%
G04 APERTURE END LIST*
D10*
X13010000Y-4500000D02*
X4000000Y-4500000D01*
X4000000Y-17350000D01*
X13010000Y-17350000D01*
X13010000Y-4500000D01*
X4900000Y-14050000D02*
G75*
G03*
X4900000Y-14050000I-300000J0D01*
G01*
X5600000Y-15600000D02*
G75*
G03*
X5600000Y-15600000I-300000J0D01*
G01*
X6300000Y-10950000D02*
G75*
G03*
X6300000Y-10950000I-400000J0D01*
G01*
X4904138Y-12100000D02*
G75*
G03*
X4904138Y-12100000I-304138J0D01*
G01*
X6704138Y-15600000D02*
G75*
G03*
X6704138Y-15600000I-304138J0D01*
G01*
X5550000Y-6600000D02*
G75*
G03*
X5550000Y-6600000I-400000J0D01*
G01*
X4550000Y-15800000D02*
G75*
G03*
X4550000Y-15800000I-150000J0D01*
G01*
X6300000Y-13200000D02*
G75*
G03*
X6300000Y-13200000I-400000J0D01*
G01*
X6675000Y-7100000D02*
G75*
G03*
X6675000Y-7100000I-150000J0D01*
G01*
X6300000Y-8750000D02*
G75*
G03*
X6300000Y-8750000I-400000J0D01*
G01*
D11*
D12*
X9120000Y-11040000D02*
X9440000Y-11360000D01*
X9440000Y-11040000D02*
X9120000Y-11360000D01*
X12150000Y-11040000D02*
X12470000Y-11360000D01*
X12470000Y-11040000D02*
X12150000Y-11360000D01*
D11*
X4255777Y-17666484D02*
X4255777Y-17466484D01*
X4255777Y-17466484D02*
X4303396Y-17466484D01*
X4303396Y-17466484D02*
X4331967Y-17476008D01*
X4331967Y-17476008D02*
X4351015Y-17495055D01*
X4351015Y-17495055D02*
X4360539Y-17514103D01*
X4360539Y-17514103D02*
X4370063Y-17552198D01*
X4370063Y-17552198D02*
X4370063Y-17580770D01*
X4370063Y-17580770D02*
X4360539Y-17618865D01*
X4360539Y-17618865D02*
X4351015Y-17637912D01*
X4351015Y-17637912D02*
X4331967Y-17656960D01*
X4331967Y-17656960D02*
X4303396Y-17666484D01*
X4303396Y-17666484D02*
X4255777Y-17666484D01*
X4455777Y-17666484D02*
X4455777Y-17533150D01*
X4455777Y-17571246D02*
X4465301Y-17552198D01*
X4465301Y-17552198D02*
X4474824Y-17542674D01*
X4474824Y-17542674D02*
X4493872Y-17533150D01*
X4493872Y-17533150D02*
X4512920Y-17533150D01*
X4579586Y-17666484D02*
X4579586Y-17533150D01*
X4579586Y-17466484D02*
X4570063Y-17476008D01*
X4570063Y-17476008D02*
X4579586Y-17485531D01*
X4579586Y-17485531D02*
X4589110Y-17476008D01*
X4589110Y-17476008D02*
X4579586Y-17466484D01*
X4579586Y-17466484D02*
X4579586Y-17485531D01*
X4703396Y-17666484D02*
X4684348Y-17656960D01*
X4684348Y-17656960D02*
X4674824Y-17637912D01*
X4674824Y-17637912D02*
X4674824Y-17466484D01*
X4808158Y-17666484D02*
X4789110Y-17656960D01*
X4789110Y-17656960D02*
X4779586Y-17637912D01*
X4779586Y-17637912D02*
X4779586Y-17466484D01*
X5036729Y-17666484D02*
X5036729Y-17466484D01*
X5036729Y-17466484D02*
X5103396Y-17609341D01*
X5103396Y-17609341D02*
X5170063Y-17466484D01*
X5170063Y-17466484D02*
X5170063Y-17666484D01*
X5351015Y-17666484D02*
X5351015Y-17561722D01*
X5351015Y-17561722D02*
X5341491Y-17542674D01*
X5341491Y-17542674D02*
X5322444Y-17533150D01*
X5322444Y-17533150D02*
X5284348Y-17533150D01*
X5284348Y-17533150D02*
X5265301Y-17542674D01*
X5351015Y-17656960D02*
X5331967Y-17666484D01*
X5331967Y-17666484D02*
X5284348Y-17666484D01*
X5284348Y-17666484D02*
X5265301Y-17656960D01*
X5265301Y-17656960D02*
X5255777Y-17637912D01*
X5255777Y-17637912D02*
X5255777Y-17618865D01*
X5255777Y-17618865D02*
X5265301Y-17599817D01*
X5265301Y-17599817D02*
X5284348Y-17590293D01*
X5284348Y-17590293D02*
X5331967Y-17590293D01*
X5331967Y-17590293D02*
X5351015Y-17580770D01*
X5446253Y-17533150D02*
X5446253Y-17733150D01*
X5446253Y-17542674D02*
X5465301Y-17533150D01*
X5465301Y-17533150D02*
X5503396Y-17533150D01*
X5503396Y-17533150D02*
X5522444Y-17542674D01*
X5522444Y-17542674D02*
X5531967Y-17552198D01*
X5531967Y-17552198D02*
X5541491Y-17571246D01*
X5541491Y-17571246D02*
X5541491Y-17628389D01*
X5541491Y-17628389D02*
X5531967Y-17647436D01*
X5531967Y-17647436D02*
X5522444Y-17656960D01*
X5522444Y-17656960D02*
X5503396Y-17666484D01*
X5503396Y-17666484D02*
X5465301Y-17666484D01*
X5465301Y-17666484D02*
X5446253Y-17656960D01*
X5627205Y-17647436D02*
X5636729Y-17656960D01*
X5636729Y-17656960D02*
X5627205Y-17666484D01*
X5627205Y-17666484D02*
X5617682Y-17656960D01*
X5617682Y-17656960D02*
X5627205Y-17647436D01*
X5627205Y-17647436D02*
X5627205Y-17666484D01*
X5627205Y-17542674D02*
X5636729Y-17552198D01*
X5636729Y-17552198D02*
X5627205Y-17561722D01*
X5627205Y-17561722D02*
X5617682Y-17552198D01*
X5617682Y-17552198D02*
X5627205Y-17542674D01*
X5627205Y-17542674D02*
X5627205Y-17561722D01*
X3795000Y-17895000D02*
X3995000Y-18095000D01*
X3995000Y-17895000D02*
X3795000Y-18095000D01*
X4236729Y-17886484D02*
X4360539Y-17886484D01*
X4360539Y-17886484D02*
X4293872Y-17962674D01*
X4293872Y-17962674D02*
X4322444Y-17962674D01*
X4322444Y-17962674D02*
X4341491Y-17972198D01*
X4341491Y-17972198D02*
X4351015Y-17981722D01*
X4351015Y-17981722D02*
X4360539Y-18000770D01*
X4360539Y-18000770D02*
X4360539Y-18048389D01*
X4360539Y-18048389D02*
X4351015Y-18067436D01*
X4351015Y-18067436D02*
X4341491Y-18076960D01*
X4341491Y-18076960D02*
X4322444Y-18086484D01*
X4322444Y-18086484D02*
X4265301Y-18086484D01*
X4265301Y-18086484D02*
X4246253Y-18076960D01*
X4246253Y-18076960D02*
X4236729Y-18067436D01*
X4446253Y-18067436D02*
X4455777Y-18076960D01*
X4455777Y-18076960D02*
X4446253Y-18086484D01*
X4446253Y-18086484D02*
X4436729Y-18076960D01*
X4436729Y-18076960D02*
X4446253Y-18067436D01*
X4446253Y-18067436D02*
X4446253Y-18086484D01*
X4531967Y-17905531D02*
X4541491Y-17896008D01*
X4541491Y-17896008D02*
X4560539Y-17886484D01*
X4560539Y-17886484D02*
X4608158Y-17886484D01*
X4608158Y-17886484D02*
X4627205Y-17896008D01*
X4627205Y-17896008D02*
X4636729Y-17905531D01*
X4636729Y-17905531D02*
X4646253Y-17924579D01*
X4646253Y-17924579D02*
X4646253Y-17943627D01*
X4646253Y-17943627D02*
X4636729Y-17972198D01*
X4636729Y-17972198D02*
X4522444Y-18086484D01*
X4522444Y-18086484D02*
X4646253Y-18086484D01*
X4770063Y-17886484D02*
X4789110Y-17886484D01*
X4789110Y-17886484D02*
X4808158Y-17896008D01*
X4808158Y-17896008D02*
X4817682Y-17905531D01*
X4817682Y-17905531D02*
X4827205Y-17924579D01*
X4827205Y-17924579D02*
X4836729Y-17962674D01*
X4836729Y-17962674D02*
X4836729Y-18010293D01*
X4836729Y-18010293D02*
X4827205Y-18048389D01*
X4827205Y-18048389D02*
X4817682Y-18067436D01*
X4817682Y-18067436D02*
X4808158Y-18076960D01*
X4808158Y-18076960D02*
X4789110Y-18086484D01*
X4789110Y-18086484D02*
X4770063Y-18086484D01*
X4770063Y-18086484D02*
X4751015Y-18076960D01*
X4751015Y-18076960D02*
X4741491Y-18067436D01*
X4741491Y-18067436D02*
X4731967Y-18048389D01*
X4731967Y-18048389D02*
X4722444Y-18010293D01*
X4722444Y-18010293D02*
X4722444Y-17962674D01*
X4722444Y-17962674D02*
X4731967Y-17924579D01*
X4731967Y-17924579D02*
X4741491Y-17905531D01*
X4741491Y-17905531D02*
X4751015Y-17896008D01*
X4751015Y-17896008D02*
X4770063Y-17886484D01*
X4960539Y-17886484D02*
X4979586Y-17886484D01*
X4979586Y-17886484D02*
X4998634Y-17896008D01*
X4998634Y-17896008D02*
X5008158Y-17905531D01*
X5008158Y-17905531D02*
X5017682Y-17924579D01*
X5017682Y-17924579D02*
X5027205Y-17962674D01*
X5027205Y-17962674D02*
X5027205Y-18010293D01*
X5027205Y-18010293D02*
X5017682Y-18048389D01*
X5017682Y-18048389D02*
X5008158Y-18067436D01*
X5008158Y-18067436D02*
X4998634Y-18076960D01*
X4998634Y-18076960D02*
X4979586Y-18086484D01*
X4979586Y-18086484D02*
X4960539Y-18086484D01*
X4960539Y-18086484D02*
X4941491Y-18076960D01*
X4941491Y-18076960D02*
X4931967Y-18067436D01*
X4931967Y-18067436D02*
X4922444Y-18048389D01*
X4922444Y-18048389D02*
X4912920Y-18010293D01*
X4912920Y-18010293D02*
X4912920Y-17962674D01*
X4912920Y-17962674D02*
X4922444Y-17924579D01*
X4922444Y-17924579D02*
X4931967Y-17905531D01*
X4931967Y-17905531D02*
X4941491Y-17896008D01*
X4941491Y-17896008D02*
X4960539Y-17886484D01*
X5112920Y-18086484D02*
X5112920Y-17953150D01*
X5112920Y-17972198D02*
X5122444Y-17962674D01*
X5122444Y-17962674D02*
X5141491Y-17953150D01*
X5141491Y-17953150D02*
X5170063Y-17953150D01*
X5170063Y-17953150D02*
X5189110Y-17962674D01*
X5189110Y-17962674D02*
X5198634Y-17981722D01*
X5198634Y-17981722D02*
X5198634Y-18086484D01*
X5198634Y-17981722D02*
X5208158Y-17962674D01*
X5208158Y-17962674D02*
X5227205Y-17953150D01*
X5227205Y-17953150D02*
X5255777Y-17953150D01*
X5255777Y-17953150D02*
X5274825Y-17962674D01*
X5274825Y-17962674D02*
X5284348Y-17981722D01*
X5284348Y-17981722D02*
X5284348Y-18086484D01*
X5379586Y-18086484D02*
X5379586Y-17953150D01*
X5379586Y-17972198D02*
X5389110Y-17962674D01*
X5389110Y-17962674D02*
X5408158Y-17953150D01*
X5408158Y-17953150D02*
X5436729Y-17953150D01*
X5436729Y-17953150D02*
X5455777Y-17962674D01*
X5455777Y-17962674D02*
X5465301Y-17981722D01*
X5465301Y-17981722D02*
X5465301Y-18086484D01*
X5465301Y-17981722D02*
X5474825Y-17962674D01*
X5474825Y-17962674D02*
X5493872Y-17953150D01*
X5493872Y-17953150D02*
X5522444Y-17953150D01*
X5522444Y-17953150D02*
X5541491Y-17962674D01*
X5541491Y-17962674D02*
X5551015Y-17981722D01*
X5551015Y-17981722D02*
X5551015Y-18086484D01*
X5941491Y-17876960D02*
X5770063Y-18134103D01*
X6198634Y-17886484D02*
X6217682Y-17886484D01*
X6217682Y-17886484D02*
X6236729Y-17896008D01*
X6236729Y-17896008D02*
X6246253Y-17905531D01*
X6246253Y-17905531D02*
X6255777Y-17924579D01*
X6255777Y-17924579D02*
X6265301Y-17962674D01*
X6265301Y-17962674D02*
X6265301Y-18010293D01*
X6265301Y-18010293D02*
X6255777Y-18048389D01*
X6255777Y-18048389D02*
X6246253Y-18067436D01*
X6246253Y-18067436D02*
X6236729Y-18076960D01*
X6236729Y-18076960D02*
X6217682Y-18086484D01*
X6217682Y-18086484D02*
X6198634Y-18086484D01*
X6198634Y-18086484D02*
X6179586Y-18076960D01*
X6179586Y-18076960D02*
X6170063Y-18067436D01*
X6170063Y-18067436D02*
X6160539Y-18048389D01*
X6160539Y-18048389D02*
X6151015Y-18010293D01*
X6151015Y-18010293D02*
X6151015Y-17962674D01*
X6151015Y-17962674D02*
X6160539Y-17924579D01*
X6160539Y-17924579D02*
X6170063Y-17905531D01*
X6170063Y-17905531D02*
X6179586Y-17896008D01*
X6179586Y-17896008D02*
X6198634Y-17886484D01*
X6351015Y-18067436D02*
X6360539Y-18076960D01*
X6360539Y-18076960D02*
X6351015Y-18086484D01*
X6351015Y-18086484D02*
X6341491Y-18076960D01*
X6341491Y-18076960D02*
X6351015Y-18067436D01*
X6351015Y-18067436D02*
X6351015Y-18086484D01*
X6551015Y-18086484D02*
X6436729Y-18086484D01*
X6493872Y-18086484D02*
X6493872Y-17886484D01*
X6493872Y-17886484D02*
X6474825Y-17915055D01*
X6474825Y-17915055D02*
X6455777Y-17934103D01*
X6455777Y-17934103D02*
X6436729Y-17943627D01*
X6627206Y-17905531D02*
X6636729Y-17896008D01*
X6636729Y-17896008D02*
X6655777Y-17886484D01*
X6655777Y-17886484D02*
X6703396Y-17886484D01*
X6703396Y-17886484D02*
X6722444Y-17896008D01*
X6722444Y-17896008D02*
X6731967Y-17905531D01*
X6731967Y-17905531D02*
X6741491Y-17924579D01*
X6741491Y-17924579D02*
X6741491Y-17943627D01*
X6741491Y-17943627D02*
X6731967Y-17972198D01*
X6731967Y-17972198D02*
X6617682Y-18086484D01*
X6617682Y-18086484D02*
X6741491Y-18086484D01*
X6912920Y-17886484D02*
X6874825Y-17886484D01*
X6874825Y-17886484D02*
X6855777Y-17896008D01*
X6855777Y-17896008D02*
X6846253Y-17905531D01*
X6846253Y-17905531D02*
X6827206Y-17934103D01*
X6827206Y-17934103D02*
X6817682Y-17972198D01*
X6817682Y-17972198D02*
X6817682Y-18048389D01*
X6817682Y-18048389D02*
X6827206Y-18067436D01*
X6827206Y-18067436D02*
X6836729Y-18076960D01*
X6836729Y-18076960D02*
X6855777Y-18086484D01*
X6855777Y-18086484D02*
X6893872Y-18086484D01*
X6893872Y-18086484D02*
X6912920Y-18076960D01*
X6912920Y-18076960D02*
X6922444Y-18067436D01*
X6922444Y-18067436D02*
X6931967Y-18048389D01*
X6931967Y-18048389D02*
X6931967Y-18000770D01*
X6931967Y-18000770D02*
X6922444Y-17981722D01*
X6922444Y-17981722D02*
X6912920Y-17972198D01*
X6912920Y-17972198D02*
X6893872Y-17962674D01*
X6893872Y-17962674D02*
X6855777Y-17962674D01*
X6855777Y-17962674D02*
X6836729Y-17972198D01*
X6836729Y-17972198D02*
X6827206Y-17981722D01*
X6827206Y-17981722D02*
X6817682Y-18000770D01*
X7055777Y-17886484D02*
X7074825Y-17886484D01*
X7074825Y-17886484D02*
X7093872Y-17896008D01*
X7093872Y-17896008D02*
X7103396Y-17905531D01*
X7103396Y-17905531D02*
X7112920Y-17924579D01*
X7112920Y-17924579D02*
X7122444Y-17962674D01*
X7122444Y-17962674D02*
X7122444Y-18010293D01*
X7122444Y-18010293D02*
X7112920Y-18048389D01*
X7112920Y-18048389D02*
X7103396Y-18067436D01*
X7103396Y-18067436D02*
X7093872Y-18076960D01*
X7093872Y-18076960D02*
X7074825Y-18086484D01*
X7074825Y-18086484D02*
X7055777Y-18086484D01*
X7055777Y-18086484D02*
X7036729Y-18076960D01*
X7036729Y-18076960D02*
X7027206Y-18067436D01*
X7027206Y-18067436D02*
X7017682Y-18048389D01*
X7017682Y-18048389D02*
X7008158Y-18010293D01*
X7008158Y-18010293D02*
X7008158Y-17962674D01*
X7008158Y-17962674D02*
X7017682Y-17924579D01*
X7017682Y-17924579D02*
X7027206Y-17905531D01*
X7027206Y-17905531D02*
X7036729Y-17896008D01*
X7036729Y-17896008D02*
X7055777Y-17886484D01*
X7198634Y-17886484D02*
X7198634Y-17924579D01*
X7274825Y-17886484D02*
X7274825Y-17924579D01*
X7570063Y-18162674D02*
X7560539Y-18153150D01*
X7560539Y-18153150D02*
X7541491Y-18124579D01*
X7541491Y-18124579D02*
X7531968Y-18105531D01*
X7531968Y-18105531D02*
X7522444Y-18076960D01*
X7522444Y-18076960D02*
X7512920Y-18029341D01*
X7512920Y-18029341D02*
X7512920Y-17991246D01*
X7512920Y-17991246D02*
X7522444Y-17943627D01*
X7522444Y-17943627D02*
X7531968Y-17915055D01*
X7531968Y-17915055D02*
X7541491Y-17896008D01*
X7541491Y-17896008D02*
X7560539Y-17867436D01*
X7560539Y-17867436D02*
X7570063Y-17857912D01*
X7636729Y-17905531D02*
X7646253Y-17896008D01*
X7646253Y-17896008D02*
X7665301Y-17886484D01*
X7665301Y-17886484D02*
X7712920Y-17886484D01*
X7712920Y-17886484D02*
X7731968Y-17896008D01*
X7731968Y-17896008D02*
X7741491Y-17905531D01*
X7741491Y-17905531D02*
X7751015Y-17924579D01*
X7751015Y-17924579D02*
X7751015Y-17943627D01*
X7751015Y-17943627D02*
X7741491Y-17972198D01*
X7741491Y-17972198D02*
X7627206Y-18086484D01*
X7627206Y-18086484D02*
X7751015Y-18086484D01*
X7989110Y-18086484D02*
X7989110Y-17886484D01*
X8074825Y-18086484D02*
X8074825Y-17981722D01*
X8074825Y-17981722D02*
X8065301Y-17962674D01*
X8065301Y-17962674D02*
X8046253Y-17953150D01*
X8046253Y-17953150D02*
X8017682Y-17953150D01*
X8017682Y-17953150D02*
X7998634Y-17962674D01*
X7998634Y-17962674D02*
X7989110Y-17972198D01*
X8198634Y-18086484D02*
X8179587Y-18076960D01*
X8179587Y-18076960D02*
X8170063Y-18067436D01*
X8170063Y-18067436D02*
X8160539Y-18048389D01*
X8160539Y-18048389D02*
X8160539Y-17991246D01*
X8160539Y-17991246D02*
X8170063Y-17972198D01*
X8170063Y-17972198D02*
X8179587Y-17962674D01*
X8179587Y-17962674D02*
X8198634Y-17953150D01*
X8198634Y-17953150D02*
X8227206Y-17953150D01*
X8227206Y-17953150D02*
X8246253Y-17962674D01*
X8246253Y-17962674D02*
X8255777Y-17972198D01*
X8255777Y-17972198D02*
X8265301Y-17991246D01*
X8265301Y-17991246D02*
X8265301Y-18048389D01*
X8265301Y-18048389D02*
X8255777Y-18067436D01*
X8255777Y-18067436D02*
X8246253Y-18076960D01*
X8246253Y-18076960D02*
X8227206Y-18086484D01*
X8227206Y-18086484D02*
X8198634Y-18086484D01*
X8379587Y-18086484D02*
X8360539Y-18076960D01*
X8360539Y-18076960D02*
X8351015Y-18057912D01*
X8351015Y-18057912D02*
X8351015Y-17886484D01*
X8531968Y-18076960D02*
X8512920Y-18086484D01*
X8512920Y-18086484D02*
X8474825Y-18086484D01*
X8474825Y-18086484D02*
X8455777Y-18076960D01*
X8455777Y-18076960D02*
X8446253Y-18057912D01*
X8446253Y-18057912D02*
X8446253Y-17981722D01*
X8446253Y-17981722D02*
X8455777Y-17962674D01*
X8455777Y-17962674D02*
X8474825Y-17953150D01*
X8474825Y-17953150D02*
X8512920Y-17953150D01*
X8512920Y-17953150D02*
X8531968Y-17962674D01*
X8531968Y-17962674D02*
X8541492Y-17981722D01*
X8541492Y-17981722D02*
X8541492Y-18000770D01*
X8541492Y-18000770D02*
X8446253Y-18019817D01*
X8617682Y-18076960D02*
X8636730Y-18086484D01*
X8636730Y-18086484D02*
X8674825Y-18086484D01*
X8674825Y-18086484D02*
X8693873Y-18076960D01*
X8693873Y-18076960D02*
X8703396Y-18057912D01*
X8703396Y-18057912D02*
X8703396Y-18048389D01*
X8703396Y-18048389D02*
X8693873Y-18029341D01*
X8693873Y-18029341D02*
X8674825Y-18019817D01*
X8674825Y-18019817D02*
X8646253Y-18019817D01*
X8646253Y-18019817D02*
X8627206Y-18010293D01*
X8627206Y-18010293D02*
X8617682Y-17991246D01*
X8617682Y-17991246D02*
X8617682Y-17981722D01*
X8617682Y-17981722D02*
X8627206Y-17962674D01*
X8627206Y-17962674D02*
X8646253Y-17953150D01*
X8646253Y-17953150D02*
X8674825Y-17953150D01*
X8674825Y-17953150D02*
X8693873Y-17962674D01*
X8770063Y-18162674D02*
X8779587Y-18153150D01*
X8779587Y-18153150D02*
X8798634Y-18124579D01*
X8798634Y-18124579D02*
X8808158Y-18105531D01*
X8808158Y-18105531D02*
X8817682Y-18076960D01*
X8817682Y-18076960D02*
X8827206Y-18029341D01*
X8827206Y-18029341D02*
X8827206Y-17991246D01*
X8827206Y-17991246D02*
X8817682Y-17943627D01*
X8817682Y-17943627D02*
X8808158Y-17915055D01*
X8808158Y-17915055D02*
X8798634Y-17896008D01*
X8798634Y-17896008D02*
X8779587Y-17867436D01*
X8779587Y-17867436D02*
X8770063Y-17857912D01*
X9131968Y-18162674D02*
X9122444Y-18153150D01*
X9122444Y-18153150D02*
X9103396Y-18124579D01*
X9103396Y-18124579D02*
X9093873Y-18105531D01*
X9093873Y-18105531D02*
X9084349Y-18076960D01*
X9084349Y-18076960D02*
X9074825Y-18029341D01*
X9074825Y-18029341D02*
X9074825Y-17991246D01*
X9074825Y-17991246D02*
X9084349Y-17943627D01*
X9084349Y-17943627D02*
X9093873Y-17915055D01*
X9093873Y-17915055D02*
X9103396Y-17896008D01*
X9103396Y-17896008D02*
X9122444Y-17867436D01*
X9122444Y-17867436D02*
X9131968Y-17857912D01*
X9208158Y-17953150D02*
X9208158Y-18086484D01*
X9208158Y-17972198D02*
X9217682Y-17962674D01*
X9217682Y-17962674D02*
X9236730Y-17953150D01*
X9236730Y-17953150D02*
X9265301Y-17953150D01*
X9265301Y-17953150D02*
X9284349Y-17962674D01*
X9284349Y-17962674D02*
X9293873Y-17981722D01*
X9293873Y-17981722D02*
X9293873Y-18086484D01*
X9417682Y-18086484D02*
X9398634Y-18076960D01*
X9398634Y-18076960D02*
X9389111Y-18067436D01*
X9389111Y-18067436D02*
X9379587Y-18048389D01*
X9379587Y-18048389D02*
X9379587Y-17991246D01*
X9379587Y-17991246D02*
X9389111Y-17972198D01*
X9389111Y-17972198D02*
X9398634Y-17962674D01*
X9398634Y-17962674D02*
X9417682Y-17953150D01*
X9417682Y-17953150D02*
X9446254Y-17953150D01*
X9446254Y-17953150D02*
X9465301Y-17962674D01*
X9465301Y-17962674D02*
X9474825Y-17972198D01*
X9474825Y-17972198D02*
X9484349Y-17991246D01*
X9484349Y-17991246D02*
X9484349Y-18048389D01*
X9484349Y-18048389D02*
X9474825Y-18067436D01*
X9474825Y-18067436D02*
X9465301Y-18076960D01*
X9465301Y-18076960D02*
X9446254Y-18086484D01*
X9446254Y-18086484D02*
X9417682Y-18086484D01*
X9541492Y-17953150D02*
X9617682Y-17953150D01*
X9570063Y-17886484D02*
X9570063Y-18057912D01*
X9570063Y-18057912D02*
X9579587Y-18076960D01*
X9579587Y-18076960D02*
X9598634Y-18086484D01*
X9598634Y-18086484D02*
X9617682Y-18086484D01*
X9836730Y-17953150D02*
X9836730Y-18153150D01*
X9836730Y-17962674D02*
X9855777Y-17953150D01*
X9855777Y-17953150D02*
X9893873Y-17953150D01*
X9893873Y-17953150D02*
X9912920Y-17962674D01*
X9912920Y-17962674D02*
X9922444Y-17972198D01*
X9922444Y-17972198D02*
X9931968Y-17991246D01*
X9931968Y-17991246D02*
X9931968Y-18048389D01*
X9931968Y-18048389D02*
X9922444Y-18067436D01*
X9922444Y-18067436D02*
X9912920Y-18076960D01*
X9912920Y-18076960D02*
X9893873Y-18086484D01*
X9893873Y-18086484D02*
X9855777Y-18086484D01*
X9855777Y-18086484D02*
X9836730Y-18076960D01*
X10046254Y-18086484D02*
X10027206Y-18076960D01*
X10027206Y-18076960D02*
X10017682Y-18057912D01*
X10017682Y-18057912D02*
X10017682Y-17886484D01*
X10208158Y-18086484D02*
X10208158Y-17981722D01*
X10208158Y-17981722D02*
X10198635Y-17962674D01*
X10198635Y-17962674D02*
X10179587Y-17953150D01*
X10179587Y-17953150D02*
X10141492Y-17953150D01*
X10141492Y-17953150D02*
X10122444Y-17962674D01*
X10208158Y-18076960D02*
X10189111Y-18086484D01*
X10189111Y-18086484D02*
X10141492Y-18086484D01*
X10141492Y-18086484D02*
X10122444Y-18076960D01*
X10122444Y-18076960D02*
X10112920Y-18057912D01*
X10112920Y-18057912D02*
X10112920Y-18038865D01*
X10112920Y-18038865D02*
X10122444Y-18019817D01*
X10122444Y-18019817D02*
X10141492Y-18010293D01*
X10141492Y-18010293D02*
X10189111Y-18010293D01*
X10189111Y-18010293D02*
X10208158Y-18000770D01*
X10274825Y-17953150D02*
X10351015Y-17953150D01*
X10303396Y-17886484D02*
X10303396Y-18057912D01*
X10303396Y-18057912D02*
X10312920Y-18076960D01*
X10312920Y-18076960D02*
X10331968Y-18086484D01*
X10331968Y-18086484D02*
X10351015Y-18086484D01*
X10493873Y-18076960D02*
X10474825Y-18086484D01*
X10474825Y-18086484D02*
X10436730Y-18086484D01*
X10436730Y-18086484D02*
X10417682Y-18076960D01*
X10417682Y-18076960D02*
X10408158Y-18057912D01*
X10408158Y-18057912D02*
X10408158Y-17981722D01*
X10408158Y-17981722D02*
X10417682Y-17962674D01*
X10417682Y-17962674D02*
X10436730Y-17953150D01*
X10436730Y-17953150D02*
X10474825Y-17953150D01*
X10474825Y-17953150D02*
X10493873Y-17962674D01*
X10493873Y-17962674D02*
X10503396Y-17981722D01*
X10503396Y-17981722D02*
X10503396Y-18000770D01*
X10503396Y-18000770D02*
X10408158Y-18019817D01*
X10674825Y-18086484D02*
X10674825Y-17886484D01*
X10674825Y-18076960D02*
X10655777Y-18086484D01*
X10655777Y-18086484D02*
X10617682Y-18086484D01*
X10617682Y-18086484D02*
X10598635Y-18076960D01*
X10598635Y-18076960D02*
X10589111Y-18067436D01*
X10589111Y-18067436D02*
X10579587Y-18048389D01*
X10579587Y-18048389D02*
X10579587Y-17991246D01*
X10579587Y-17991246D02*
X10589111Y-17972198D01*
X10589111Y-17972198D02*
X10598635Y-17962674D01*
X10598635Y-17962674D02*
X10617682Y-17953150D01*
X10617682Y-17953150D02*
X10655777Y-17953150D01*
X10655777Y-17953150D02*
X10674825Y-17962674D01*
X10751016Y-18162674D02*
X10760539Y-18153150D01*
X10760539Y-18153150D02*
X10779587Y-18124579D01*
X10779587Y-18124579D02*
X10789111Y-18105531D01*
X10789111Y-18105531D02*
X10798635Y-18076960D01*
X10798635Y-18076960D02*
X10808158Y-18029341D01*
X10808158Y-18029341D02*
X10808158Y-17991246D01*
X10808158Y-17991246D02*
X10798635Y-17943627D01*
X10798635Y-17943627D02*
X10789111Y-17915055D01*
X10789111Y-17915055D02*
X10779587Y-17896008D01*
X10779587Y-17896008D02*
X10760539Y-17867436D01*
X10760539Y-17867436D02*
X10751016Y-17857912D01*
M02*
