%TF.GenerationSoftware,KiCad,Pcbnew,7.0.9*%
%TF.CreationDate,2023-12-20T21:32:29+01:00*%
%TF.ProjectId,MiniOSC-handscore,4d696e69-4f53-4432-9d68-616e6473636f,rev?*%
%TF.SameCoordinates,Original*%
%TF.FileFunction,Legend,Top*%
%TF.FilePolarity,Positive*%
%FSLAX46Y46*%
G04 Gerber Fmt 4.6, Leading zero omitted, Abs format (unit mm)*
G04 Created by KiCad (PCBNEW 7.0.9) date 2023-12-20 21:32:29*
%MOMM*%
%LPD*%
G01*
G04 APERTURE LIST*
%ADD10C,0.300000*%
%ADD11C,0.150000*%
%ADD12C,0.100000*%
%ADD13C,0.500000*%
%ADD14C,0.120000*%
G04 APERTURE END LIST*
D10*
X48500000Y-119500000D02*
X51500000Y-116500000D01*
X69500000Y-167500000D02*
X69500000Y-66500000D01*
X69500000Y-45500000D02*
X69500000Y-66500000D01*
X69000626Y-109611874D02*
G75*
G03*
X69000626Y-109611874I-10000626J0D01*
G01*
D11*
X129600000Y-153500000D02*
X70525000Y-153500000D01*
D10*
X61512492Y-66012492D02*
G75*
G03*
X61512492Y-66012492I-10012492J0D01*
G01*
X64000000Y-153000000D02*
X64000000Y-144000000D01*
D11*
X46500000Y-162000000D02*
X41500000Y-162000000D01*
X41500000Y-155500000D02*
X46500000Y-155500000D01*
X70000000Y-173000000D02*
X70000000Y-45500000D01*
D10*
X69000000Y-132000000D02*
G75*
G03*
X69000000Y-132000000I-10000000J0D01*
G01*
X40500000Y-45500000D02*
X69500000Y-45500000D01*
D11*
X46500000Y-155500000D02*
X46500000Y-162000000D01*
D10*
X40500000Y-167500000D02*
X69500000Y-167500000D01*
X46300000Y-45600000D02*
X69300000Y-68500000D01*
X40500000Y-45500000D02*
X40500000Y-167500000D01*
D11*
X100050000Y-153000000D02*
X100050000Y-45250000D01*
D10*
X64000000Y-144000000D02*
X62800000Y-141600000D01*
D11*
X41500000Y-162000000D02*
X41500000Y-155500000D01*
D10*
X69000000Y-87000000D02*
G75*
G03*
X69000000Y-87000000I-10000000J0D01*
G01*
D12*
X87593735Y-47614895D02*
X87593735Y-46814895D01*
X87593735Y-46814895D02*
X87860401Y-47386323D01*
X87860401Y-47386323D02*
X88127068Y-46814895D01*
X88127068Y-46814895D02*
X88127068Y-47614895D01*
X88508021Y-47614895D02*
X88508021Y-47081561D01*
X88508021Y-46814895D02*
X88469925Y-46852990D01*
X88469925Y-46852990D02*
X88508021Y-46891085D01*
X88508021Y-46891085D02*
X88546116Y-46852990D01*
X88546116Y-46852990D02*
X88508021Y-46814895D01*
X88508021Y-46814895D02*
X88508021Y-46891085D01*
X88888973Y-47081561D02*
X88888973Y-47614895D01*
X88888973Y-47157752D02*
X88927068Y-47119657D01*
X88927068Y-47119657D02*
X89003258Y-47081561D01*
X89003258Y-47081561D02*
X89117544Y-47081561D01*
X89117544Y-47081561D02*
X89193735Y-47119657D01*
X89193735Y-47119657D02*
X89231830Y-47195847D01*
X89231830Y-47195847D02*
X89231830Y-47614895D01*
X89612783Y-47614895D02*
X89612783Y-47081561D01*
X89612783Y-46814895D02*
X89574687Y-46852990D01*
X89574687Y-46852990D02*
X89612783Y-46891085D01*
X89612783Y-46891085D02*
X89650878Y-46852990D01*
X89650878Y-46852990D02*
X89612783Y-46814895D01*
X89612783Y-46814895D02*
X89612783Y-46891085D01*
X90146116Y-46814895D02*
X90298497Y-46814895D01*
X90298497Y-46814895D02*
X90374687Y-46852990D01*
X90374687Y-46852990D02*
X90450878Y-46929180D01*
X90450878Y-46929180D02*
X90488973Y-47081561D01*
X90488973Y-47081561D02*
X90488973Y-47348228D01*
X90488973Y-47348228D02*
X90450878Y-47500609D01*
X90450878Y-47500609D02*
X90374687Y-47576800D01*
X90374687Y-47576800D02*
X90298497Y-47614895D01*
X90298497Y-47614895D02*
X90146116Y-47614895D01*
X90146116Y-47614895D02*
X90069925Y-47576800D01*
X90069925Y-47576800D02*
X89993735Y-47500609D01*
X89993735Y-47500609D02*
X89955639Y-47348228D01*
X89955639Y-47348228D02*
X89955639Y-47081561D01*
X89955639Y-47081561D02*
X89993735Y-46929180D01*
X89993735Y-46929180D02*
X90069925Y-46852990D01*
X90069925Y-46852990D02*
X90146116Y-46814895D01*
X90793734Y-47576800D02*
X90908020Y-47614895D01*
X90908020Y-47614895D02*
X91098496Y-47614895D01*
X91098496Y-47614895D02*
X91174687Y-47576800D01*
X91174687Y-47576800D02*
X91212782Y-47538704D01*
X91212782Y-47538704D02*
X91250877Y-47462514D01*
X91250877Y-47462514D02*
X91250877Y-47386323D01*
X91250877Y-47386323D02*
X91212782Y-47310133D01*
X91212782Y-47310133D02*
X91174687Y-47272038D01*
X91174687Y-47272038D02*
X91098496Y-47233942D01*
X91098496Y-47233942D02*
X90946115Y-47195847D01*
X90946115Y-47195847D02*
X90869925Y-47157752D01*
X90869925Y-47157752D02*
X90831830Y-47119657D01*
X90831830Y-47119657D02*
X90793734Y-47043466D01*
X90793734Y-47043466D02*
X90793734Y-46967276D01*
X90793734Y-46967276D02*
X90831830Y-46891085D01*
X90831830Y-46891085D02*
X90869925Y-46852990D01*
X90869925Y-46852990D02*
X90946115Y-46814895D01*
X90946115Y-46814895D02*
X91136592Y-46814895D01*
X91136592Y-46814895D02*
X91250877Y-46852990D01*
X92050878Y-47538704D02*
X92012782Y-47576800D01*
X92012782Y-47576800D02*
X91898497Y-47614895D01*
X91898497Y-47614895D02*
X91822306Y-47614895D01*
X91822306Y-47614895D02*
X91708020Y-47576800D01*
X91708020Y-47576800D02*
X91631830Y-47500609D01*
X91631830Y-47500609D02*
X91593735Y-47424419D01*
X91593735Y-47424419D02*
X91555639Y-47272038D01*
X91555639Y-47272038D02*
X91555639Y-47157752D01*
X91555639Y-47157752D02*
X91593735Y-47005371D01*
X91593735Y-47005371D02*
X91631830Y-46929180D01*
X91631830Y-46929180D02*
X91708020Y-46852990D01*
X91708020Y-46852990D02*
X91822306Y-46814895D01*
X91822306Y-46814895D02*
X91898497Y-46814895D01*
X91898497Y-46814895D02*
X92012782Y-46852990D01*
X92012782Y-46852990D02*
X92050878Y-46891085D01*
X93231830Y-47919657D02*
X93193735Y-47881561D01*
X93193735Y-47881561D02*
X93117544Y-47767276D01*
X93117544Y-47767276D02*
X93079449Y-47691085D01*
X93079449Y-47691085D02*
X93041354Y-47576800D01*
X93041354Y-47576800D02*
X93003259Y-47386323D01*
X93003259Y-47386323D02*
X93003259Y-47233942D01*
X93003259Y-47233942D02*
X93041354Y-47043466D01*
X93041354Y-47043466D02*
X93079449Y-46929180D01*
X93079449Y-46929180D02*
X93117544Y-46852990D01*
X93117544Y-46852990D02*
X93193735Y-46738704D01*
X93193735Y-46738704D02*
X93231830Y-46700609D01*
X93536592Y-47614895D02*
X93536592Y-47081561D01*
X93536592Y-47233942D02*
X93574687Y-47157752D01*
X93574687Y-47157752D02*
X93612782Y-47119657D01*
X93612782Y-47119657D02*
X93688973Y-47081561D01*
X93688973Y-47081561D02*
X93765163Y-47081561D01*
X94336592Y-47576800D02*
X94260401Y-47614895D01*
X94260401Y-47614895D02*
X94108020Y-47614895D01*
X94108020Y-47614895D02*
X94031830Y-47576800D01*
X94031830Y-47576800D02*
X93993734Y-47500609D01*
X93993734Y-47500609D02*
X93993734Y-47195847D01*
X93993734Y-47195847D02*
X94031830Y-47119657D01*
X94031830Y-47119657D02*
X94108020Y-47081561D01*
X94108020Y-47081561D02*
X94260401Y-47081561D01*
X94260401Y-47081561D02*
X94336592Y-47119657D01*
X94336592Y-47119657D02*
X94374687Y-47195847D01*
X94374687Y-47195847D02*
X94374687Y-47272038D01*
X94374687Y-47272038D02*
X93993734Y-47348228D01*
X94641353Y-47081561D02*
X94831829Y-47614895D01*
X94831829Y-47614895D02*
X95022306Y-47081561D01*
X96355639Y-47614895D02*
X95898496Y-47614895D01*
X96127068Y-47614895D02*
X96127068Y-46814895D01*
X96127068Y-46814895D02*
X96050877Y-46929180D01*
X96050877Y-46929180D02*
X95974687Y-47005371D01*
X95974687Y-47005371D02*
X95898496Y-47043466D01*
X96698497Y-47538704D02*
X96736592Y-47576800D01*
X96736592Y-47576800D02*
X96698497Y-47614895D01*
X96698497Y-47614895D02*
X96660401Y-47576800D01*
X96660401Y-47576800D02*
X96698497Y-47538704D01*
X96698497Y-47538704D02*
X96698497Y-47614895D01*
X97498496Y-47614895D02*
X97041353Y-47614895D01*
X97269925Y-47614895D02*
X97269925Y-46814895D01*
X97269925Y-46814895D02*
X97193734Y-46929180D01*
X97193734Y-46929180D02*
X97117544Y-47005371D01*
X97117544Y-47005371D02*
X97041353Y-47043466D01*
X97765163Y-47919657D02*
X97803258Y-47881561D01*
X97803258Y-47881561D02*
X97879449Y-47767276D01*
X97879449Y-47767276D02*
X97917544Y-47691085D01*
X97917544Y-47691085D02*
X97955639Y-47576800D01*
X97955639Y-47576800D02*
X97993735Y-47386323D01*
X97993735Y-47386323D02*
X97993735Y-47233942D01*
X97993735Y-47233942D02*
X97955639Y-47043466D01*
X97955639Y-47043466D02*
X97917544Y-46929180D01*
X97917544Y-46929180D02*
X97879449Y-46852990D01*
X97879449Y-46852990D02*
X97803258Y-46738704D01*
X97803258Y-46738704D02*
X97765163Y-46700609D01*
X118093735Y-47614895D02*
X118093735Y-46814895D01*
X118093735Y-46814895D02*
X118360401Y-47386323D01*
X118360401Y-47386323D02*
X118627068Y-46814895D01*
X118627068Y-46814895D02*
X118627068Y-47614895D01*
X119008021Y-47614895D02*
X119008021Y-47081561D01*
X119008021Y-46814895D02*
X118969925Y-46852990D01*
X118969925Y-46852990D02*
X119008021Y-46891085D01*
X119008021Y-46891085D02*
X119046116Y-46852990D01*
X119046116Y-46852990D02*
X119008021Y-46814895D01*
X119008021Y-46814895D02*
X119008021Y-46891085D01*
X119388973Y-47081561D02*
X119388973Y-47614895D01*
X119388973Y-47157752D02*
X119427068Y-47119657D01*
X119427068Y-47119657D02*
X119503258Y-47081561D01*
X119503258Y-47081561D02*
X119617544Y-47081561D01*
X119617544Y-47081561D02*
X119693735Y-47119657D01*
X119693735Y-47119657D02*
X119731830Y-47195847D01*
X119731830Y-47195847D02*
X119731830Y-47614895D01*
X120112783Y-47614895D02*
X120112783Y-47081561D01*
X120112783Y-46814895D02*
X120074687Y-46852990D01*
X120074687Y-46852990D02*
X120112783Y-46891085D01*
X120112783Y-46891085D02*
X120150878Y-46852990D01*
X120150878Y-46852990D02*
X120112783Y-46814895D01*
X120112783Y-46814895D02*
X120112783Y-46891085D01*
X120646116Y-46814895D02*
X120798497Y-46814895D01*
X120798497Y-46814895D02*
X120874687Y-46852990D01*
X120874687Y-46852990D02*
X120950878Y-46929180D01*
X120950878Y-46929180D02*
X120988973Y-47081561D01*
X120988973Y-47081561D02*
X120988973Y-47348228D01*
X120988973Y-47348228D02*
X120950878Y-47500609D01*
X120950878Y-47500609D02*
X120874687Y-47576800D01*
X120874687Y-47576800D02*
X120798497Y-47614895D01*
X120798497Y-47614895D02*
X120646116Y-47614895D01*
X120646116Y-47614895D02*
X120569925Y-47576800D01*
X120569925Y-47576800D02*
X120493735Y-47500609D01*
X120493735Y-47500609D02*
X120455639Y-47348228D01*
X120455639Y-47348228D02*
X120455639Y-47081561D01*
X120455639Y-47081561D02*
X120493735Y-46929180D01*
X120493735Y-46929180D02*
X120569925Y-46852990D01*
X120569925Y-46852990D02*
X120646116Y-46814895D01*
X121293734Y-47576800D02*
X121408020Y-47614895D01*
X121408020Y-47614895D02*
X121598496Y-47614895D01*
X121598496Y-47614895D02*
X121674687Y-47576800D01*
X121674687Y-47576800D02*
X121712782Y-47538704D01*
X121712782Y-47538704D02*
X121750877Y-47462514D01*
X121750877Y-47462514D02*
X121750877Y-47386323D01*
X121750877Y-47386323D02*
X121712782Y-47310133D01*
X121712782Y-47310133D02*
X121674687Y-47272038D01*
X121674687Y-47272038D02*
X121598496Y-47233942D01*
X121598496Y-47233942D02*
X121446115Y-47195847D01*
X121446115Y-47195847D02*
X121369925Y-47157752D01*
X121369925Y-47157752D02*
X121331830Y-47119657D01*
X121331830Y-47119657D02*
X121293734Y-47043466D01*
X121293734Y-47043466D02*
X121293734Y-46967276D01*
X121293734Y-46967276D02*
X121331830Y-46891085D01*
X121331830Y-46891085D02*
X121369925Y-46852990D01*
X121369925Y-46852990D02*
X121446115Y-46814895D01*
X121446115Y-46814895D02*
X121636592Y-46814895D01*
X121636592Y-46814895D02*
X121750877Y-46852990D01*
X122550878Y-47538704D02*
X122512782Y-47576800D01*
X122512782Y-47576800D02*
X122398497Y-47614895D01*
X122398497Y-47614895D02*
X122322306Y-47614895D01*
X122322306Y-47614895D02*
X122208020Y-47576800D01*
X122208020Y-47576800D02*
X122131830Y-47500609D01*
X122131830Y-47500609D02*
X122093735Y-47424419D01*
X122093735Y-47424419D02*
X122055639Y-47272038D01*
X122055639Y-47272038D02*
X122055639Y-47157752D01*
X122055639Y-47157752D02*
X122093735Y-47005371D01*
X122093735Y-47005371D02*
X122131830Y-46929180D01*
X122131830Y-46929180D02*
X122208020Y-46852990D01*
X122208020Y-46852990D02*
X122322306Y-46814895D01*
X122322306Y-46814895D02*
X122398497Y-46814895D01*
X122398497Y-46814895D02*
X122512782Y-46852990D01*
X122512782Y-46852990D02*
X122550878Y-46891085D01*
X123731830Y-47919657D02*
X123693735Y-47881561D01*
X123693735Y-47881561D02*
X123617544Y-47767276D01*
X123617544Y-47767276D02*
X123579449Y-47691085D01*
X123579449Y-47691085D02*
X123541354Y-47576800D01*
X123541354Y-47576800D02*
X123503259Y-47386323D01*
X123503259Y-47386323D02*
X123503259Y-47233942D01*
X123503259Y-47233942D02*
X123541354Y-47043466D01*
X123541354Y-47043466D02*
X123579449Y-46929180D01*
X123579449Y-46929180D02*
X123617544Y-46852990D01*
X123617544Y-46852990D02*
X123693735Y-46738704D01*
X123693735Y-46738704D02*
X123731830Y-46700609D01*
X124036592Y-47614895D02*
X124036592Y-47081561D01*
X124036592Y-47233942D02*
X124074687Y-47157752D01*
X124074687Y-47157752D02*
X124112782Y-47119657D01*
X124112782Y-47119657D02*
X124188973Y-47081561D01*
X124188973Y-47081561D02*
X124265163Y-47081561D01*
X124836592Y-47576800D02*
X124760401Y-47614895D01*
X124760401Y-47614895D02*
X124608020Y-47614895D01*
X124608020Y-47614895D02*
X124531830Y-47576800D01*
X124531830Y-47576800D02*
X124493734Y-47500609D01*
X124493734Y-47500609D02*
X124493734Y-47195847D01*
X124493734Y-47195847D02*
X124531830Y-47119657D01*
X124531830Y-47119657D02*
X124608020Y-47081561D01*
X124608020Y-47081561D02*
X124760401Y-47081561D01*
X124760401Y-47081561D02*
X124836592Y-47119657D01*
X124836592Y-47119657D02*
X124874687Y-47195847D01*
X124874687Y-47195847D02*
X124874687Y-47272038D01*
X124874687Y-47272038D02*
X124493734Y-47348228D01*
X125141353Y-47081561D02*
X125331829Y-47614895D01*
X125331829Y-47614895D02*
X125522306Y-47081561D01*
X126855639Y-47614895D02*
X126398496Y-47614895D01*
X126627068Y-47614895D02*
X126627068Y-46814895D01*
X126627068Y-46814895D02*
X126550877Y-46929180D01*
X126550877Y-46929180D02*
X126474687Y-47005371D01*
X126474687Y-47005371D02*
X126398496Y-47043466D01*
X127198497Y-47538704D02*
X127236592Y-47576800D01*
X127236592Y-47576800D02*
X127198497Y-47614895D01*
X127198497Y-47614895D02*
X127160401Y-47576800D01*
X127160401Y-47576800D02*
X127198497Y-47538704D01*
X127198497Y-47538704D02*
X127198497Y-47614895D01*
X127998496Y-47614895D02*
X127541353Y-47614895D01*
X127769925Y-47614895D02*
X127769925Y-46814895D01*
X127769925Y-46814895D02*
X127693734Y-46929180D01*
X127693734Y-46929180D02*
X127617544Y-47005371D01*
X127617544Y-47005371D02*
X127541353Y-47043466D01*
X128265163Y-47919657D02*
X128303258Y-47881561D01*
X128303258Y-47881561D02*
X128379449Y-47767276D01*
X128379449Y-47767276D02*
X128417544Y-47691085D01*
X128417544Y-47691085D02*
X128455639Y-47576800D01*
X128455639Y-47576800D02*
X128493735Y-47386323D01*
X128493735Y-47386323D02*
X128493735Y-47233942D01*
X128493735Y-47233942D02*
X128455639Y-47043466D01*
X128455639Y-47043466D02*
X128417544Y-46929180D01*
X128417544Y-46929180D02*
X128379449Y-46852990D01*
X128379449Y-46852990D02*
X128303258Y-46738704D01*
X128303258Y-46738704D02*
X128265163Y-46700609D01*
X89616669Y-48485300D02*
X89583335Y-48451966D01*
X89583335Y-48451966D02*
X89516669Y-48418633D01*
X89516669Y-48418633D02*
X89450002Y-48418633D01*
X89450002Y-48418633D02*
X89383335Y-48451966D01*
X89383335Y-48451966D02*
X89350002Y-48485300D01*
X89350002Y-48485300D02*
X89316669Y-48551966D01*
X89316669Y-48551966D02*
X89316669Y-48618633D01*
X89316669Y-48618633D02*
X89350002Y-48685300D01*
X89350002Y-48685300D02*
X89383335Y-48718633D01*
X89383335Y-48718633D02*
X89450002Y-48751966D01*
X89450002Y-48751966D02*
X89516669Y-48751966D01*
X89516669Y-48751966D02*
X89583335Y-48718633D01*
X89583335Y-48718633D02*
X89616669Y-48685300D01*
X89616669Y-48418633D02*
X89616669Y-48685300D01*
X89616669Y-48685300D02*
X89650002Y-48718633D01*
X89650002Y-48718633D02*
X89683335Y-48718633D01*
X89683335Y-48718633D02*
X89750002Y-48685300D01*
X89750002Y-48685300D02*
X89783335Y-48618633D01*
X89783335Y-48618633D02*
X89783335Y-48451966D01*
X89783335Y-48451966D02*
X89716669Y-48351966D01*
X89716669Y-48351966D02*
X89616669Y-48285300D01*
X89616669Y-48285300D02*
X89483335Y-48251966D01*
X89483335Y-48251966D02*
X89350002Y-48285300D01*
X89350002Y-48285300D02*
X89250002Y-48351966D01*
X89250002Y-48351966D02*
X89183335Y-48451966D01*
X89183335Y-48451966D02*
X89150002Y-48585300D01*
X89150002Y-48585300D02*
X89183335Y-48718633D01*
X89183335Y-48718633D02*
X89250002Y-48818633D01*
X89250002Y-48818633D02*
X89350002Y-48885300D01*
X89350002Y-48885300D02*
X89483335Y-48918633D01*
X89483335Y-48918633D02*
X89616669Y-48885300D01*
X89616669Y-48885300D02*
X89716669Y-48818633D01*
X90083335Y-48818633D02*
X90083335Y-48118633D01*
X90083335Y-48385300D02*
X90150002Y-48351966D01*
X90150002Y-48351966D02*
X90283335Y-48351966D01*
X90283335Y-48351966D02*
X90350002Y-48385300D01*
X90350002Y-48385300D02*
X90383335Y-48418633D01*
X90383335Y-48418633D02*
X90416669Y-48485300D01*
X90416669Y-48485300D02*
X90416669Y-48685300D01*
X90416669Y-48685300D02*
X90383335Y-48751966D01*
X90383335Y-48751966D02*
X90350002Y-48785300D01*
X90350002Y-48785300D02*
X90283335Y-48818633D01*
X90283335Y-48818633D02*
X90150002Y-48818633D01*
X90150002Y-48818633D02*
X90083335Y-48785300D01*
X90983335Y-48785300D02*
X90916668Y-48818633D01*
X90916668Y-48818633D02*
X90783335Y-48818633D01*
X90783335Y-48818633D02*
X90716668Y-48785300D01*
X90716668Y-48785300D02*
X90683335Y-48718633D01*
X90683335Y-48718633D02*
X90683335Y-48451966D01*
X90683335Y-48451966D02*
X90716668Y-48385300D01*
X90716668Y-48385300D02*
X90783335Y-48351966D01*
X90783335Y-48351966D02*
X90916668Y-48351966D01*
X90916668Y-48351966D02*
X90983335Y-48385300D01*
X90983335Y-48385300D02*
X91016668Y-48451966D01*
X91016668Y-48451966D02*
X91016668Y-48518633D01*
X91016668Y-48518633D02*
X90683335Y-48585300D01*
X91316668Y-48351966D02*
X91316668Y-48818633D01*
X91316668Y-48418633D02*
X91350002Y-48385300D01*
X91350002Y-48385300D02*
X91416668Y-48351966D01*
X91416668Y-48351966D02*
X91516668Y-48351966D01*
X91516668Y-48351966D02*
X91583335Y-48385300D01*
X91583335Y-48385300D02*
X91616668Y-48451966D01*
X91616668Y-48451966D02*
X91616668Y-48818633D01*
X91950001Y-48351966D02*
X91950001Y-48951966D01*
X91950001Y-48951966D02*
X91916668Y-49018633D01*
X91916668Y-49018633D02*
X91850001Y-49051966D01*
X91850001Y-49051966D02*
X91816668Y-49051966D01*
X91950001Y-48118633D02*
X91916668Y-48151966D01*
X91916668Y-48151966D02*
X91950001Y-48185300D01*
X91950001Y-48185300D02*
X91983335Y-48151966D01*
X91983335Y-48151966D02*
X91950001Y-48118633D01*
X91950001Y-48118633D02*
X91950001Y-48185300D01*
X92283334Y-48818633D02*
X92283334Y-48351966D01*
X92283334Y-48118633D02*
X92250001Y-48151966D01*
X92250001Y-48151966D02*
X92283334Y-48185300D01*
X92283334Y-48185300D02*
X92316668Y-48151966D01*
X92316668Y-48151966D02*
X92283334Y-48118633D01*
X92283334Y-48118633D02*
X92283334Y-48185300D01*
X92916667Y-48818633D02*
X92916667Y-48451966D01*
X92916667Y-48451966D02*
X92883334Y-48385300D01*
X92883334Y-48385300D02*
X92816667Y-48351966D01*
X92816667Y-48351966D02*
X92683334Y-48351966D01*
X92683334Y-48351966D02*
X92616667Y-48385300D01*
X92916667Y-48785300D02*
X92850001Y-48818633D01*
X92850001Y-48818633D02*
X92683334Y-48818633D01*
X92683334Y-48818633D02*
X92616667Y-48785300D01*
X92616667Y-48785300D02*
X92583334Y-48718633D01*
X92583334Y-48718633D02*
X92583334Y-48651966D01*
X92583334Y-48651966D02*
X92616667Y-48585300D01*
X92616667Y-48585300D02*
X92683334Y-48551966D01*
X92683334Y-48551966D02*
X92850001Y-48551966D01*
X92850001Y-48551966D02*
X92916667Y-48518633D01*
X93350000Y-48818633D02*
X93283334Y-48785300D01*
X93283334Y-48785300D02*
X93250000Y-48751966D01*
X93250000Y-48751966D02*
X93216667Y-48685300D01*
X93216667Y-48685300D02*
X93216667Y-48485300D01*
X93216667Y-48485300D02*
X93250000Y-48418633D01*
X93250000Y-48418633D02*
X93283334Y-48385300D01*
X93283334Y-48385300D02*
X93350000Y-48351966D01*
X93350000Y-48351966D02*
X93450000Y-48351966D01*
X93450000Y-48351966D02*
X93516667Y-48385300D01*
X93516667Y-48385300D02*
X93550000Y-48418633D01*
X93550000Y-48418633D02*
X93583334Y-48485300D01*
X93583334Y-48485300D02*
X93583334Y-48685300D01*
X93583334Y-48685300D02*
X93550000Y-48751966D01*
X93550000Y-48751966D02*
X93516667Y-48785300D01*
X93516667Y-48785300D02*
X93450000Y-48818633D01*
X93450000Y-48818633D02*
X93350000Y-48818633D01*
X93883333Y-48818633D02*
X93883333Y-48351966D01*
X93883333Y-48418633D02*
X93916667Y-48385300D01*
X93916667Y-48385300D02*
X93983333Y-48351966D01*
X93983333Y-48351966D02*
X94083333Y-48351966D01*
X94083333Y-48351966D02*
X94150000Y-48385300D01*
X94150000Y-48385300D02*
X94183333Y-48451966D01*
X94183333Y-48451966D02*
X94183333Y-48818633D01*
X94183333Y-48451966D02*
X94216667Y-48385300D01*
X94216667Y-48385300D02*
X94283333Y-48351966D01*
X94283333Y-48351966D02*
X94383333Y-48351966D01*
X94383333Y-48351966D02*
X94450000Y-48385300D01*
X94450000Y-48385300D02*
X94483333Y-48451966D01*
X94483333Y-48451966D02*
X94483333Y-48818633D01*
X94916666Y-48818633D02*
X94850000Y-48785300D01*
X94850000Y-48785300D02*
X94816666Y-48751966D01*
X94816666Y-48751966D02*
X94783333Y-48685300D01*
X94783333Y-48685300D02*
X94783333Y-48485300D01*
X94783333Y-48485300D02*
X94816666Y-48418633D01*
X94816666Y-48418633D02*
X94850000Y-48385300D01*
X94850000Y-48385300D02*
X94916666Y-48351966D01*
X94916666Y-48351966D02*
X95016666Y-48351966D01*
X95016666Y-48351966D02*
X95083333Y-48385300D01*
X95083333Y-48385300D02*
X95116666Y-48418633D01*
X95116666Y-48418633D02*
X95150000Y-48485300D01*
X95150000Y-48485300D02*
X95150000Y-48685300D01*
X95150000Y-48685300D02*
X95116666Y-48751966D01*
X95116666Y-48751966D02*
X95083333Y-48785300D01*
X95083333Y-48785300D02*
X95016666Y-48818633D01*
X95016666Y-48818633D02*
X94916666Y-48818633D01*
X95749999Y-48818633D02*
X95749999Y-48118633D01*
X95749999Y-48785300D02*
X95683333Y-48818633D01*
X95683333Y-48818633D02*
X95549999Y-48818633D01*
X95549999Y-48818633D02*
X95483333Y-48785300D01*
X95483333Y-48785300D02*
X95449999Y-48751966D01*
X95449999Y-48751966D02*
X95416666Y-48685300D01*
X95416666Y-48685300D02*
X95416666Y-48485300D01*
X95416666Y-48485300D02*
X95449999Y-48418633D01*
X95449999Y-48418633D02*
X95483333Y-48385300D01*
X95483333Y-48385300D02*
X95549999Y-48351966D01*
X95549999Y-48351966D02*
X95683333Y-48351966D01*
X95683333Y-48351966D02*
X95749999Y-48385300D01*
X96383332Y-48351966D02*
X96383332Y-48818633D01*
X96083332Y-48351966D02*
X96083332Y-48718633D01*
X96083332Y-48718633D02*
X96116666Y-48785300D01*
X96116666Y-48785300D02*
X96183332Y-48818633D01*
X96183332Y-48818633D02*
X96283332Y-48818633D01*
X96283332Y-48818633D02*
X96349999Y-48785300D01*
X96349999Y-48785300D02*
X96383332Y-48751966D01*
X96816665Y-48818633D02*
X96749999Y-48785300D01*
X96749999Y-48785300D02*
X96716665Y-48718633D01*
X96716665Y-48718633D02*
X96716665Y-48118633D01*
X97383332Y-48818633D02*
X97383332Y-48451966D01*
X97383332Y-48451966D02*
X97349999Y-48385300D01*
X97349999Y-48385300D02*
X97283332Y-48351966D01*
X97283332Y-48351966D02*
X97149999Y-48351966D01*
X97149999Y-48351966D02*
X97083332Y-48385300D01*
X97383332Y-48785300D02*
X97316666Y-48818633D01*
X97316666Y-48818633D02*
X97149999Y-48818633D01*
X97149999Y-48818633D02*
X97083332Y-48785300D01*
X97083332Y-48785300D02*
X97049999Y-48718633D01*
X97049999Y-48718633D02*
X97049999Y-48651966D01*
X97049999Y-48651966D02*
X97083332Y-48585300D01*
X97083332Y-48585300D02*
X97149999Y-48551966D01*
X97149999Y-48551966D02*
X97316666Y-48551966D01*
X97316666Y-48551966D02*
X97383332Y-48518633D01*
X97716665Y-48818633D02*
X97716665Y-48351966D01*
X97716665Y-48485300D02*
X97749999Y-48418633D01*
X97749999Y-48418633D02*
X97783332Y-48385300D01*
X97783332Y-48385300D02*
X97849999Y-48351966D01*
X97849999Y-48351966D02*
X97916665Y-48351966D01*
X120116669Y-48485300D02*
X120083335Y-48451966D01*
X120083335Y-48451966D02*
X120016669Y-48418633D01*
X120016669Y-48418633D02*
X119950002Y-48418633D01*
X119950002Y-48418633D02*
X119883335Y-48451966D01*
X119883335Y-48451966D02*
X119850002Y-48485300D01*
X119850002Y-48485300D02*
X119816669Y-48551966D01*
X119816669Y-48551966D02*
X119816669Y-48618633D01*
X119816669Y-48618633D02*
X119850002Y-48685300D01*
X119850002Y-48685300D02*
X119883335Y-48718633D01*
X119883335Y-48718633D02*
X119950002Y-48751966D01*
X119950002Y-48751966D02*
X120016669Y-48751966D01*
X120016669Y-48751966D02*
X120083335Y-48718633D01*
X120083335Y-48718633D02*
X120116669Y-48685300D01*
X120116669Y-48418633D02*
X120116669Y-48685300D01*
X120116669Y-48685300D02*
X120150002Y-48718633D01*
X120150002Y-48718633D02*
X120183335Y-48718633D01*
X120183335Y-48718633D02*
X120250002Y-48685300D01*
X120250002Y-48685300D02*
X120283335Y-48618633D01*
X120283335Y-48618633D02*
X120283335Y-48451966D01*
X120283335Y-48451966D02*
X120216669Y-48351966D01*
X120216669Y-48351966D02*
X120116669Y-48285300D01*
X120116669Y-48285300D02*
X119983335Y-48251966D01*
X119983335Y-48251966D02*
X119850002Y-48285300D01*
X119850002Y-48285300D02*
X119750002Y-48351966D01*
X119750002Y-48351966D02*
X119683335Y-48451966D01*
X119683335Y-48451966D02*
X119650002Y-48585300D01*
X119650002Y-48585300D02*
X119683335Y-48718633D01*
X119683335Y-48718633D02*
X119750002Y-48818633D01*
X119750002Y-48818633D02*
X119850002Y-48885300D01*
X119850002Y-48885300D02*
X119983335Y-48918633D01*
X119983335Y-48918633D02*
X120116669Y-48885300D01*
X120116669Y-48885300D02*
X120216669Y-48818633D01*
X120583335Y-48818633D02*
X120583335Y-48118633D01*
X120583335Y-48385300D02*
X120650002Y-48351966D01*
X120650002Y-48351966D02*
X120783335Y-48351966D01*
X120783335Y-48351966D02*
X120850002Y-48385300D01*
X120850002Y-48385300D02*
X120883335Y-48418633D01*
X120883335Y-48418633D02*
X120916669Y-48485300D01*
X120916669Y-48485300D02*
X120916669Y-48685300D01*
X120916669Y-48685300D02*
X120883335Y-48751966D01*
X120883335Y-48751966D02*
X120850002Y-48785300D01*
X120850002Y-48785300D02*
X120783335Y-48818633D01*
X120783335Y-48818633D02*
X120650002Y-48818633D01*
X120650002Y-48818633D02*
X120583335Y-48785300D01*
X121483335Y-48785300D02*
X121416668Y-48818633D01*
X121416668Y-48818633D02*
X121283335Y-48818633D01*
X121283335Y-48818633D02*
X121216668Y-48785300D01*
X121216668Y-48785300D02*
X121183335Y-48718633D01*
X121183335Y-48718633D02*
X121183335Y-48451966D01*
X121183335Y-48451966D02*
X121216668Y-48385300D01*
X121216668Y-48385300D02*
X121283335Y-48351966D01*
X121283335Y-48351966D02*
X121416668Y-48351966D01*
X121416668Y-48351966D02*
X121483335Y-48385300D01*
X121483335Y-48385300D02*
X121516668Y-48451966D01*
X121516668Y-48451966D02*
X121516668Y-48518633D01*
X121516668Y-48518633D02*
X121183335Y-48585300D01*
X121816668Y-48351966D02*
X121816668Y-48818633D01*
X121816668Y-48418633D02*
X121850002Y-48385300D01*
X121850002Y-48385300D02*
X121916668Y-48351966D01*
X121916668Y-48351966D02*
X122016668Y-48351966D01*
X122016668Y-48351966D02*
X122083335Y-48385300D01*
X122083335Y-48385300D02*
X122116668Y-48451966D01*
X122116668Y-48451966D02*
X122116668Y-48818633D01*
X122450001Y-48351966D02*
X122450001Y-48951966D01*
X122450001Y-48951966D02*
X122416668Y-49018633D01*
X122416668Y-49018633D02*
X122350001Y-49051966D01*
X122350001Y-49051966D02*
X122316668Y-49051966D01*
X122450001Y-48118633D02*
X122416668Y-48151966D01*
X122416668Y-48151966D02*
X122450001Y-48185300D01*
X122450001Y-48185300D02*
X122483335Y-48151966D01*
X122483335Y-48151966D02*
X122450001Y-48118633D01*
X122450001Y-48118633D02*
X122450001Y-48185300D01*
X122783334Y-48818633D02*
X122783334Y-48351966D01*
X122783334Y-48118633D02*
X122750001Y-48151966D01*
X122750001Y-48151966D02*
X122783334Y-48185300D01*
X122783334Y-48185300D02*
X122816668Y-48151966D01*
X122816668Y-48151966D02*
X122783334Y-48118633D01*
X122783334Y-48118633D02*
X122783334Y-48185300D01*
X123416667Y-48818633D02*
X123416667Y-48451966D01*
X123416667Y-48451966D02*
X123383334Y-48385300D01*
X123383334Y-48385300D02*
X123316667Y-48351966D01*
X123316667Y-48351966D02*
X123183334Y-48351966D01*
X123183334Y-48351966D02*
X123116667Y-48385300D01*
X123416667Y-48785300D02*
X123350001Y-48818633D01*
X123350001Y-48818633D02*
X123183334Y-48818633D01*
X123183334Y-48818633D02*
X123116667Y-48785300D01*
X123116667Y-48785300D02*
X123083334Y-48718633D01*
X123083334Y-48718633D02*
X123083334Y-48651966D01*
X123083334Y-48651966D02*
X123116667Y-48585300D01*
X123116667Y-48585300D02*
X123183334Y-48551966D01*
X123183334Y-48551966D02*
X123350001Y-48551966D01*
X123350001Y-48551966D02*
X123416667Y-48518633D01*
X123850000Y-48818633D02*
X123783334Y-48785300D01*
X123783334Y-48785300D02*
X123750000Y-48751966D01*
X123750000Y-48751966D02*
X123716667Y-48685300D01*
X123716667Y-48685300D02*
X123716667Y-48485300D01*
X123716667Y-48485300D02*
X123750000Y-48418633D01*
X123750000Y-48418633D02*
X123783334Y-48385300D01*
X123783334Y-48385300D02*
X123850000Y-48351966D01*
X123850000Y-48351966D02*
X123950000Y-48351966D01*
X123950000Y-48351966D02*
X124016667Y-48385300D01*
X124016667Y-48385300D02*
X124050000Y-48418633D01*
X124050000Y-48418633D02*
X124083334Y-48485300D01*
X124083334Y-48485300D02*
X124083334Y-48685300D01*
X124083334Y-48685300D02*
X124050000Y-48751966D01*
X124050000Y-48751966D02*
X124016667Y-48785300D01*
X124016667Y-48785300D02*
X123950000Y-48818633D01*
X123950000Y-48818633D02*
X123850000Y-48818633D01*
X124383333Y-48818633D02*
X124383333Y-48351966D01*
X124383333Y-48418633D02*
X124416667Y-48385300D01*
X124416667Y-48385300D02*
X124483333Y-48351966D01*
X124483333Y-48351966D02*
X124583333Y-48351966D01*
X124583333Y-48351966D02*
X124650000Y-48385300D01*
X124650000Y-48385300D02*
X124683333Y-48451966D01*
X124683333Y-48451966D02*
X124683333Y-48818633D01*
X124683333Y-48451966D02*
X124716667Y-48385300D01*
X124716667Y-48385300D02*
X124783333Y-48351966D01*
X124783333Y-48351966D02*
X124883333Y-48351966D01*
X124883333Y-48351966D02*
X124950000Y-48385300D01*
X124950000Y-48385300D02*
X124983333Y-48451966D01*
X124983333Y-48451966D02*
X124983333Y-48818633D01*
X125416666Y-48818633D02*
X125350000Y-48785300D01*
X125350000Y-48785300D02*
X125316666Y-48751966D01*
X125316666Y-48751966D02*
X125283333Y-48685300D01*
X125283333Y-48685300D02*
X125283333Y-48485300D01*
X125283333Y-48485300D02*
X125316666Y-48418633D01*
X125316666Y-48418633D02*
X125350000Y-48385300D01*
X125350000Y-48385300D02*
X125416666Y-48351966D01*
X125416666Y-48351966D02*
X125516666Y-48351966D01*
X125516666Y-48351966D02*
X125583333Y-48385300D01*
X125583333Y-48385300D02*
X125616666Y-48418633D01*
X125616666Y-48418633D02*
X125650000Y-48485300D01*
X125650000Y-48485300D02*
X125650000Y-48685300D01*
X125650000Y-48685300D02*
X125616666Y-48751966D01*
X125616666Y-48751966D02*
X125583333Y-48785300D01*
X125583333Y-48785300D02*
X125516666Y-48818633D01*
X125516666Y-48818633D02*
X125416666Y-48818633D01*
X126249999Y-48818633D02*
X126249999Y-48118633D01*
X126249999Y-48785300D02*
X126183333Y-48818633D01*
X126183333Y-48818633D02*
X126049999Y-48818633D01*
X126049999Y-48818633D02*
X125983333Y-48785300D01*
X125983333Y-48785300D02*
X125949999Y-48751966D01*
X125949999Y-48751966D02*
X125916666Y-48685300D01*
X125916666Y-48685300D02*
X125916666Y-48485300D01*
X125916666Y-48485300D02*
X125949999Y-48418633D01*
X125949999Y-48418633D02*
X125983333Y-48385300D01*
X125983333Y-48385300D02*
X126049999Y-48351966D01*
X126049999Y-48351966D02*
X126183333Y-48351966D01*
X126183333Y-48351966D02*
X126249999Y-48385300D01*
X126883332Y-48351966D02*
X126883332Y-48818633D01*
X126583332Y-48351966D02*
X126583332Y-48718633D01*
X126583332Y-48718633D02*
X126616666Y-48785300D01*
X126616666Y-48785300D02*
X126683332Y-48818633D01*
X126683332Y-48818633D02*
X126783332Y-48818633D01*
X126783332Y-48818633D02*
X126849999Y-48785300D01*
X126849999Y-48785300D02*
X126883332Y-48751966D01*
X127316665Y-48818633D02*
X127249999Y-48785300D01*
X127249999Y-48785300D02*
X127216665Y-48718633D01*
X127216665Y-48718633D02*
X127216665Y-48118633D01*
X127883332Y-48818633D02*
X127883332Y-48451966D01*
X127883332Y-48451966D02*
X127849999Y-48385300D01*
X127849999Y-48385300D02*
X127783332Y-48351966D01*
X127783332Y-48351966D02*
X127649999Y-48351966D01*
X127649999Y-48351966D02*
X127583332Y-48385300D01*
X127883332Y-48785300D02*
X127816666Y-48818633D01*
X127816666Y-48818633D02*
X127649999Y-48818633D01*
X127649999Y-48818633D02*
X127583332Y-48785300D01*
X127583332Y-48785300D02*
X127549999Y-48718633D01*
X127549999Y-48718633D02*
X127549999Y-48651966D01*
X127549999Y-48651966D02*
X127583332Y-48585300D01*
X127583332Y-48585300D02*
X127649999Y-48551966D01*
X127649999Y-48551966D02*
X127816666Y-48551966D01*
X127816666Y-48551966D02*
X127883332Y-48518633D01*
X128216665Y-48818633D02*
X128216665Y-48351966D01*
X128216665Y-48485300D02*
X128249999Y-48418633D01*
X128249999Y-48418633D02*
X128283332Y-48385300D01*
X128283332Y-48385300D02*
X128349999Y-48351966D01*
X128349999Y-48351966D02*
X128416665Y-48351966D01*
D11*
X41785714Y-126382057D02*
X41252381Y-126382057D01*
X41252381Y-127324914D02*
X41252381Y-125524914D01*
X41252381Y-125524914D02*
X42014286Y-125524914D01*
X42623810Y-127324914D02*
X42623810Y-125524914D01*
X42623810Y-125524914D02*
X43157143Y-126810628D01*
X43157143Y-126810628D02*
X43690477Y-125524914D01*
X43690477Y-125524914D02*
X43690477Y-127324914D01*
X45671429Y-127324914D02*
X45671429Y-125524914D01*
X46433334Y-127324914D02*
X46433334Y-125524914D01*
X46433334Y-125524914D02*
X47347620Y-127324914D01*
X47347620Y-127324914D02*
X47347620Y-125524914D01*
X41280952Y-144924914D02*
X41814286Y-146724914D01*
X41814286Y-146724914D02*
X42347619Y-144924914D01*
X44023810Y-144839200D02*
X42652381Y-147153485D01*
X44861905Y-144924914D02*
X45166667Y-144924914D01*
X45166667Y-144924914D02*
X45319048Y-145010628D01*
X45319048Y-145010628D02*
X45471429Y-145182057D01*
X45471429Y-145182057D02*
X45547619Y-145524914D01*
X45547619Y-145524914D02*
X45547619Y-146124914D01*
X45547619Y-146124914D02*
X45471429Y-146467771D01*
X45471429Y-146467771D02*
X45319048Y-146639200D01*
X45319048Y-146639200D02*
X45166667Y-146724914D01*
X45166667Y-146724914D02*
X44861905Y-146724914D01*
X44861905Y-146724914D02*
X44709524Y-146639200D01*
X44709524Y-146639200D02*
X44557143Y-146467771D01*
X44557143Y-146467771D02*
X44480952Y-146124914D01*
X44480952Y-146124914D02*
X44480952Y-145524914D01*
X44480952Y-145524914D02*
X44557143Y-145182057D01*
X44557143Y-145182057D02*
X44709524Y-145010628D01*
X44709524Y-145010628D02*
X44861905Y-144924914D01*
X47147619Y-146553485D02*
X47071428Y-146639200D01*
X47071428Y-146639200D02*
X46842857Y-146724914D01*
X46842857Y-146724914D02*
X46690476Y-146724914D01*
X46690476Y-146724914D02*
X46461904Y-146639200D01*
X46461904Y-146639200D02*
X46309523Y-146467771D01*
X46309523Y-146467771D02*
X46233333Y-146296342D01*
X46233333Y-146296342D02*
X46157142Y-145953485D01*
X46157142Y-145953485D02*
X46157142Y-145696342D01*
X46157142Y-145696342D02*
X46233333Y-145353485D01*
X46233333Y-145353485D02*
X46309523Y-145182057D01*
X46309523Y-145182057D02*
X46461904Y-145010628D01*
X46461904Y-145010628D02*
X46690476Y-144924914D01*
X46690476Y-144924914D02*
X46842857Y-144924914D01*
X46842857Y-144924914D02*
X47071428Y-145010628D01*
X47071428Y-145010628D02*
X47147619Y-145096342D01*
X47604761Y-144924914D02*
X48519047Y-144924914D01*
X48061904Y-146724914D02*
X48061904Y-144924914D01*
X42271428Y-78353485D02*
X42185714Y-78439200D01*
X42185714Y-78439200D02*
X41928571Y-78524914D01*
X41928571Y-78524914D02*
X41757143Y-78524914D01*
X41757143Y-78524914D02*
X41500000Y-78439200D01*
X41500000Y-78439200D02*
X41328571Y-78267771D01*
X41328571Y-78267771D02*
X41242857Y-78096342D01*
X41242857Y-78096342D02*
X41157143Y-77753485D01*
X41157143Y-77753485D02*
X41157143Y-77496342D01*
X41157143Y-77496342D02*
X41242857Y-77153485D01*
X41242857Y-77153485D02*
X41328571Y-76982057D01*
X41328571Y-76982057D02*
X41500000Y-76810628D01*
X41500000Y-76810628D02*
X41757143Y-76724914D01*
X41757143Y-76724914D02*
X41928571Y-76724914D01*
X41928571Y-76724914D02*
X42185714Y-76810628D01*
X42185714Y-76810628D02*
X42271428Y-76896342D01*
X43385714Y-76724914D02*
X43728571Y-76724914D01*
X43728571Y-76724914D02*
X43900000Y-76810628D01*
X43900000Y-76810628D02*
X44071428Y-76982057D01*
X44071428Y-76982057D02*
X44157143Y-77324914D01*
X44157143Y-77324914D02*
X44157143Y-77924914D01*
X44157143Y-77924914D02*
X44071428Y-78267771D01*
X44071428Y-78267771D02*
X43900000Y-78439200D01*
X43900000Y-78439200D02*
X43728571Y-78524914D01*
X43728571Y-78524914D02*
X43385714Y-78524914D01*
X43385714Y-78524914D02*
X43214286Y-78439200D01*
X43214286Y-78439200D02*
X43042857Y-78267771D01*
X43042857Y-78267771D02*
X42957143Y-77924914D01*
X42957143Y-77924914D02*
X42957143Y-77324914D01*
X42957143Y-77324914D02*
X43042857Y-76982057D01*
X43042857Y-76982057D02*
X43214286Y-76810628D01*
X43214286Y-76810628D02*
X43385714Y-76724914D01*
X44842857Y-78010628D02*
X45700000Y-78010628D01*
X44671428Y-78524914D02*
X45271428Y-76724914D01*
X45271428Y-76724914D02*
X45871428Y-78524914D01*
X47499999Y-78524914D02*
X46899999Y-77667771D01*
X46471428Y-78524914D02*
X46471428Y-76724914D01*
X46471428Y-76724914D02*
X47157142Y-76724914D01*
X47157142Y-76724914D02*
X47328571Y-76810628D01*
X47328571Y-76810628D02*
X47414285Y-76896342D01*
X47414285Y-76896342D02*
X47499999Y-77067771D01*
X47499999Y-77067771D02*
X47499999Y-77324914D01*
X47499999Y-77324914D02*
X47414285Y-77496342D01*
X47414285Y-77496342D02*
X47328571Y-77582057D01*
X47328571Y-77582057D02*
X47157142Y-77667771D01*
X47157142Y-77667771D02*
X46471428Y-77667771D01*
X48185714Y-78439200D02*
X48442857Y-78524914D01*
X48442857Y-78524914D02*
X48871428Y-78524914D01*
X48871428Y-78524914D02*
X49042857Y-78439200D01*
X49042857Y-78439200D02*
X49128571Y-78353485D01*
X49128571Y-78353485D02*
X49214285Y-78182057D01*
X49214285Y-78182057D02*
X49214285Y-78010628D01*
X49214285Y-78010628D02*
X49128571Y-77839200D01*
X49128571Y-77839200D02*
X49042857Y-77753485D01*
X49042857Y-77753485D02*
X48871428Y-77667771D01*
X48871428Y-77667771D02*
X48528571Y-77582057D01*
X48528571Y-77582057D02*
X48357142Y-77496342D01*
X48357142Y-77496342D02*
X48271428Y-77410628D01*
X48271428Y-77410628D02*
X48185714Y-77239200D01*
X48185714Y-77239200D02*
X48185714Y-77067771D01*
X48185714Y-77067771D02*
X48271428Y-76896342D01*
X48271428Y-76896342D02*
X48357142Y-76810628D01*
X48357142Y-76810628D02*
X48528571Y-76724914D01*
X48528571Y-76724914D02*
X48957142Y-76724914D01*
X48957142Y-76724914D02*
X49214285Y-76810628D01*
X49985714Y-77582057D02*
X50585714Y-77582057D01*
X50842857Y-78524914D02*
X49985714Y-78524914D01*
X49985714Y-78524914D02*
X49985714Y-76724914D01*
X49985714Y-76724914D02*
X50842857Y-76724914D01*
X51100000Y-161890200D02*
X51300000Y-161975914D01*
X51300000Y-161975914D02*
X51633334Y-161975914D01*
X51633334Y-161975914D02*
X51766667Y-161890200D01*
X51766667Y-161890200D02*
X51833334Y-161804485D01*
X51833334Y-161804485D02*
X51900000Y-161633057D01*
X51900000Y-161633057D02*
X51900000Y-161461628D01*
X51900000Y-161461628D02*
X51833334Y-161290200D01*
X51833334Y-161290200D02*
X51766667Y-161204485D01*
X51766667Y-161204485D02*
X51633334Y-161118771D01*
X51633334Y-161118771D02*
X51366667Y-161033057D01*
X51366667Y-161033057D02*
X51233334Y-160947342D01*
X51233334Y-160947342D02*
X51166667Y-160861628D01*
X51166667Y-160861628D02*
X51100000Y-160690200D01*
X51100000Y-160690200D02*
X51100000Y-160518771D01*
X51100000Y-160518771D02*
X51166667Y-160347342D01*
X51166667Y-160347342D02*
X51233334Y-160261628D01*
X51233334Y-160261628D02*
X51366667Y-160175914D01*
X51366667Y-160175914D02*
X51700000Y-160175914D01*
X51700000Y-160175914D02*
X51900000Y-160261628D01*
X52433333Y-161461628D02*
X53100000Y-161461628D01*
X52300000Y-161975914D02*
X52766667Y-160175914D01*
X52766667Y-160175914D02*
X53233333Y-161975914D01*
X53566667Y-160175914D02*
X53900000Y-161975914D01*
X53900000Y-161975914D02*
X54166667Y-160690200D01*
X54166667Y-160690200D02*
X54433333Y-161975914D01*
X54433333Y-161975914D02*
X54766667Y-160175914D01*
X51500000Y-163073914D02*
X51766666Y-163073914D01*
X51766666Y-163073914D02*
X51900000Y-163159628D01*
X51900000Y-163159628D02*
X52033333Y-163331057D01*
X52033333Y-163331057D02*
X52100000Y-163673914D01*
X52100000Y-163673914D02*
X52100000Y-164273914D01*
X52100000Y-164273914D02*
X52033333Y-164616771D01*
X52033333Y-164616771D02*
X51900000Y-164788200D01*
X51900000Y-164788200D02*
X51766666Y-164873914D01*
X51766666Y-164873914D02*
X51500000Y-164873914D01*
X51500000Y-164873914D02*
X51366666Y-164788200D01*
X51366666Y-164788200D02*
X51233333Y-164616771D01*
X51233333Y-164616771D02*
X51166666Y-164273914D01*
X51166666Y-164273914D02*
X51166666Y-163673914D01*
X51166666Y-163673914D02*
X51233333Y-163331057D01*
X51233333Y-163331057D02*
X51366666Y-163159628D01*
X51366666Y-163159628D02*
X51500000Y-163073914D01*
X52700000Y-163073914D02*
X52700000Y-164531057D01*
X52700000Y-164531057D02*
X52766667Y-164702485D01*
X52766667Y-164702485D02*
X52833333Y-164788200D01*
X52833333Y-164788200D02*
X52966667Y-164873914D01*
X52966667Y-164873914D02*
X53233333Y-164873914D01*
X53233333Y-164873914D02*
X53366667Y-164788200D01*
X53366667Y-164788200D02*
X53433333Y-164702485D01*
X53433333Y-164702485D02*
X53500000Y-164531057D01*
X53500000Y-164531057D02*
X53500000Y-163073914D01*
X53966667Y-163073914D02*
X54766667Y-163073914D01*
X54366667Y-164873914D02*
X54366667Y-163073914D01*
X41928571Y-161407200D02*
X42071428Y-161454819D01*
X42071428Y-161454819D02*
X42309523Y-161454819D01*
X42309523Y-161454819D02*
X42404761Y-161407200D01*
X42404761Y-161407200D02*
X42452380Y-161359580D01*
X42452380Y-161359580D02*
X42499999Y-161264342D01*
X42499999Y-161264342D02*
X42499999Y-161169104D01*
X42499999Y-161169104D02*
X42452380Y-161073866D01*
X42452380Y-161073866D02*
X42404761Y-161026247D01*
X42404761Y-161026247D02*
X42309523Y-160978628D01*
X42309523Y-160978628D02*
X42119047Y-160931009D01*
X42119047Y-160931009D02*
X42023809Y-160883390D01*
X42023809Y-160883390D02*
X41976190Y-160835771D01*
X41976190Y-160835771D02*
X41928571Y-160740533D01*
X41928571Y-160740533D02*
X41928571Y-160645295D01*
X41928571Y-160645295D02*
X41976190Y-160550057D01*
X41976190Y-160550057D02*
X42023809Y-160502438D01*
X42023809Y-160502438D02*
X42119047Y-160454819D01*
X42119047Y-160454819D02*
X42357142Y-160454819D01*
X42357142Y-160454819D02*
X42499999Y-160502438D01*
X43499999Y-161359580D02*
X43452380Y-161407200D01*
X43452380Y-161407200D02*
X43309523Y-161454819D01*
X43309523Y-161454819D02*
X43214285Y-161454819D01*
X43214285Y-161454819D02*
X43071428Y-161407200D01*
X43071428Y-161407200D02*
X42976190Y-161311961D01*
X42976190Y-161311961D02*
X42928571Y-161216723D01*
X42928571Y-161216723D02*
X42880952Y-161026247D01*
X42880952Y-161026247D02*
X42880952Y-160883390D01*
X42880952Y-160883390D02*
X42928571Y-160692914D01*
X42928571Y-160692914D02*
X42976190Y-160597676D01*
X42976190Y-160597676D02*
X43071428Y-160502438D01*
X43071428Y-160502438D02*
X43214285Y-160454819D01*
X43214285Y-160454819D02*
X43309523Y-160454819D01*
X43309523Y-160454819D02*
X43452380Y-160502438D01*
X43452380Y-160502438D02*
X43499999Y-160550057D01*
X43880952Y-161169104D02*
X44357142Y-161169104D01*
X43785714Y-161454819D02*
X44119047Y-160454819D01*
X44119047Y-160454819D02*
X44452380Y-161454819D01*
X45261904Y-161454819D02*
X44785714Y-161454819D01*
X44785714Y-161454819D02*
X44785714Y-160454819D01*
X45595238Y-160931009D02*
X45928571Y-160931009D01*
X46071428Y-161454819D02*
X45595238Y-161454819D01*
X45595238Y-161454819D02*
X45595238Y-160454819D01*
X45595238Y-160454819D02*
X46071428Y-160454819D01*
D13*
X52666667Y-49861857D02*
X52666667Y-46861857D01*
X52666667Y-46861857D02*
X53600001Y-49004714D01*
X53600001Y-49004714D02*
X54533334Y-46861857D01*
X54533334Y-46861857D02*
X54533334Y-49861857D01*
X55866667Y-49861857D02*
X55866667Y-47861857D01*
X55866667Y-46861857D02*
X55733334Y-47004714D01*
X55733334Y-47004714D02*
X55866667Y-47147571D01*
X55866667Y-47147571D02*
X56000001Y-47004714D01*
X56000001Y-47004714D02*
X55866667Y-46861857D01*
X55866667Y-46861857D02*
X55866667Y-47147571D01*
X57200000Y-47861857D02*
X57200000Y-49861857D01*
X57200000Y-48147571D02*
X57333334Y-48004714D01*
X57333334Y-48004714D02*
X57600000Y-47861857D01*
X57600000Y-47861857D02*
X58000000Y-47861857D01*
X58000000Y-47861857D02*
X58266667Y-48004714D01*
X58266667Y-48004714D02*
X58400000Y-48290428D01*
X58400000Y-48290428D02*
X58400000Y-49861857D01*
X59733333Y-49861857D02*
X59733333Y-47861857D01*
X59733333Y-46861857D02*
X59600000Y-47004714D01*
X59600000Y-47004714D02*
X59733333Y-47147571D01*
X59733333Y-47147571D02*
X59866667Y-47004714D01*
X59866667Y-47004714D02*
X59733333Y-46861857D01*
X59733333Y-46861857D02*
X59733333Y-47147571D01*
X61600000Y-46861857D02*
X62133333Y-46861857D01*
X62133333Y-46861857D02*
X62400000Y-47004714D01*
X62400000Y-47004714D02*
X62666666Y-47290428D01*
X62666666Y-47290428D02*
X62800000Y-47861857D01*
X62800000Y-47861857D02*
X62800000Y-48861857D01*
X62800000Y-48861857D02*
X62666666Y-49433285D01*
X62666666Y-49433285D02*
X62400000Y-49719000D01*
X62400000Y-49719000D02*
X62133333Y-49861857D01*
X62133333Y-49861857D02*
X61600000Y-49861857D01*
X61600000Y-49861857D02*
X61333333Y-49719000D01*
X61333333Y-49719000D02*
X61066666Y-49433285D01*
X61066666Y-49433285D02*
X60933333Y-48861857D01*
X60933333Y-48861857D02*
X60933333Y-47861857D01*
X60933333Y-47861857D02*
X61066666Y-47290428D01*
X61066666Y-47290428D02*
X61333333Y-47004714D01*
X61333333Y-47004714D02*
X61600000Y-46861857D01*
X63866666Y-49719000D02*
X64266666Y-49861857D01*
X64266666Y-49861857D02*
X64933333Y-49861857D01*
X64933333Y-49861857D02*
X65199999Y-49719000D01*
X65199999Y-49719000D02*
X65333333Y-49576142D01*
X65333333Y-49576142D02*
X65466666Y-49290428D01*
X65466666Y-49290428D02*
X65466666Y-49004714D01*
X65466666Y-49004714D02*
X65333333Y-48719000D01*
X65333333Y-48719000D02*
X65199999Y-48576142D01*
X65199999Y-48576142D02*
X64933333Y-48433285D01*
X64933333Y-48433285D02*
X64399999Y-48290428D01*
X64399999Y-48290428D02*
X64133333Y-48147571D01*
X64133333Y-48147571D02*
X63999999Y-48004714D01*
X63999999Y-48004714D02*
X63866666Y-47719000D01*
X63866666Y-47719000D02*
X63866666Y-47433285D01*
X63866666Y-47433285D02*
X63999999Y-47147571D01*
X63999999Y-47147571D02*
X64133333Y-47004714D01*
X64133333Y-47004714D02*
X64399999Y-46861857D01*
X64399999Y-46861857D02*
X65066666Y-46861857D01*
X65066666Y-46861857D02*
X65466666Y-47004714D01*
X68266666Y-49576142D02*
X68133333Y-49719000D01*
X68133333Y-49719000D02*
X67733333Y-49861857D01*
X67733333Y-49861857D02*
X67466666Y-49861857D01*
X67466666Y-49861857D02*
X67066666Y-49719000D01*
X67066666Y-49719000D02*
X66800000Y-49433285D01*
X66800000Y-49433285D02*
X66666666Y-49147571D01*
X66666666Y-49147571D02*
X66533333Y-48576142D01*
X66533333Y-48576142D02*
X66533333Y-48147571D01*
X66533333Y-48147571D02*
X66666666Y-47576142D01*
X66666666Y-47576142D02*
X66800000Y-47290428D01*
X66800000Y-47290428D02*
X67066666Y-47004714D01*
X67066666Y-47004714D02*
X67466666Y-46861857D01*
X67466666Y-46861857D02*
X67733333Y-46861857D01*
X67733333Y-46861857D02*
X68133333Y-47004714D01*
X68133333Y-47004714D02*
X68266666Y-47147571D01*
D11*
X60609524Y-162075914D02*
X60609524Y-160275914D01*
X60609524Y-160275914D02*
X61219048Y-160275914D01*
X61219048Y-160275914D02*
X61371429Y-160361628D01*
X61371429Y-160361628D02*
X61447619Y-160447342D01*
X61447619Y-160447342D02*
X61523810Y-160618771D01*
X61523810Y-160618771D02*
X61523810Y-160875914D01*
X61523810Y-160875914D02*
X61447619Y-161047342D01*
X61447619Y-161047342D02*
X61371429Y-161133057D01*
X61371429Y-161133057D02*
X61219048Y-161218771D01*
X61219048Y-161218771D02*
X60609524Y-161218771D01*
X62209524Y-160275914D02*
X62209524Y-161733057D01*
X62209524Y-161733057D02*
X62285714Y-161904485D01*
X62285714Y-161904485D02*
X62361905Y-161990200D01*
X62361905Y-161990200D02*
X62514286Y-162075914D01*
X62514286Y-162075914D02*
X62819048Y-162075914D01*
X62819048Y-162075914D02*
X62971429Y-161990200D01*
X62971429Y-161990200D02*
X63047619Y-161904485D01*
X63047619Y-161904485D02*
X63123810Y-161733057D01*
X63123810Y-161733057D02*
X63123810Y-160275914D01*
X64647619Y-162075914D02*
X63885714Y-162075914D01*
X63885714Y-162075914D02*
X63885714Y-160275914D01*
X65104761Y-161990200D02*
X65333333Y-162075914D01*
X65333333Y-162075914D02*
X65714285Y-162075914D01*
X65714285Y-162075914D02*
X65866666Y-161990200D01*
X65866666Y-161990200D02*
X65942857Y-161904485D01*
X65942857Y-161904485D02*
X66019047Y-161733057D01*
X66019047Y-161733057D02*
X66019047Y-161561628D01*
X66019047Y-161561628D02*
X65942857Y-161390200D01*
X65942857Y-161390200D02*
X65866666Y-161304485D01*
X65866666Y-161304485D02*
X65714285Y-161218771D01*
X65714285Y-161218771D02*
X65409523Y-161133057D01*
X65409523Y-161133057D02*
X65257142Y-161047342D01*
X65257142Y-161047342D02*
X65180952Y-160961628D01*
X65180952Y-160961628D02*
X65104761Y-160790200D01*
X65104761Y-160790200D02*
X65104761Y-160618771D01*
X65104761Y-160618771D02*
X65180952Y-160447342D01*
X65180952Y-160447342D02*
X65257142Y-160361628D01*
X65257142Y-160361628D02*
X65409523Y-160275914D01*
X65409523Y-160275914D02*
X65790476Y-160275914D01*
X65790476Y-160275914D02*
X66019047Y-160361628D01*
X66704762Y-161133057D02*
X67238095Y-161133057D01*
X67466667Y-162075914D02*
X66704762Y-162075914D01*
X66704762Y-162075914D02*
X66704762Y-160275914D01*
X66704762Y-160275914D02*
X67466667Y-160275914D01*
X62400000Y-163173914D02*
X62704762Y-163173914D01*
X62704762Y-163173914D02*
X62857143Y-163259628D01*
X62857143Y-163259628D02*
X63009524Y-163431057D01*
X63009524Y-163431057D02*
X63085714Y-163773914D01*
X63085714Y-163773914D02*
X63085714Y-164373914D01*
X63085714Y-164373914D02*
X63009524Y-164716771D01*
X63009524Y-164716771D02*
X62857143Y-164888200D01*
X62857143Y-164888200D02*
X62704762Y-164973914D01*
X62704762Y-164973914D02*
X62400000Y-164973914D01*
X62400000Y-164973914D02*
X62247619Y-164888200D01*
X62247619Y-164888200D02*
X62095238Y-164716771D01*
X62095238Y-164716771D02*
X62019047Y-164373914D01*
X62019047Y-164373914D02*
X62019047Y-163773914D01*
X62019047Y-163773914D02*
X62095238Y-163431057D01*
X62095238Y-163431057D02*
X62247619Y-163259628D01*
X62247619Y-163259628D02*
X62400000Y-163173914D01*
X63771428Y-163173914D02*
X63771428Y-164631057D01*
X63771428Y-164631057D02*
X63847618Y-164802485D01*
X63847618Y-164802485D02*
X63923809Y-164888200D01*
X63923809Y-164888200D02*
X64076190Y-164973914D01*
X64076190Y-164973914D02*
X64380952Y-164973914D01*
X64380952Y-164973914D02*
X64533333Y-164888200D01*
X64533333Y-164888200D02*
X64609523Y-164802485D01*
X64609523Y-164802485D02*
X64685714Y-164631057D01*
X64685714Y-164631057D02*
X64685714Y-163173914D01*
X65219046Y-163173914D02*
X66133332Y-163173914D01*
X65676189Y-164973914D02*
X65676189Y-163173914D01*
X42233332Y-170473200D02*
X42166665Y-170406533D01*
X42166665Y-170406533D02*
X42033332Y-170339866D01*
X42033332Y-170339866D02*
X41899998Y-170339866D01*
X41899998Y-170339866D02*
X41766665Y-170406533D01*
X41766665Y-170406533D02*
X41699998Y-170473200D01*
X41699998Y-170473200D02*
X41633332Y-170606533D01*
X41633332Y-170606533D02*
X41633332Y-170739866D01*
X41633332Y-170739866D02*
X41699998Y-170873200D01*
X41699998Y-170873200D02*
X41766665Y-170939866D01*
X41766665Y-170939866D02*
X41899998Y-171006533D01*
X41899998Y-171006533D02*
X42033332Y-171006533D01*
X42033332Y-171006533D02*
X42166665Y-170939866D01*
X42166665Y-170939866D02*
X42233332Y-170873200D01*
X42233332Y-170339866D02*
X42233332Y-170873200D01*
X42233332Y-170873200D02*
X42299998Y-170939866D01*
X42299998Y-170939866D02*
X42366665Y-170939866D01*
X42366665Y-170939866D02*
X42499998Y-170873200D01*
X42499998Y-170873200D02*
X42566665Y-170739866D01*
X42566665Y-170739866D02*
X42566665Y-170406533D01*
X42566665Y-170406533D02*
X42433332Y-170206533D01*
X42433332Y-170206533D02*
X42233332Y-170073200D01*
X42233332Y-170073200D02*
X41966665Y-170006533D01*
X41966665Y-170006533D02*
X41699998Y-170073200D01*
X41699998Y-170073200D02*
X41499998Y-170206533D01*
X41499998Y-170206533D02*
X41366665Y-170406533D01*
X41366665Y-170406533D02*
X41299998Y-170673200D01*
X41299998Y-170673200D02*
X41366665Y-170939866D01*
X41366665Y-170939866D02*
X41499998Y-171139866D01*
X41499998Y-171139866D02*
X41699998Y-171273200D01*
X41699998Y-171273200D02*
X41966665Y-171339866D01*
X41966665Y-171339866D02*
X42233332Y-171273200D01*
X42233332Y-171273200D02*
X42433332Y-171139866D01*
X43166665Y-171139866D02*
X43166665Y-169739866D01*
X43166665Y-170273200D02*
X43299998Y-170206533D01*
X43299998Y-170206533D02*
X43566665Y-170206533D01*
X43566665Y-170206533D02*
X43699998Y-170273200D01*
X43699998Y-170273200D02*
X43766665Y-170339866D01*
X43766665Y-170339866D02*
X43833332Y-170473200D01*
X43833332Y-170473200D02*
X43833332Y-170873200D01*
X43833332Y-170873200D02*
X43766665Y-171006533D01*
X43766665Y-171006533D02*
X43699998Y-171073200D01*
X43699998Y-171073200D02*
X43566665Y-171139866D01*
X43566665Y-171139866D02*
X43299998Y-171139866D01*
X43299998Y-171139866D02*
X43166665Y-171073200D01*
X44966665Y-171073200D02*
X44833332Y-171139866D01*
X44833332Y-171139866D02*
X44566665Y-171139866D01*
X44566665Y-171139866D02*
X44433332Y-171073200D01*
X44433332Y-171073200D02*
X44366665Y-170939866D01*
X44366665Y-170939866D02*
X44366665Y-170406533D01*
X44366665Y-170406533D02*
X44433332Y-170273200D01*
X44433332Y-170273200D02*
X44566665Y-170206533D01*
X44566665Y-170206533D02*
X44833332Y-170206533D01*
X44833332Y-170206533D02*
X44966665Y-170273200D01*
X44966665Y-170273200D02*
X45033332Y-170406533D01*
X45033332Y-170406533D02*
X45033332Y-170539866D01*
X45033332Y-170539866D02*
X44366665Y-170673200D01*
X45633332Y-170206533D02*
X45633332Y-171139866D01*
X45633332Y-170339866D02*
X45699999Y-170273200D01*
X45699999Y-170273200D02*
X45833332Y-170206533D01*
X45833332Y-170206533D02*
X46033332Y-170206533D01*
X46033332Y-170206533D02*
X46166665Y-170273200D01*
X46166665Y-170273200D02*
X46233332Y-170406533D01*
X46233332Y-170406533D02*
X46233332Y-171139866D01*
X46899999Y-170206533D02*
X46899999Y-171406533D01*
X46899999Y-171406533D02*
X46833332Y-171539866D01*
X46833332Y-171539866D02*
X46699999Y-171606533D01*
X46699999Y-171606533D02*
X46633332Y-171606533D01*
X46899999Y-169739866D02*
X46833332Y-169806533D01*
X46833332Y-169806533D02*
X46899999Y-169873200D01*
X46899999Y-169873200D02*
X46966666Y-169806533D01*
X46966666Y-169806533D02*
X46899999Y-169739866D01*
X46899999Y-169739866D02*
X46899999Y-169873200D01*
X47566666Y-171139866D02*
X47566666Y-170206533D01*
X47566666Y-169739866D02*
X47499999Y-169806533D01*
X47499999Y-169806533D02*
X47566666Y-169873200D01*
X47566666Y-169873200D02*
X47633333Y-169806533D01*
X47633333Y-169806533D02*
X47566666Y-169739866D01*
X47566666Y-169739866D02*
X47566666Y-169873200D01*
X48833333Y-171139866D02*
X48833333Y-170406533D01*
X48833333Y-170406533D02*
X48766666Y-170273200D01*
X48766666Y-170273200D02*
X48633333Y-170206533D01*
X48633333Y-170206533D02*
X48366666Y-170206533D01*
X48366666Y-170206533D02*
X48233333Y-170273200D01*
X48833333Y-171073200D02*
X48700000Y-171139866D01*
X48700000Y-171139866D02*
X48366666Y-171139866D01*
X48366666Y-171139866D02*
X48233333Y-171073200D01*
X48233333Y-171073200D02*
X48166666Y-170939866D01*
X48166666Y-170939866D02*
X48166666Y-170806533D01*
X48166666Y-170806533D02*
X48233333Y-170673200D01*
X48233333Y-170673200D02*
X48366666Y-170606533D01*
X48366666Y-170606533D02*
X48700000Y-170606533D01*
X48700000Y-170606533D02*
X48833333Y-170539866D01*
X49700000Y-171139866D02*
X49566667Y-171073200D01*
X49566667Y-171073200D02*
X49500000Y-171006533D01*
X49500000Y-171006533D02*
X49433333Y-170873200D01*
X49433333Y-170873200D02*
X49433333Y-170473200D01*
X49433333Y-170473200D02*
X49500000Y-170339866D01*
X49500000Y-170339866D02*
X49566667Y-170273200D01*
X49566667Y-170273200D02*
X49700000Y-170206533D01*
X49700000Y-170206533D02*
X49900000Y-170206533D01*
X49900000Y-170206533D02*
X50033333Y-170273200D01*
X50033333Y-170273200D02*
X50100000Y-170339866D01*
X50100000Y-170339866D02*
X50166667Y-170473200D01*
X50166667Y-170473200D02*
X50166667Y-170873200D01*
X50166667Y-170873200D02*
X50100000Y-171006533D01*
X50100000Y-171006533D02*
X50033333Y-171073200D01*
X50033333Y-171073200D02*
X49900000Y-171139866D01*
X49900000Y-171139866D02*
X49700000Y-171139866D01*
X50766667Y-171139866D02*
X50766667Y-170206533D01*
X50766667Y-170339866D02*
X50833334Y-170273200D01*
X50833334Y-170273200D02*
X50966667Y-170206533D01*
X50966667Y-170206533D02*
X51166667Y-170206533D01*
X51166667Y-170206533D02*
X51300000Y-170273200D01*
X51300000Y-170273200D02*
X51366667Y-170406533D01*
X51366667Y-170406533D02*
X51366667Y-171139866D01*
X51366667Y-170406533D02*
X51433334Y-170273200D01*
X51433334Y-170273200D02*
X51566667Y-170206533D01*
X51566667Y-170206533D02*
X51766667Y-170206533D01*
X51766667Y-170206533D02*
X51900000Y-170273200D01*
X51900000Y-170273200D02*
X51966667Y-170406533D01*
X51966667Y-170406533D02*
X51966667Y-171139866D01*
X52833334Y-171139866D02*
X52700001Y-171073200D01*
X52700001Y-171073200D02*
X52633334Y-171006533D01*
X52633334Y-171006533D02*
X52566667Y-170873200D01*
X52566667Y-170873200D02*
X52566667Y-170473200D01*
X52566667Y-170473200D02*
X52633334Y-170339866D01*
X52633334Y-170339866D02*
X52700001Y-170273200D01*
X52700001Y-170273200D02*
X52833334Y-170206533D01*
X52833334Y-170206533D02*
X53033334Y-170206533D01*
X53033334Y-170206533D02*
X53166667Y-170273200D01*
X53166667Y-170273200D02*
X53233334Y-170339866D01*
X53233334Y-170339866D02*
X53300001Y-170473200D01*
X53300001Y-170473200D02*
X53300001Y-170873200D01*
X53300001Y-170873200D02*
X53233334Y-171006533D01*
X53233334Y-171006533D02*
X53166667Y-171073200D01*
X53166667Y-171073200D02*
X53033334Y-171139866D01*
X53033334Y-171139866D02*
X52833334Y-171139866D01*
X54500001Y-171139866D02*
X54500001Y-169739866D01*
X54500001Y-171073200D02*
X54366668Y-171139866D01*
X54366668Y-171139866D02*
X54100001Y-171139866D01*
X54100001Y-171139866D02*
X53966668Y-171073200D01*
X53966668Y-171073200D02*
X53900001Y-171006533D01*
X53900001Y-171006533D02*
X53833334Y-170873200D01*
X53833334Y-170873200D02*
X53833334Y-170473200D01*
X53833334Y-170473200D02*
X53900001Y-170339866D01*
X53900001Y-170339866D02*
X53966668Y-170273200D01*
X53966668Y-170273200D02*
X54100001Y-170206533D01*
X54100001Y-170206533D02*
X54366668Y-170206533D01*
X54366668Y-170206533D02*
X54500001Y-170273200D01*
X55766668Y-170206533D02*
X55766668Y-171139866D01*
X55166668Y-170206533D02*
X55166668Y-170939866D01*
X55166668Y-170939866D02*
X55233335Y-171073200D01*
X55233335Y-171073200D02*
X55366668Y-171139866D01*
X55366668Y-171139866D02*
X55566668Y-171139866D01*
X55566668Y-171139866D02*
X55700001Y-171073200D01*
X55700001Y-171073200D02*
X55766668Y-171006533D01*
X56633335Y-171139866D02*
X56500002Y-171073200D01*
X56500002Y-171073200D02*
X56433335Y-170939866D01*
X56433335Y-170939866D02*
X56433335Y-169739866D01*
X57766668Y-171139866D02*
X57766668Y-170406533D01*
X57766668Y-170406533D02*
X57700001Y-170273200D01*
X57700001Y-170273200D02*
X57566668Y-170206533D01*
X57566668Y-170206533D02*
X57300001Y-170206533D01*
X57300001Y-170206533D02*
X57166668Y-170273200D01*
X57766668Y-171073200D02*
X57633335Y-171139866D01*
X57633335Y-171139866D02*
X57300001Y-171139866D01*
X57300001Y-171139866D02*
X57166668Y-171073200D01*
X57166668Y-171073200D02*
X57100001Y-170939866D01*
X57100001Y-170939866D02*
X57100001Y-170806533D01*
X57100001Y-170806533D02*
X57166668Y-170673200D01*
X57166668Y-170673200D02*
X57300001Y-170606533D01*
X57300001Y-170606533D02*
X57633335Y-170606533D01*
X57633335Y-170606533D02*
X57766668Y-170539866D01*
X58433335Y-171139866D02*
X58433335Y-170206533D01*
X58433335Y-170473200D02*
X58500002Y-170339866D01*
X58500002Y-170339866D02*
X58566668Y-170273200D01*
X58566668Y-170273200D02*
X58700002Y-170206533D01*
X58700002Y-170206533D02*
X58833335Y-170206533D01*
X64371429Y-76382057D02*
X63771429Y-76382057D01*
X63771429Y-77324914D02*
X63771429Y-75524914D01*
X63771429Y-75524914D02*
X64628572Y-75524914D01*
X65314286Y-77324914D02*
X65314286Y-75524914D01*
X66171429Y-77324914D02*
X66171429Y-75524914D01*
X66171429Y-75524914D02*
X67200000Y-77324914D01*
X67200000Y-77324914D02*
X67200000Y-75524914D01*
X68057143Y-76382057D02*
X68657143Y-76382057D01*
X68914286Y-77324914D02*
X68057143Y-77324914D01*
X68057143Y-77324914D02*
X68057143Y-75524914D01*
X68057143Y-75524914D02*
X68914286Y-75524914D01*
X45728571Y-98333057D02*
X45128571Y-98333057D01*
X45128571Y-99275914D02*
X45128571Y-97475914D01*
X45128571Y-97475914D02*
X45985714Y-97475914D01*
X46671428Y-99275914D02*
X46671428Y-97475914D01*
X46671428Y-97475914D02*
X47271428Y-98761628D01*
X47271428Y-98761628D02*
X47871428Y-97475914D01*
X47871428Y-97475914D02*
X47871428Y-99275914D01*
X41528572Y-101659628D02*
X42385715Y-101659628D01*
X41357143Y-102173914D02*
X41957143Y-100373914D01*
X41957143Y-100373914D02*
X42557143Y-102173914D01*
X43157143Y-102173914D02*
X43157143Y-100373914D01*
X43157143Y-100373914D02*
X43757143Y-101659628D01*
X43757143Y-101659628D02*
X44357143Y-100373914D01*
X44357143Y-100373914D02*
X44357143Y-102173914D01*
X45557143Y-100373914D02*
X45900000Y-100373914D01*
X45900000Y-100373914D02*
X46071429Y-100459628D01*
X46071429Y-100459628D02*
X46242857Y-100631057D01*
X46242857Y-100631057D02*
X46328572Y-100973914D01*
X46328572Y-100973914D02*
X46328572Y-101573914D01*
X46328572Y-101573914D02*
X46242857Y-101916771D01*
X46242857Y-101916771D02*
X46071429Y-102088200D01*
X46071429Y-102088200D02*
X45900000Y-102173914D01*
X45900000Y-102173914D02*
X45557143Y-102173914D01*
X45557143Y-102173914D02*
X45385715Y-102088200D01*
X45385715Y-102088200D02*
X45214286Y-101916771D01*
X45214286Y-101916771D02*
X45128572Y-101573914D01*
X45128572Y-101573914D02*
X45128572Y-100973914D01*
X45128572Y-100973914D02*
X45214286Y-100631057D01*
X45214286Y-100631057D02*
X45385715Y-100459628D01*
X45385715Y-100459628D02*
X45557143Y-100373914D01*
X47100000Y-100373914D02*
X47100000Y-101831057D01*
X47100000Y-101831057D02*
X47185714Y-102002485D01*
X47185714Y-102002485D02*
X47271429Y-102088200D01*
X47271429Y-102088200D02*
X47442857Y-102173914D01*
X47442857Y-102173914D02*
X47785714Y-102173914D01*
X47785714Y-102173914D02*
X47957143Y-102088200D01*
X47957143Y-102088200D02*
X48042857Y-102002485D01*
X48042857Y-102002485D02*
X48128571Y-101831057D01*
X48128571Y-101831057D02*
X48128571Y-100373914D01*
X48985714Y-102173914D02*
X48985714Y-100373914D01*
X48985714Y-100373914D02*
X50014285Y-102173914D01*
X50014285Y-102173914D02*
X50014285Y-100373914D01*
X50614285Y-100373914D02*
X51642857Y-100373914D01*
X51128571Y-102173914D02*
X51128571Y-100373914D01*
X55041838Y-144665802D02*
X55041838Y-142865802D01*
X55041838Y-142865802D02*
X55727552Y-142865802D01*
X55727552Y-142865802D02*
X55898981Y-142951516D01*
X55898981Y-142951516D02*
X55984695Y-143037230D01*
X55984695Y-143037230D02*
X56070409Y-143208659D01*
X56070409Y-143208659D02*
X56070409Y-143465802D01*
X56070409Y-143465802D02*
X55984695Y-143637230D01*
X55984695Y-143637230D02*
X55898981Y-143722945D01*
X55898981Y-143722945D02*
X55727552Y-143808659D01*
X55727552Y-143808659D02*
X55041838Y-143808659D01*
X56841838Y-142865802D02*
X56841838Y-144322945D01*
X56841838Y-144322945D02*
X56927552Y-144494373D01*
X56927552Y-144494373D02*
X57013267Y-144580088D01*
X57013267Y-144580088D02*
X57184695Y-144665802D01*
X57184695Y-144665802D02*
X57527552Y-144665802D01*
X57527552Y-144665802D02*
X57698981Y-144580088D01*
X57698981Y-144580088D02*
X57784695Y-144494373D01*
X57784695Y-144494373D02*
X57870409Y-144322945D01*
X57870409Y-144322945D02*
X57870409Y-142865802D01*
X59584695Y-144665802D02*
X58727552Y-144665802D01*
X58727552Y-144665802D02*
X58727552Y-142865802D01*
X60098981Y-144580088D02*
X60356124Y-144665802D01*
X60356124Y-144665802D02*
X60784695Y-144665802D01*
X60784695Y-144665802D02*
X60956124Y-144580088D01*
X60956124Y-144580088D02*
X61041838Y-144494373D01*
X61041838Y-144494373D02*
X61127552Y-144322945D01*
X61127552Y-144322945D02*
X61127552Y-144151516D01*
X61127552Y-144151516D02*
X61041838Y-143980088D01*
X61041838Y-143980088D02*
X60956124Y-143894373D01*
X60956124Y-143894373D02*
X60784695Y-143808659D01*
X60784695Y-143808659D02*
X60441838Y-143722945D01*
X60441838Y-143722945D02*
X60270409Y-143637230D01*
X60270409Y-143637230D02*
X60184695Y-143551516D01*
X60184695Y-143551516D02*
X60098981Y-143380088D01*
X60098981Y-143380088D02*
X60098981Y-143208659D01*
X60098981Y-143208659D02*
X60184695Y-143037230D01*
X60184695Y-143037230D02*
X60270409Y-142951516D01*
X60270409Y-142951516D02*
X60441838Y-142865802D01*
X60441838Y-142865802D02*
X60870409Y-142865802D01*
X60870409Y-142865802D02*
X61127552Y-142951516D01*
X61898981Y-143722945D02*
X62498981Y-143722945D01*
X62756124Y-144665802D02*
X61898981Y-144665802D01*
X61898981Y-144665802D02*
X61898981Y-142865802D01*
X61898981Y-142865802D02*
X62756124Y-142865802D01*
X55127552Y-145763802D02*
X55556124Y-147563802D01*
X55556124Y-147563802D02*
X55898981Y-146278088D01*
X55898981Y-146278088D02*
X56241838Y-147563802D01*
X56241838Y-147563802D02*
X56670410Y-145763802D01*
X57356124Y-147563802D02*
X57356124Y-145763802D01*
X58213267Y-147563802D02*
X58213267Y-145763802D01*
X58213267Y-145763802D02*
X58641838Y-145763802D01*
X58641838Y-145763802D02*
X58898981Y-145849516D01*
X58898981Y-145849516D02*
X59070410Y-146020945D01*
X59070410Y-146020945D02*
X59156124Y-146192373D01*
X59156124Y-146192373D02*
X59241838Y-146535230D01*
X59241838Y-146535230D02*
X59241838Y-146792373D01*
X59241838Y-146792373D02*
X59156124Y-147135230D01*
X59156124Y-147135230D02*
X59070410Y-147306659D01*
X59070410Y-147306659D02*
X58898981Y-147478088D01*
X58898981Y-147478088D02*
X58641838Y-147563802D01*
X58641838Y-147563802D02*
X58213267Y-147563802D01*
X59756124Y-145763802D02*
X60784696Y-145763802D01*
X60270410Y-147563802D02*
X60270410Y-145763802D01*
X61384696Y-147563802D02*
X61384696Y-145763802D01*
X61384696Y-146620945D02*
X62413267Y-146620945D01*
X62413267Y-147563802D02*
X62413267Y-145763802D01*
X80734819Y-86375237D02*
X80734819Y-85803809D01*
X81734819Y-86089523D02*
X80734819Y-86089523D01*
X80734819Y-85470475D02*
X81544342Y-85470475D01*
X81544342Y-85470475D02*
X81639580Y-85422856D01*
X81639580Y-85422856D02*
X81687200Y-85375237D01*
X81687200Y-85375237D02*
X81734819Y-85279999D01*
X81734819Y-85279999D02*
X81734819Y-85089523D01*
X81734819Y-85089523D02*
X81687200Y-84994285D01*
X81687200Y-84994285D02*
X81639580Y-84946666D01*
X81639580Y-84946666D02*
X81544342Y-84899047D01*
X81544342Y-84899047D02*
X80734819Y-84899047D01*
X81734819Y-84422856D02*
X80734819Y-84422856D01*
X80734819Y-84422856D02*
X81734819Y-83851428D01*
X81734819Y-83851428D02*
X80734819Y-83851428D01*
X81734819Y-83375237D02*
X80734819Y-83375237D01*
X81734819Y-82899047D02*
X80734819Y-82899047D01*
X80734819Y-82899047D02*
X81734819Y-82327619D01*
X81734819Y-82327619D02*
X80734819Y-82327619D01*
X80782438Y-81327619D02*
X80734819Y-81422857D01*
X80734819Y-81422857D02*
X80734819Y-81565714D01*
X80734819Y-81565714D02*
X80782438Y-81708571D01*
X80782438Y-81708571D02*
X80877676Y-81803809D01*
X80877676Y-81803809D02*
X80972914Y-81851428D01*
X80972914Y-81851428D02*
X81163390Y-81899047D01*
X81163390Y-81899047D02*
X81306247Y-81899047D01*
X81306247Y-81899047D02*
X81496723Y-81851428D01*
X81496723Y-81851428D02*
X81591961Y-81803809D01*
X81591961Y-81803809D02*
X81687200Y-81708571D01*
X81687200Y-81708571D02*
X81734819Y-81565714D01*
X81734819Y-81565714D02*
X81734819Y-81470476D01*
X81734819Y-81470476D02*
X81687200Y-81327619D01*
X81687200Y-81327619D02*
X81639580Y-81280000D01*
X81639580Y-81280000D02*
X81306247Y-81280000D01*
X81306247Y-81280000D02*
X81306247Y-81470476D01*
X81830057Y-81089524D02*
X81830057Y-80327619D01*
X81211009Y-79756190D02*
X81211009Y-80089523D01*
X81734819Y-80089523D02*
X80734819Y-80089523D01*
X80734819Y-80089523D02*
X80734819Y-79613333D01*
X81734819Y-79232380D02*
X80734819Y-79232380D01*
X81734819Y-78756190D02*
X80734819Y-78756190D01*
X80734819Y-78756190D02*
X81734819Y-78184762D01*
X81734819Y-78184762D02*
X80734819Y-78184762D01*
X81211009Y-77708571D02*
X81211009Y-77375238D01*
X81734819Y-77232381D02*
X81734819Y-77708571D01*
X81734819Y-77708571D02*
X80734819Y-77708571D01*
X80734819Y-77708571D02*
X80734819Y-77232381D01*
X81734819Y-76280000D02*
X81734819Y-76851428D01*
X81734819Y-76565714D02*
X80734819Y-76565714D01*
X80734819Y-76565714D02*
X80877676Y-76660952D01*
X80877676Y-76660952D02*
X80972914Y-76756190D01*
X80972914Y-76756190D02*
X81020533Y-76851428D01*
X96974819Y-79623333D02*
X96498628Y-79956666D01*
X96974819Y-80194761D02*
X95974819Y-80194761D01*
X95974819Y-80194761D02*
X95974819Y-79813809D01*
X95974819Y-79813809D02*
X96022438Y-79718571D01*
X96022438Y-79718571D02*
X96070057Y-79670952D01*
X96070057Y-79670952D02*
X96165295Y-79623333D01*
X96165295Y-79623333D02*
X96308152Y-79623333D01*
X96308152Y-79623333D02*
X96403390Y-79670952D01*
X96403390Y-79670952D02*
X96451009Y-79718571D01*
X96451009Y-79718571D02*
X96498628Y-79813809D01*
X96498628Y-79813809D02*
X96498628Y-80194761D01*
X96451009Y-79194761D02*
X96451009Y-78861428D01*
X96974819Y-78718571D02*
X96974819Y-79194761D01*
X96974819Y-79194761D02*
X95974819Y-79194761D01*
X95974819Y-79194761D02*
X95974819Y-78718571D01*
X96451009Y-77956666D02*
X96451009Y-78289999D01*
X96974819Y-78289999D02*
X95974819Y-78289999D01*
X95974819Y-78289999D02*
X95974819Y-77813809D01*
X95974819Y-77289999D02*
X96212914Y-77289999D01*
X96117676Y-77528094D02*
X96212914Y-77289999D01*
X96212914Y-77289999D02*
X96117676Y-77051904D01*
X96403390Y-77432856D02*
X96212914Y-77289999D01*
X96212914Y-77289999D02*
X96403390Y-77147142D01*
X95974819Y-76528094D02*
X96212914Y-76528094D01*
X96117676Y-76766189D02*
X96212914Y-76528094D01*
X96212914Y-76528094D02*
X96117676Y-76289999D01*
X96403390Y-76670951D02*
X96212914Y-76528094D01*
X96212914Y-76528094D02*
X96403390Y-76385237D01*
X73114819Y-59673332D02*
X73114819Y-59101904D01*
X74114819Y-59387618D02*
X73114819Y-59387618D01*
X73114819Y-58768570D02*
X73924342Y-58768570D01*
X73924342Y-58768570D02*
X74019580Y-58720951D01*
X74019580Y-58720951D02*
X74067200Y-58673332D01*
X74067200Y-58673332D02*
X74114819Y-58578094D01*
X74114819Y-58578094D02*
X74114819Y-58387618D01*
X74114819Y-58387618D02*
X74067200Y-58292380D01*
X74067200Y-58292380D02*
X74019580Y-58244761D01*
X74019580Y-58244761D02*
X73924342Y-58197142D01*
X73924342Y-58197142D02*
X73114819Y-58197142D01*
X74114819Y-57720951D02*
X73114819Y-57720951D01*
X73114819Y-57720951D02*
X74114819Y-57149523D01*
X74114819Y-57149523D02*
X73114819Y-57149523D01*
X74114819Y-56673332D02*
X73114819Y-56673332D01*
X74114819Y-56197142D02*
X73114819Y-56197142D01*
X73114819Y-56197142D02*
X74114819Y-55625714D01*
X74114819Y-55625714D02*
X73114819Y-55625714D01*
X73162438Y-54625714D02*
X73114819Y-54720952D01*
X73114819Y-54720952D02*
X73114819Y-54863809D01*
X73114819Y-54863809D02*
X73162438Y-55006666D01*
X73162438Y-55006666D02*
X73257676Y-55101904D01*
X73257676Y-55101904D02*
X73352914Y-55149523D01*
X73352914Y-55149523D02*
X73543390Y-55197142D01*
X73543390Y-55197142D02*
X73686247Y-55197142D01*
X73686247Y-55197142D02*
X73876723Y-55149523D01*
X73876723Y-55149523D02*
X73971961Y-55101904D01*
X73971961Y-55101904D02*
X74067200Y-55006666D01*
X74067200Y-55006666D02*
X74114819Y-54863809D01*
X74114819Y-54863809D02*
X74114819Y-54768571D01*
X74114819Y-54768571D02*
X74067200Y-54625714D01*
X74067200Y-54625714D02*
X74019580Y-54578095D01*
X74019580Y-54578095D02*
X73686247Y-54578095D01*
X73686247Y-54578095D02*
X73686247Y-54768571D01*
X74210057Y-54387619D02*
X74210057Y-53625714D01*
X74019580Y-52816190D02*
X74067200Y-52863809D01*
X74067200Y-52863809D02*
X74114819Y-53006666D01*
X74114819Y-53006666D02*
X74114819Y-53101904D01*
X74114819Y-53101904D02*
X74067200Y-53244761D01*
X74067200Y-53244761D02*
X73971961Y-53339999D01*
X73971961Y-53339999D02*
X73876723Y-53387618D01*
X73876723Y-53387618D02*
X73686247Y-53435237D01*
X73686247Y-53435237D02*
X73543390Y-53435237D01*
X73543390Y-53435237D02*
X73352914Y-53387618D01*
X73352914Y-53387618D02*
X73257676Y-53339999D01*
X73257676Y-53339999D02*
X73162438Y-53244761D01*
X73162438Y-53244761D02*
X73114819Y-53101904D01*
X73114819Y-53101904D02*
X73114819Y-53006666D01*
X73114819Y-53006666D02*
X73162438Y-52863809D01*
X73162438Y-52863809D02*
X73210057Y-52816190D01*
X73114819Y-52197142D02*
X73114819Y-52006666D01*
X73114819Y-52006666D02*
X73162438Y-51911428D01*
X73162438Y-51911428D02*
X73257676Y-51816190D01*
X73257676Y-51816190D02*
X73448152Y-51768571D01*
X73448152Y-51768571D02*
X73781485Y-51768571D01*
X73781485Y-51768571D02*
X73971961Y-51816190D01*
X73971961Y-51816190D02*
X74067200Y-51911428D01*
X74067200Y-51911428D02*
X74114819Y-52006666D01*
X74114819Y-52006666D02*
X74114819Y-52197142D01*
X74114819Y-52197142D02*
X74067200Y-52292380D01*
X74067200Y-52292380D02*
X73971961Y-52387618D01*
X73971961Y-52387618D02*
X73781485Y-52435237D01*
X73781485Y-52435237D02*
X73448152Y-52435237D01*
X73448152Y-52435237D02*
X73257676Y-52387618D01*
X73257676Y-52387618D02*
X73162438Y-52292380D01*
X73162438Y-52292380D02*
X73114819Y-52197142D01*
X73829104Y-51387618D02*
X73829104Y-50911428D01*
X74114819Y-51482856D02*
X73114819Y-51149523D01*
X73114819Y-51149523D02*
X74114819Y-50816190D01*
X74114819Y-49911428D02*
X73638628Y-50244761D01*
X74114819Y-50482856D02*
X73114819Y-50482856D01*
X73114819Y-50482856D02*
X73114819Y-50101904D01*
X73114819Y-50101904D02*
X73162438Y-50006666D01*
X73162438Y-50006666D02*
X73210057Y-49959047D01*
X73210057Y-49959047D02*
X73305295Y-49911428D01*
X73305295Y-49911428D02*
X73448152Y-49911428D01*
X73448152Y-49911428D02*
X73543390Y-49959047D01*
X73543390Y-49959047D02*
X73591009Y-50006666D01*
X73591009Y-50006666D02*
X73638628Y-50101904D01*
X73638628Y-50101904D02*
X73638628Y-50482856D01*
X74067200Y-49530475D02*
X74114819Y-49387618D01*
X74114819Y-49387618D02*
X74114819Y-49149523D01*
X74114819Y-49149523D02*
X74067200Y-49054285D01*
X74067200Y-49054285D02*
X74019580Y-49006666D01*
X74019580Y-49006666D02*
X73924342Y-48959047D01*
X73924342Y-48959047D02*
X73829104Y-48959047D01*
X73829104Y-48959047D02*
X73733866Y-49006666D01*
X73733866Y-49006666D02*
X73686247Y-49054285D01*
X73686247Y-49054285D02*
X73638628Y-49149523D01*
X73638628Y-49149523D02*
X73591009Y-49339999D01*
X73591009Y-49339999D02*
X73543390Y-49435237D01*
X73543390Y-49435237D02*
X73495771Y-49482856D01*
X73495771Y-49482856D02*
X73400533Y-49530475D01*
X73400533Y-49530475D02*
X73305295Y-49530475D01*
X73305295Y-49530475D02*
X73210057Y-49482856D01*
X73210057Y-49482856D02*
X73162438Y-49435237D01*
X73162438Y-49435237D02*
X73114819Y-49339999D01*
X73114819Y-49339999D02*
X73114819Y-49101904D01*
X73114819Y-49101904D02*
X73162438Y-48959047D01*
X73591009Y-48530475D02*
X73591009Y-48197142D01*
X74114819Y-48054285D02*
X74114819Y-48530475D01*
X74114819Y-48530475D02*
X73114819Y-48530475D01*
X73114819Y-48530475D02*
X73114819Y-48054285D01*
X74114819Y-47101904D02*
X74114819Y-47673332D01*
X74114819Y-47387618D02*
X73114819Y-47387618D01*
X73114819Y-47387618D02*
X73257676Y-47482856D01*
X73257676Y-47482856D02*
X73352914Y-47578094D01*
X73352914Y-47578094D02*
X73400533Y-47673332D01*
X89354819Y-57213333D02*
X88878628Y-57546666D01*
X89354819Y-57784761D02*
X88354819Y-57784761D01*
X88354819Y-57784761D02*
X88354819Y-57403809D01*
X88354819Y-57403809D02*
X88402438Y-57308571D01*
X88402438Y-57308571D02*
X88450057Y-57260952D01*
X88450057Y-57260952D02*
X88545295Y-57213333D01*
X88545295Y-57213333D02*
X88688152Y-57213333D01*
X88688152Y-57213333D02*
X88783390Y-57260952D01*
X88783390Y-57260952D02*
X88831009Y-57308571D01*
X88831009Y-57308571D02*
X88878628Y-57403809D01*
X88878628Y-57403809D02*
X88878628Y-57784761D01*
X88831009Y-56784761D02*
X88831009Y-56451428D01*
X89354819Y-56308571D02*
X89354819Y-56784761D01*
X89354819Y-56784761D02*
X88354819Y-56784761D01*
X88354819Y-56784761D02*
X88354819Y-56308571D01*
X88831009Y-55546666D02*
X88831009Y-55879999D01*
X89354819Y-55879999D02*
X88354819Y-55879999D01*
X88354819Y-55879999D02*
X88354819Y-55403809D01*
X88354819Y-54879999D02*
X88592914Y-54879999D01*
X88497676Y-55118094D02*
X88592914Y-54879999D01*
X88592914Y-54879999D02*
X88497676Y-54641904D01*
X88783390Y-55022856D02*
X88592914Y-54879999D01*
X88592914Y-54879999D02*
X88783390Y-54737142D01*
X88354819Y-54118094D02*
X88592914Y-54118094D01*
X88497676Y-54356189D02*
X88592914Y-54118094D01*
X88592914Y-54118094D02*
X88497676Y-53879999D01*
X88783390Y-54260951D02*
X88592914Y-54118094D01*
X88592914Y-54118094D02*
X88783390Y-53975237D01*
X78817200Y-148257618D02*
X78864819Y-148114761D01*
X78864819Y-148114761D02*
X78864819Y-147876666D01*
X78864819Y-147876666D02*
X78817200Y-147781428D01*
X78817200Y-147781428D02*
X78769580Y-147733809D01*
X78769580Y-147733809D02*
X78674342Y-147686190D01*
X78674342Y-147686190D02*
X78579104Y-147686190D01*
X78579104Y-147686190D02*
X78483866Y-147733809D01*
X78483866Y-147733809D02*
X78436247Y-147781428D01*
X78436247Y-147781428D02*
X78388628Y-147876666D01*
X78388628Y-147876666D02*
X78341009Y-148067142D01*
X78341009Y-148067142D02*
X78293390Y-148162380D01*
X78293390Y-148162380D02*
X78245771Y-148209999D01*
X78245771Y-148209999D02*
X78150533Y-148257618D01*
X78150533Y-148257618D02*
X78055295Y-148257618D01*
X78055295Y-148257618D02*
X77960057Y-148209999D01*
X77960057Y-148209999D02*
X77912438Y-148162380D01*
X77912438Y-148162380D02*
X77864819Y-148067142D01*
X77864819Y-148067142D02*
X77864819Y-147829047D01*
X77864819Y-147829047D02*
X77912438Y-147686190D01*
X78769580Y-146686190D02*
X78817200Y-146733809D01*
X78817200Y-146733809D02*
X78864819Y-146876666D01*
X78864819Y-146876666D02*
X78864819Y-146971904D01*
X78864819Y-146971904D02*
X78817200Y-147114761D01*
X78817200Y-147114761D02*
X78721961Y-147209999D01*
X78721961Y-147209999D02*
X78626723Y-147257618D01*
X78626723Y-147257618D02*
X78436247Y-147305237D01*
X78436247Y-147305237D02*
X78293390Y-147305237D01*
X78293390Y-147305237D02*
X78102914Y-147257618D01*
X78102914Y-147257618D02*
X78007676Y-147209999D01*
X78007676Y-147209999D02*
X77912438Y-147114761D01*
X77912438Y-147114761D02*
X77864819Y-146971904D01*
X77864819Y-146971904D02*
X77864819Y-146876666D01*
X77864819Y-146876666D02*
X77912438Y-146733809D01*
X77912438Y-146733809D02*
X77960057Y-146686190D01*
X78579104Y-146305237D02*
X78579104Y-145829047D01*
X78864819Y-146400475D02*
X77864819Y-146067142D01*
X77864819Y-146067142D02*
X78864819Y-145733809D01*
X78864819Y-144924285D02*
X78864819Y-145400475D01*
X78864819Y-145400475D02*
X77864819Y-145400475D01*
X78341009Y-144590951D02*
X78341009Y-144257618D01*
X78864819Y-144114761D02*
X78864819Y-144590951D01*
X78864819Y-144590951D02*
X77864819Y-144590951D01*
X77864819Y-144590951D02*
X77864819Y-144114761D01*
X78864819Y-143162380D02*
X78864819Y-143733808D01*
X78864819Y-143448094D02*
X77864819Y-143448094D01*
X77864819Y-143448094D02*
X78007676Y-143543332D01*
X78007676Y-143543332D02*
X78102914Y-143638570D01*
X78102914Y-143638570D02*
X78150533Y-143733808D01*
X78636666Y-139934819D02*
X78636666Y-140649104D01*
X78636666Y-140649104D02*
X78589047Y-140791961D01*
X78589047Y-140791961D02*
X78493809Y-140887200D01*
X78493809Y-140887200D02*
X78350952Y-140934819D01*
X78350952Y-140934819D02*
X78255714Y-140934819D01*
X79541428Y-139934819D02*
X79350952Y-139934819D01*
X79350952Y-139934819D02*
X79255714Y-139982438D01*
X79255714Y-139982438D02*
X79208095Y-140030057D01*
X79208095Y-140030057D02*
X79112857Y-140172914D01*
X79112857Y-140172914D02*
X79065238Y-140363390D01*
X79065238Y-140363390D02*
X79065238Y-140744342D01*
X79065238Y-140744342D02*
X79112857Y-140839580D01*
X79112857Y-140839580D02*
X79160476Y-140887200D01*
X79160476Y-140887200D02*
X79255714Y-140934819D01*
X79255714Y-140934819D02*
X79446190Y-140934819D01*
X79446190Y-140934819D02*
X79541428Y-140887200D01*
X79541428Y-140887200D02*
X79589047Y-140839580D01*
X79589047Y-140839580D02*
X79636666Y-140744342D01*
X79636666Y-140744342D02*
X79636666Y-140506247D01*
X79636666Y-140506247D02*
X79589047Y-140411009D01*
X79589047Y-140411009D02*
X79541428Y-140363390D01*
X79541428Y-140363390D02*
X79446190Y-140315771D01*
X79446190Y-140315771D02*
X79255714Y-140315771D01*
X79255714Y-140315771D02*
X79160476Y-140363390D01*
X79160476Y-140363390D02*
X79112857Y-140411009D01*
X79112857Y-140411009D02*
X79065238Y-140506247D01*
X89636666Y-140034819D02*
X89636666Y-140749104D01*
X89636666Y-140749104D02*
X89589047Y-140891961D01*
X89589047Y-140891961D02*
X89493809Y-140987200D01*
X89493809Y-140987200D02*
X89350952Y-141034819D01*
X89350952Y-141034819D02*
X89255714Y-141034819D01*
X90589047Y-140034819D02*
X90112857Y-140034819D01*
X90112857Y-140034819D02*
X90065238Y-140511009D01*
X90065238Y-140511009D02*
X90112857Y-140463390D01*
X90112857Y-140463390D02*
X90208095Y-140415771D01*
X90208095Y-140415771D02*
X90446190Y-140415771D01*
X90446190Y-140415771D02*
X90541428Y-140463390D01*
X90541428Y-140463390D02*
X90589047Y-140511009D01*
X90589047Y-140511009D02*
X90636666Y-140606247D01*
X90636666Y-140606247D02*
X90636666Y-140844342D01*
X90636666Y-140844342D02*
X90589047Y-140939580D01*
X90589047Y-140939580D02*
X90541428Y-140987200D01*
X90541428Y-140987200D02*
X90446190Y-141034819D01*
X90446190Y-141034819D02*
X90208095Y-141034819D01*
X90208095Y-141034819D02*
X90112857Y-140987200D01*
X90112857Y-140987200D02*
X90065238Y-140939580D01*
X71636666Y-105034819D02*
X71636666Y-105749104D01*
X71636666Y-105749104D02*
X71589047Y-105891961D01*
X71589047Y-105891961D02*
X71493809Y-105987200D01*
X71493809Y-105987200D02*
X71350952Y-106034819D01*
X71350952Y-106034819D02*
X71255714Y-106034819D01*
X72541428Y-105368152D02*
X72541428Y-106034819D01*
X72303333Y-104987200D02*
X72065238Y-105701485D01*
X72065238Y-105701485D02*
X72684285Y-105701485D01*
X71636666Y-124534819D02*
X71636666Y-125249104D01*
X71636666Y-125249104D02*
X71589047Y-125391961D01*
X71589047Y-125391961D02*
X71493809Y-125487200D01*
X71493809Y-125487200D02*
X71350952Y-125534819D01*
X71350952Y-125534819D02*
X71255714Y-125534819D01*
X72017619Y-124534819D02*
X72636666Y-124534819D01*
X72636666Y-124534819D02*
X72303333Y-124915771D01*
X72303333Y-124915771D02*
X72446190Y-124915771D01*
X72446190Y-124915771D02*
X72541428Y-124963390D01*
X72541428Y-124963390D02*
X72589047Y-125011009D01*
X72589047Y-125011009D02*
X72636666Y-125106247D01*
X72636666Y-125106247D02*
X72636666Y-125344342D01*
X72636666Y-125344342D02*
X72589047Y-125439580D01*
X72589047Y-125439580D02*
X72541428Y-125487200D01*
X72541428Y-125487200D02*
X72446190Y-125534819D01*
X72446190Y-125534819D02*
X72160476Y-125534819D01*
X72160476Y-125534819D02*
X72065238Y-125487200D01*
X72065238Y-125487200D02*
X72017619Y-125439580D01*
X81211009Y-103298095D02*
X81211009Y-103631428D01*
X81734819Y-103631428D02*
X80734819Y-103631428D01*
X80734819Y-103631428D02*
X80734819Y-103155238D01*
X81734819Y-102774285D02*
X80734819Y-102774285D01*
X80734819Y-102774285D02*
X81449104Y-102440952D01*
X81449104Y-102440952D02*
X80734819Y-102107619D01*
X80734819Y-102107619D02*
X81734819Y-102107619D01*
X81830057Y-101869524D02*
X81830057Y-101107619D01*
X81449104Y-100917142D02*
X81449104Y-100440952D01*
X81734819Y-101012380D02*
X80734819Y-100679047D01*
X80734819Y-100679047D02*
X81734819Y-100345714D01*
X81734819Y-100012380D02*
X80734819Y-100012380D01*
X80734819Y-100012380D02*
X81449104Y-99679047D01*
X81449104Y-99679047D02*
X80734819Y-99345714D01*
X80734819Y-99345714D02*
X81734819Y-99345714D01*
X80734819Y-98679047D02*
X80734819Y-98488571D01*
X80734819Y-98488571D02*
X80782438Y-98393333D01*
X80782438Y-98393333D02*
X80877676Y-98298095D01*
X80877676Y-98298095D02*
X81068152Y-98250476D01*
X81068152Y-98250476D02*
X81401485Y-98250476D01*
X81401485Y-98250476D02*
X81591961Y-98298095D01*
X81591961Y-98298095D02*
X81687200Y-98393333D01*
X81687200Y-98393333D02*
X81734819Y-98488571D01*
X81734819Y-98488571D02*
X81734819Y-98679047D01*
X81734819Y-98679047D02*
X81687200Y-98774285D01*
X81687200Y-98774285D02*
X81591961Y-98869523D01*
X81591961Y-98869523D02*
X81401485Y-98917142D01*
X81401485Y-98917142D02*
X81068152Y-98917142D01*
X81068152Y-98917142D02*
X80877676Y-98869523D01*
X80877676Y-98869523D02*
X80782438Y-98774285D01*
X80782438Y-98774285D02*
X80734819Y-98679047D01*
X80734819Y-97821904D02*
X81544342Y-97821904D01*
X81544342Y-97821904D02*
X81639580Y-97774285D01*
X81639580Y-97774285D02*
X81687200Y-97726666D01*
X81687200Y-97726666D02*
X81734819Y-97631428D01*
X81734819Y-97631428D02*
X81734819Y-97440952D01*
X81734819Y-97440952D02*
X81687200Y-97345714D01*
X81687200Y-97345714D02*
X81639580Y-97298095D01*
X81639580Y-97298095D02*
X81544342Y-97250476D01*
X81544342Y-97250476D02*
X80734819Y-97250476D01*
X81734819Y-96774285D02*
X80734819Y-96774285D01*
X80734819Y-96774285D02*
X81734819Y-96202857D01*
X81734819Y-96202857D02*
X80734819Y-96202857D01*
X80734819Y-95869523D02*
X80734819Y-95298095D01*
X81734819Y-95583809D02*
X80734819Y-95583809D01*
X81734819Y-94440952D02*
X81734819Y-95012380D01*
X81734819Y-94726666D02*
X80734819Y-94726666D01*
X80734819Y-94726666D02*
X80877676Y-94821904D01*
X80877676Y-94821904D02*
X80972914Y-94917142D01*
X80972914Y-94917142D02*
X81020533Y-95012380D01*
X96594819Y-100043333D02*
X96118628Y-100376666D01*
X96594819Y-100614761D02*
X95594819Y-100614761D01*
X95594819Y-100614761D02*
X95594819Y-100233809D01*
X95594819Y-100233809D02*
X95642438Y-100138571D01*
X95642438Y-100138571D02*
X95690057Y-100090952D01*
X95690057Y-100090952D02*
X95785295Y-100043333D01*
X95785295Y-100043333D02*
X95928152Y-100043333D01*
X95928152Y-100043333D02*
X96023390Y-100090952D01*
X96023390Y-100090952D02*
X96071009Y-100138571D01*
X96071009Y-100138571D02*
X96118628Y-100233809D01*
X96118628Y-100233809D02*
X96118628Y-100614761D01*
X96071009Y-99614761D02*
X96071009Y-99281428D01*
X96594819Y-99138571D02*
X96594819Y-99614761D01*
X96594819Y-99614761D02*
X95594819Y-99614761D01*
X95594819Y-99614761D02*
X95594819Y-99138571D01*
X96071009Y-98376666D02*
X96071009Y-98709999D01*
X96594819Y-98709999D02*
X95594819Y-98709999D01*
X95594819Y-98709999D02*
X95594819Y-98233809D01*
X95594819Y-97709999D02*
X95832914Y-97709999D01*
X95737676Y-97948094D02*
X95832914Y-97709999D01*
X95832914Y-97709999D02*
X95737676Y-97471904D01*
X96023390Y-97852856D02*
X95832914Y-97709999D01*
X95832914Y-97709999D02*
X96023390Y-97567142D01*
X95594819Y-96948094D02*
X95832914Y-96948094D01*
X95737676Y-97186189D02*
X95832914Y-96948094D01*
X95832914Y-96948094D02*
X95737676Y-96709999D01*
X96023390Y-97090951D02*
X95832914Y-96948094D01*
X95832914Y-96948094D02*
X96023390Y-96805237D01*
X82314819Y-129650475D02*
X81314819Y-129650475D01*
X81314819Y-129650475D02*
X81314819Y-129269523D01*
X81314819Y-129269523D02*
X81362438Y-129174285D01*
X81362438Y-129174285D02*
X81410057Y-129126666D01*
X81410057Y-129126666D02*
X81505295Y-129079047D01*
X81505295Y-129079047D02*
X81648152Y-129079047D01*
X81648152Y-129079047D02*
X81743390Y-129126666D01*
X81743390Y-129126666D02*
X81791009Y-129174285D01*
X81791009Y-129174285D02*
X81838628Y-129269523D01*
X81838628Y-129269523D02*
X81838628Y-129650475D01*
X81314819Y-128650475D02*
X82124342Y-128650475D01*
X82124342Y-128650475D02*
X82219580Y-128602856D01*
X82219580Y-128602856D02*
X82267200Y-128555237D01*
X82267200Y-128555237D02*
X82314819Y-128459999D01*
X82314819Y-128459999D02*
X82314819Y-128269523D01*
X82314819Y-128269523D02*
X82267200Y-128174285D01*
X82267200Y-128174285D02*
X82219580Y-128126666D01*
X82219580Y-128126666D02*
X82124342Y-128079047D01*
X82124342Y-128079047D02*
X81314819Y-128079047D01*
X82314819Y-127126666D02*
X82314819Y-127602856D01*
X82314819Y-127602856D02*
X81314819Y-127602856D01*
X82267200Y-126840951D02*
X82314819Y-126698094D01*
X82314819Y-126698094D02*
X82314819Y-126459999D01*
X82314819Y-126459999D02*
X82267200Y-126364761D01*
X82267200Y-126364761D02*
X82219580Y-126317142D01*
X82219580Y-126317142D02*
X82124342Y-126269523D01*
X82124342Y-126269523D02*
X82029104Y-126269523D01*
X82029104Y-126269523D02*
X81933866Y-126317142D01*
X81933866Y-126317142D02*
X81886247Y-126364761D01*
X81886247Y-126364761D02*
X81838628Y-126459999D01*
X81838628Y-126459999D02*
X81791009Y-126650475D01*
X81791009Y-126650475D02*
X81743390Y-126745713D01*
X81743390Y-126745713D02*
X81695771Y-126793332D01*
X81695771Y-126793332D02*
X81600533Y-126840951D01*
X81600533Y-126840951D02*
X81505295Y-126840951D01*
X81505295Y-126840951D02*
X81410057Y-126793332D01*
X81410057Y-126793332D02*
X81362438Y-126745713D01*
X81362438Y-126745713D02*
X81314819Y-126650475D01*
X81314819Y-126650475D02*
X81314819Y-126412380D01*
X81314819Y-126412380D02*
X81362438Y-126269523D01*
X81791009Y-125840951D02*
X81791009Y-125507618D01*
X82314819Y-125364761D02*
X82314819Y-125840951D01*
X82314819Y-125840951D02*
X81314819Y-125840951D01*
X81314819Y-125840951D02*
X81314819Y-125364761D01*
X82410057Y-125174285D02*
X82410057Y-124412380D01*
X81314819Y-124269522D02*
X82314819Y-124031427D01*
X82314819Y-124031427D02*
X81600533Y-123840951D01*
X81600533Y-123840951D02*
X82314819Y-123650475D01*
X82314819Y-123650475D02*
X81314819Y-123412380D01*
X82314819Y-123031427D02*
X81314819Y-123031427D01*
X82314819Y-122555237D02*
X81314819Y-122555237D01*
X81314819Y-122555237D02*
X81314819Y-122317142D01*
X81314819Y-122317142D02*
X81362438Y-122174285D01*
X81362438Y-122174285D02*
X81457676Y-122079047D01*
X81457676Y-122079047D02*
X81552914Y-122031428D01*
X81552914Y-122031428D02*
X81743390Y-121983809D01*
X81743390Y-121983809D02*
X81886247Y-121983809D01*
X81886247Y-121983809D02*
X82076723Y-122031428D01*
X82076723Y-122031428D02*
X82171961Y-122079047D01*
X82171961Y-122079047D02*
X82267200Y-122174285D01*
X82267200Y-122174285D02*
X82314819Y-122317142D01*
X82314819Y-122317142D02*
X82314819Y-122555237D01*
X81314819Y-121698094D02*
X81314819Y-121126666D01*
X82314819Y-121412380D02*
X81314819Y-121412380D01*
X82314819Y-120793332D02*
X81314819Y-120793332D01*
X81791009Y-120793332D02*
X81791009Y-120221904D01*
X82314819Y-120221904D02*
X81314819Y-120221904D01*
X82314819Y-119221904D02*
X82314819Y-119793332D01*
X82314819Y-119507618D02*
X81314819Y-119507618D01*
X81314819Y-119507618D02*
X81457676Y-119602856D01*
X81457676Y-119602856D02*
X81552914Y-119698094D01*
X81552914Y-119698094D02*
X81600533Y-119793332D01*
X96974819Y-124123333D02*
X96498628Y-124456666D01*
X96974819Y-124694761D02*
X95974819Y-124694761D01*
X95974819Y-124694761D02*
X95974819Y-124313809D01*
X95974819Y-124313809D02*
X96022438Y-124218571D01*
X96022438Y-124218571D02*
X96070057Y-124170952D01*
X96070057Y-124170952D02*
X96165295Y-124123333D01*
X96165295Y-124123333D02*
X96308152Y-124123333D01*
X96308152Y-124123333D02*
X96403390Y-124170952D01*
X96403390Y-124170952D02*
X96451009Y-124218571D01*
X96451009Y-124218571D02*
X96498628Y-124313809D01*
X96498628Y-124313809D02*
X96498628Y-124694761D01*
X96451009Y-123694761D02*
X96451009Y-123361428D01*
X96974819Y-123218571D02*
X96974819Y-123694761D01*
X96974819Y-123694761D02*
X95974819Y-123694761D01*
X95974819Y-123694761D02*
X95974819Y-123218571D01*
X96451009Y-122456666D02*
X96451009Y-122789999D01*
X96974819Y-122789999D02*
X95974819Y-122789999D01*
X95974819Y-122789999D02*
X95974819Y-122313809D01*
X95974819Y-121789999D02*
X96212914Y-121789999D01*
X96117676Y-122028094D02*
X96212914Y-121789999D01*
X96212914Y-121789999D02*
X96117676Y-121551904D01*
X96403390Y-121932856D02*
X96212914Y-121789999D01*
X96212914Y-121789999D02*
X96403390Y-121647142D01*
X95974819Y-121028094D02*
X96212914Y-121028094D01*
X96117676Y-121266189D02*
X96212914Y-121028094D01*
X96212914Y-121028094D02*
X96117676Y-120789999D01*
X96403390Y-121170951D02*
X96212914Y-121028094D01*
X96212914Y-121028094D02*
X96403390Y-120885237D01*
X94781905Y-58494819D02*
X94781905Y-57494819D01*
X94781905Y-57494819D02*
X95020000Y-57494819D01*
X95020000Y-57494819D02*
X95162857Y-57542438D01*
X95162857Y-57542438D02*
X95258095Y-57637676D01*
X95258095Y-57637676D02*
X95305714Y-57732914D01*
X95305714Y-57732914D02*
X95353333Y-57923390D01*
X95353333Y-57923390D02*
X95353333Y-58066247D01*
X95353333Y-58066247D02*
X95305714Y-58256723D01*
X95305714Y-58256723D02*
X95258095Y-58351961D01*
X95258095Y-58351961D02*
X95162857Y-58447200D01*
X95162857Y-58447200D02*
X95020000Y-58494819D01*
X95020000Y-58494819D02*
X94781905Y-58494819D01*
X95686667Y-57494819D02*
X96305714Y-57494819D01*
X96305714Y-57494819D02*
X95972381Y-57875771D01*
X95972381Y-57875771D02*
X96115238Y-57875771D01*
X96115238Y-57875771D02*
X96210476Y-57923390D01*
X96210476Y-57923390D02*
X96258095Y-57971009D01*
X96258095Y-57971009D02*
X96305714Y-58066247D01*
X96305714Y-58066247D02*
X96305714Y-58304342D01*
X96305714Y-58304342D02*
X96258095Y-58399580D01*
X96258095Y-58399580D02*
X96210476Y-58447200D01*
X96210476Y-58447200D02*
X96115238Y-58494819D01*
X96115238Y-58494819D02*
X95829524Y-58494819D01*
X95829524Y-58494819D02*
X95734286Y-58447200D01*
X95734286Y-58447200D02*
X95686667Y-58399580D01*
X92547142Y-71324819D02*
X92213809Y-70848628D01*
X91975714Y-71324819D02*
X91975714Y-70324819D01*
X91975714Y-70324819D02*
X92356666Y-70324819D01*
X92356666Y-70324819D02*
X92451904Y-70372438D01*
X92451904Y-70372438D02*
X92499523Y-70420057D01*
X92499523Y-70420057D02*
X92547142Y-70515295D01*
X92547142Y-70515295D02*
X92547142Y-70658152D01*
X92547142Y-70658152D02*
X92499523Y-70753390D01*
X92499523Y-70753390D02*
X92451904Y-70801009D01*
X92451904Y-70801009D02*
X92356666Y-70848628D01*
X92356666Y-70848628D02*
X91975714Y-70848628D01*
X93499523Y-71324819D02*
X92928095Y-71324819D01*
X93213809Y-71324819D02*
X93213809Y-70324819D01*
X93213809Y-70324819D02*
X93118571Y-70467676D01*
X93118571Y-70467676D02*
X93023333Y-70562914D01*
X93023333Y-70562914D02*
X92928095Y-70610533D01*
X94070952Y-70753390D02*
X93975714Y-70705771D01*
X93975714Y-70705771D02*
X93928095Y-70658152D01*
X93928095Y-70658152D02*
X93880476Y-70562914D01*
X93880476Y-70562914D02*
X93880476Y-70515295D01*
X93880476Y-70515295D02*
X93928095Y-70420057D01*
X93928095Y-70420057D02*
X93975714Y-70372438D01*
X93975714Y-70372438D02*
X94070952Y-70324819D01*
X94070952Y-70324819D02*
X94261428Y-70324819D01*
X94261428Y-70324819D02*
X94356666Y-70372438D01*
X94356666Y-70372438D02*
X94404285Y-70420057D01*
X94404285Y-70420057D02*
X94451904Y-70515295D01*
X94451904Y-70515295D02*
X94451904Y-70562914D01*
X94451904Y-70562914D02*
X94404285Y-70658152D01*
X94404285Y-70658152D02*
X94356666Y-70705771D01*
X94356666Y-70705771D02*
X94261428Y-70753390D01*
X94261428Y-70753390D02*
X94070952Y-70753390D01*
X94070952Y-70753390D02*
X93975714Y-70801009D01*
X93975714Y-70801009D02*
X93928095Y-70848628D01*
X93928095Y-70848628D02*
X93880476Y-70943866D01*
X93880476Y-70943866D02*
X93880476Y-71134342D01*
X93880476Y-71134342D02*
X93928095Y-71229580D01*
X93928095Y-71229580D02*
X93975714Y-71277200D01*
X93975714Y-71277200D02*
X94070952Y-71324819D01*
X94070952Y-71324819D02*
X94261428Y-71324819D01*
X94261428Y-71324819D02*
X94356666Y-71277200D01*
X94356666Y-71277200D02*
X94404285Y-71229580D01*
X94404285Y-71229580D02*
X94451904Y-71134342D01*
X94451904Y-71134342D02*
X94451904Y-70943866D01*
X94451904Y-70943866D02*
X94404285Y-70848628D01*
X94404285Y-70848628D02*
X94356666Y-70801009D01*
X94356666Y-70801009D02*
X94261428Y-70753390D01*
X92499523Y-68954819D02*
X91928095Y-68954819D01*
X92213809Y-68954819D02*
X92213809Y-67954819D01*
X92213809Y-67954819D02*
X92118571Y-68097676D01*
X92118571Y-68097676D02*
X92023333Y-68192914D01*
X92023333Y-68192914D02*
X91928095Y-68240533D01*
X93118571Y-67954819D02*
X93213809Y-67954819D01*
X93213809Y-67954819D02*
X93309047Y-68002438D01*
X93309047Y-68002438D02*
X93356666Y-68050057D01*
X93356666Y-68050057D02*
X93404285Y-68145295D01*
X93404285Y-68145295D02*
X93451904Y-68335771D01*
X93451904Y-68335771D02*
X93451904Y-68573866D01*
X93451904Y-68573866D02*
X93404285Y-68764342D01*
X93404285Y-68764342D02*
X93356666Y-68859580D01*
X93356666Y-68859580D02*
X93309047Y-68907200D01*
X93309047Y-68907200D02*
X93213809Y-68954819D01*
X93213809Y-68954819D02*
X93118571Y-68954819D01*
X93118571Y-68954819D02*
X93023333Y-68907200D01*
X93023333Y-68907200D02*
X92975714Y-68859580D01*
X92975714Y-68859580D02*
X92928095Y-68764342D01*
X92928095Y-68764342D02*
X92880476Y-68573866D01*
X92880476Y-68573866D02*
X92880476Y-68335771D01*
X92880476Y-68335771D02*
X92928095Y-68145295D01*
X92928095Y-68145295D02*
X92975714Y-68050057D01*
X92975714Y-68050057D02*
X93023333Y-68002438D01*
X93023333Y-68002438D02*
X93118571Y-67954819D01*
X93880476Y-68954819D02*
X93880476Y-67954819D01*
X94451904Y-68954819D02*
X94023333Y-68383390D01*
X94451904Y-67954819D02*
X93880476Y-68526247D01*
X102666666Y-59624819D02*
X102666666Y-60339104D01*
X102666666Y-60339104D02*
X102619047Y-60481961D01*
X102619047Y-60481961D02*
X102523809Y-60577200D01*
X102523809Y-60577200D02*
X102380952Y-60624819D01*
X102380952Y-60624819D02*
X102285714Y-60624819D01*
X103666666Y-60624819D02*
X103095238Y-60624819D01*
X103380952Y-60624819D02*
X103380952Y-59624819D01*
X103380952Y-59624819D02*
X103285714Y-59767676D01*
X103285714Y-59767676D02*
X103190476Y-59862914D01*
X103190476Y-59862914D02*
X103095238Y-59910533D01*
X43066666Y-48954819D02*
X42733333Y-48478628D01*
X42495238Y-48954819D02*
X42495238Y-47954819D01*
X42495238Y-47954819D02*
X42876190Y-47954819D01*
X42876190Y-47954819D02*
X42971428Y-48002438D01*
X42971428Y-48002438D02*
X43019047Y-48050057D01*
X43019047Y-48050057D02*
X43066666Y-48145295D01*
X43066666Y-48145295D02*
X43066666Y-48288152D01*
X43066666Y-48288152D02*
X43019047Y-48383390D01*
X43019047Y-48383390D02*
X42971428Y-48431009D01*
X42971428Y-48431009D02*
X42876190Y-48478628D01*
X42876190Y-48478628D02*
X42495238Y-48478628D01*
X43495238Y-48431009D02*
X43828571Y-48431009D01*
X43971428Y-48954819D02*
X43495238Y-48954819D01*
X43495238Y-48954819D02*
X43495238Y-47954819D01*
X43495238Y-47954819D02*
X43971428Y-47954819D01*
X44733333Y-48431009D02*
X44400000Y-48431009D01*
X44400000Y-48954819D02*
X44400000Y-47954819D01*
X44400000Y-47954819D02*
X44876190Y-47954819D01*
X45400000Y-47954819D02*
X45400000Y-48192914D01*
X45161905Y-48097676D02*
X45400000Y-48192914D01*
X45400000Y-48192914D02*
X45638095Y-48097676D01*
X45257143Y-48383390D02*
X45400000Y-48192914D01*
X45400000Y-48192914D02*
X45542857Y-48383390D01*
X46161905Y-47954819D02*
X46161905Y-48192914D01*
X45923810Y-48097676D02*
X46161905Y-48192914D01*
X46161905Y-48192914D02*
X46400000Y-48097676D01*
X46019048Y-48383390D02*
X46161905Y-48192914D01*
X46161905Y-48192914D02*
X46304762Y-48383390D01*
X64266666Y-171454819D02*
X63933333Y-170978628D01*
X63695238Y-171454819D02*
X63695238Y-170454819D01*
X63695238Y-170454819D02*
X64076190Y-170454819D01*
X64076190Y-170454819D02*
X64171428Y-170502438D01*
X64171428Y-170502438D02*
X64219047Y-170550057D01*
X64219047Y-170550057D02*
X64266666Y-170645295D01*
X64266666Y-170645295D02*
X64266666Y-170788152D01*
X64266666Y-170788152D02*
X64219047Y-170883390D01*
X64219047Y-170883390D02*
X64171428Y-170931009D01*
X64171428Y-170931009D02*
X64076190Y-170978628D01*
X64076190Y-170978628D02*
X63695238Y-170978628D01*
X64695238Y-170931009D02*
X65028571Y-170931009D01*
X65171428Y-171454819D02*
X64695238Y-171454819D01*
X64695238Y-171454819D02*
X64695238Y-170454819D01*
X64695238Y-170454819D02*
X65171428Y-170454819D01*
X65933333Y-170931009D02*
X65600000Y-170931009D01*
X65600000Y-171454819D02*
X65600000Y-170454819D01*
X65600000Y-170454819D02*
X66076190Y-170454819D01*
X66600000Y-170454819D02*
X66600000Y-170692914D01*
X66361905Y-170597676D02*
X66600000Y-170692914D01*
X66600000Y-170692914D02*
X66838095Y-170597676D01*
X66457143Y-170883390D02*
X66600000Y-170692914D01*
X66600000Y-170692914D02*
X66742857Y-170883390D01*
X67361905Y-170454819D02*
X67361905Y-170692914D01*
X67123810Y-170597676D02*
X67361905Y-170692914D01*
X67361905Y-170692914D02*
X67600000Y-170597676D01*
X67219048Y-170883390D02*
X67361905Y-170692914D01*
X67361905Y-170692914D02*
X67504762Y-170883390D01*
X70006819Y-171767333D02*
X69530628Y-172100666D01*
X70006819Y-172338761D02*
X69006819Y-172338761D01*
X69006819Y-172338761D02*
X69006819Y-171957809D01*
X69006819Y-171957809D02*
X69054438Y-171862571D01*
X69054438Y-171862571D02*
X69102057Y-171814952D01*
X69102057Y-171814952D02*
X69197295Y-171767333D01*
X69197295Y-171767333D02*
X69340152Y-171767333D01*
X69340152Y-171767333D02*
X69435390Y-171814952D01*
X69435390Y-171814952D02*
X69483009Y-171862571D01*
X69483009Y-171862571D02*
X69530628Y-171957809D01*
X69530628Y-171957809D02*
X69530628Y-172338761D01*
X69483009Y-171338761D02*
X69483009Y-171005428D01*
X70006819Y-170862571D02*
X70006819Y-171338761D01*
X70006819Y-171338761D02*
X69006819Y-171338761D01*
X69006819Y-171338761D02*
X69006819Y-170862571D01*
X69483009Y-170100666D02*
X69483009Y-170433999D01*
X70006819Y-170433999D02*
X69006819Y-170433999D01*
X69006819Y-170433999D02*
X69006819Y-169957809D01*
X69006819Y-169433999D02*
X69244914Y-169433999D01*
X69149676Y-169672094D02*
X69244914Y-169433999D01*
X69244914Y-169433999D02*
X69149676Y-169195904D01*
X69435390Y-169576856D02*
X69244914Y-169433999D01*
X69244914Y-169433999D02*
X69435390Y-169291142D01*
X69006819Y-168672094D02*
X69244914Y-168672094D01*
X69149676Y-168910189D02*
X69244914Y-168672094D01*
X69244914Y-168672094D02*
X69149676Y-168433999D01*
X69435390Y-168814951D02*
X69244914Y-168672094D01*
X69244914Y-168672094D02*
X69435390Y-168529237D01*
X70006819Y-162877333D02*
X69530628Y-163210666D01*
X70006819Y-163448761D02*
X69006819Y-163448761D01*
X69006819Y-163448761D02*
X69006819Y-163067809D01*
X69006819Y-163067809D02*
X69054438Y-162972571D01*
X69054438Y-162972571D02*
X69102057Y-162924952D01*
X69102057Y-162924952D02*
X69197295Y-162877333D01*
X69197295Y-162877333D02*
X69340152Y-162877333D01*
X69340152Y-162877333D02*
X69435390Y-162924952D01*
X69435390Y-162924952D02*
X69483009Y-162972571D01*
X69483009Y-162972571D02*
X69530628Y-163067809D01*
X69530628Y-163067809D02*
X69530628Y-163448761D01*
X69483009Y-162448761D02*
X69483009Y-162115428D01*
X70006819Y-161972571D02*
X70006819Y-162448761D01*
X70006819Y-162448761D02*
X69006819Y-162448761D01*
X69006819Y-162448761D02*
X69006819Y-161972571D01*
X69483009Y-161210666D02*
X69483009Y-161543999D01*
X70006819Y-161543999D02*
X69006819Y-161543999D01*
X69006819Y-161543999D02*
X69006819Y-161067809D01*
X69006819Y-160543999D02*
X69244914Y-160543999D01*
X69149676Y-160782094D02*
X69244914Y-160543999D01*
X69244914Y-160543999D02*
X69149676Y-160305904D01*
X69435390Y-160686856D02*
X69244914Y-160543999D01*
X69244914Y-160543999D02*
X69435390Y-160401142D01*
X69006819Y-159782094D02*
X69244914Y-159782094D01*
X69149676Y-160020189D02*
X69244914Y-159782094D01*
X69244914Y-159782094D02*
X69149676Y-159543999D01*
X69435390Y-159924951D02*
X69244914Y-159782094D01*
X69244914Y-159782094D02*
X69435390Y-159639237D01*
X70006819Y-167957333D02*
X69530628Y-168290666D01*
X70006819Y-168528761D02*
X69006819Y-168528761D01*
X69006819Y-168528761D02*
X69006819Y-168147809D01*
X69006819Y-168147809D02*
X69054438Y-168052571D01*
X69054438Y-168052571D02*
X69102057Y-168004952D01*
X69102057Y-168004952D02*
X69197295Y-167957333D01*
X69197295Y-167957333D02*
X69340152Y-167957333D01*
X69340152Y-167957333D02*
X69435390Y-168004952D01*
X69435390Y-168004952D02*
X69483009Y-168052571D01*
X69483009Y-168052571D02*
X69530628Y-168147809D01*
X69530628Y-168147809D02*
X69530628Y-168528761D01*
X69483009Y-167528761D02*
X69483009Y-167195428D01*
X70006819Y-167052571D02*
X70006819Y-167528761D01*
X70006819Y-167528761D02*
X69006819Y-167528761D01*
X69006819Y-167528761D02*
X69006819Y-167052571D01*
X69483009Y-166290666D02*
X69483009Y-166623999D01*
X70006819Y-166623999D02*
X69006819Y-166623999D01*
X69006819Y-166623999D02*
X69006819Y-166147809D01*
X69006819Y-165623999D02*
X69244914Y-165623999D01*
X69149676Y-165862094D02*
X69244914Y-165623999D01*
X69244914Y-165623999D02*
X69149676Y-165385904D01*
X69435390Y-165766856D02*
X69244914Y-165623999D01*
X69244914Y-165623999D02*
X69435390Y-165481142D01*
X69006819Y-164862094D02*
X69244914Y-164862094D01*
X69149676Y-165100189D02*
X69244914Y-164862094D01*
X69244914Y-164862094D02*
X69149676Y-164623999D01*
X69435390Y-165004951D02*
X69244914Y-164862094D01*
X69244914Y-164862094D02*
X69435390Y-164719237D01*
X70006819Y-157797333D02*
X69530628Y-158130666D01*
X70006819Y-158368761D02*
X69006819Y-158368761D01*
X69006819Y-158368761D02*
X69006819Y-157987809D01*
X69006819Y-157987809D02*
X69054438Y-157892571D01*
X69054438Y-157892571D02*
X69102057Y-157844952D01*
X69102057Y-157844952D02*
X69197295Y-157797333D01*
X69197295Y-157797333D02*
X69340152Y-157797333D01*
X69340152Y-157797333D02*
X69435390Y-157844952D01*
X69435390Y-157844952D02*
X69483009Y-157892571D01*
X69483009Y-157892571D02*
X69530628Y-157987809D01*
X69530628Y-157987809D02*
X69530628Y-158368761D01*
X69483009Y-157368761D02*
X69483009Y-157035428D01*
X70006819Y-156892571D02*
X70006819Y-157368761D01*
X70006819Y-157368761D02*
X69006819Y-157368761D01*
X69006819Y-157368761D02*
X69006819Y-156892571D01*
X69483009Y-156130666D02*
X69483009Y-156463999D01*
X70006819Y-156463999D02*
X69006819Y-156463999D01*
X69006819Y-156463999D02*
X69006819Y-155987809D01*
X69006819Y-155463999D02*
X69244914Y-155463999D01*
X69149676Y-155702094D02*
X69244914Y-155463999D01*
X69244914Y-155463999D02*
X69149676Y-155225904D01*
X69435390Y-155606856D02*
X69244914Y-155463999D01*
X69244914Y-155463999D02*
X69435390Y-155321142D01*
X69006819Y-154702094D02*
X69244914Y-154702094D01*
X69149676Y-154940189D02*
X69244914Y-154702094D01*
X69244914Y-154702094D02*
X69149676Y-154463999D01*
X69435390Y-154844951D02*
X69244914Y-154702094D01*
X69244914Y-154702094D02*
X69435390Y-154559237D01*
D14*
%TO.C,TUNING_FINE1*%
X84120000Y-84120000D02*
X84120000Y-79400000D01*
X85310000Y-84120000D02*
X84130000Y-84120000D01*
X88210000Y-84120000D02*
X87680000Y-84120000D01*
X90660000Y-84120000D02*
X89830000Y-84120000D01*
X93870000Y-84120000D02*
X92380000Y-84120000D01*
X93870000Y-84120000D02*
X93870000Y-79400000D01*
X84130000Y-75590000D02*
X84130000Y-72530000D01*
X93870000Y-75590000D02*
X93870000Y-72530000D01*
X93870000Y-72530000D02*
X84130000Y-72530000D01*
%TO.C,TUNING_COARSE1*%
X76520000Y-62620000D02*
X76520000Y-57900000D01*
X77710000Y-62620000D02*
X76530000Y-62620000D01*
X80610000Y-62620000D02*
X80080000Y-62620000D01*
X83060000Y-62620000D02*
X82230000Y-62620000D01*
X86270000Y-62620000D02*
X84780000Y-62620000D01*
X86270000Y-62620000D02*
X86270000Y-57900000D01*
X76530000Y-54090000D02*
X76530000Y-51030000D01*
X86270000Y-54090000D02*
X86270000Y-51030000D01*
X86270000Y-51030000D02*
X76530000Y-51030000D01*
%TO.C,SCALE1*%
X77280000Y-142235000D02*
X75494000Y-142235000D01*
X77280000Y-142235000D02*
X77280000Y-149185000D01*
X74504000Y-142235000D02*
X72540000Y-142235000D01*
X72540000Y-142235000D02*
X72540000Y-149185000D01*
X77280000Y-149185000D02*
X75494000Y-149185000D01*
X74504000Y-149185000D02*
X72540000Y-149185000D01*
%TO.C,J6*%
X78500000Y-141380000D02*
X78500000Y-151880000D01*
X81940000Y-138400000D02*
X81940000Y-139200000D01*
X81940000Y-138400000D02*
X82800000Y-138400000D01*
X82500000Y-151880000D02*
X78500000Y-151880000D01*
X82650000Y-141380000D02*
X78500000Y-141380000D01*
X87500000Y-141380000D02*
X83350000Y-141380000D01*
X87500000Y-141380000D02*
X87500000Y-151880000D01*
X87500000Y-151880000D02*
X83500000Y-151880000D01*
X84800000Y-145880000D02*
G75*
G03*
X84800000Y-145880000I-1800000J0D01*
G01*
%TO.C,J5*%
X89500000Y-141480000D02*
X89500000Y-151980000D01*
X92940000Y-138500000D02*
X92940000Y-139300000D01*
X92940000Y-138500000D02*
X93800000Y-138500000D01*
X93500000Y-151980000D02*
X89500000Y-151980000D01*
X93650000Y-141480000D02*
X89500000Y-141480000D01*
X98500000Y-141480000D02*
X94350000Y-141480000D01*
X98500000Y-141480000D02*
X98500000Y-151980000D01*
X98500000Y-151980000D02*
X94500000Y-151980000D01*
X95800000Y-145980000D02*
G75*
G03*
X95800000Y-145980000I-1800000J0D01*
G01*
%TO.C,J4*%
X71500000Y-106480000D02*
X71500000Y-116980000D01*
X74940000Y-103500000D02*
X74940000Y-104300000D01*
X74940000Y-103500000D02*
X75800000Y-103500000D01*
X75500000Y-116980000D02*
X71500000Y-116980000D01*
X75650000Y-106480000D02*
X71500000Y-106480000D01*
X80500000Y-106480000D02*
X76350000Y-106480000D01*
X80500000Y-106480000D02*
X80500000Y-116980000D01*
X80500000Y-116980000D02*
X76500000Y-116980000D01*
X77800000Y-110980000D02*
G75*
G03*
X77800000Y-110980000I-1800000J0D01*
G01*
%TO.C,J3*%
X71500000Y-125980000D02*
X71500000Y-136480000D01*
X74940000Y-123000000D02*
X74940000Y-123800000D01*
X74940000Y-123000000D02*
X75800000Y-123000000D01*
X75500000Y-136480000D02*
X71500000Y-136480000D01*
X75650000Y-125980000D02*
X71500000Y-125980000D01*
X80500000Y-125980000D02*
X76350000Y-125980000D01*
X80500000Y-125980000D02*
X80500000Y-136480000D01*
X80500000Y-136480000D02*
X76500000Y-136480000D01*
X77800000Y-130480000D02*
G75*
G03*
X77800000Y-130480000I-1800000J0D01*
G01*
%TO.C,FM_AMOUNT1*%
X93880000Y-92880000D02*
X93880000Y-97600000D01*
X92690000Y-92880000D02*
X93870000Y-92880000D01*
X89790000Y-92880000D02*
X90320000Y-92880000D01*
X87340000Y-92880000D02*
X88170000Y-92880000D01*
X84130000Y-92880000D02*
X85620000Y-92880000D01*
X84130000Y-92880000D02*
X84130000Y-97600000D01*
X93870000Y-101410000D02*
X93870000Y-104470000D01*
X84130000Y-101410000D02*
X84130000Y-104470000D01*
X84130000Y-104470000D02*
X93870000Y-104470000D01*
%TO.C,PULSE_WIDTH1*%
X84120000Y-128620000D02*
X84120000Y-123900000D01*
X85310000Y-128620000D02*
X84130000Y-128620000D01*
X88210000Y-128620000D02*
X87680000Y-128620000D01*
X90660000Y-128620000D02*
X89830000Y-128620000D01*
X93870000Y-128620000D02*
X92380000Y-128620000D01*
X93870000Y-128620000D02*
X93870000Y-123900000D01*
X84130000Y-120090000D02*
X84130000Y-117030000D01*
X93870000Y-120090000D02*
X93870000Y-117030000D01*
X93870000Y-117030000D02*
X84130000Y-117030000D01*
%TO.C,D3*%
X93960000Y-59764000D02*
X93960000Y-59920000D01*
X93960000Y-62080000D02*
X93960000Y-62236000D01*
X97192334Y-59921392D02*
G75*
G03*
X93960001Y-59764485I-1672334J-1078608D01*
G01*
X96561129Y-59920164D02*
G75*
G03*
X94479040Y-59920001I-1041129J-1079836D01*
G01*
X94479040Y-62079999D02*
G75*
G03*
X96561129Y-62079836I1040960J1079999D01*
G01*
X93960001Y-62235515D02*
G75*
G03*
X97192334Y-62078608I1559999J1235515D01*
G01*
%TO.C,R18*%
X96460000Y-69870000D02*
X89920000Y-69870000D01*
X96460000Y-69540000D02*
X96460000Y-69870000D01*
X96460000Y-67460000D02*
X96460000Y-67130000D01*
X96460000Y-67130000D02*
X89920000Y-67130000D01*
X89920000Y-69870000D02*
X89920000Y-69540000D01*
X89920000Y-67130000D02*
X89920000Y-67460000D01*
%TO.C,J1*%
X101670000Y-61170000D02*
X103000000Y-61170000D01*
X101670000Y-62500000D02*
X101670000Y-61170000D01*
X101670000Y-63770000D02*
X101670000Y-101930000D01*
X101670000Y-63770000D02*
X104330000Y-63770000D01*
X101670000Y-101930000D02*
X104330000Y-101930000D01*
X104330000Y-63770000D02*
X104330000Y-101930000D01*
%TO.C,REF\u002A\u002A*%
X70552000Y-171764000D02*
X70552000Y-170434000D01*
X71882000Y-171764000D02*
X70552000Y-171764000D01*
X73152000Y-171764000D02*
X129092000Y-171764000D01*
X73152000Y-171764000D02*
X73152000Y-169104000D01*
X129092000Y-171764000D02*
X129092000Y-169104000D01*
X73152000Y-169104000D02*
X129092000Y-169104000D01*
X70552000Y-164144000D02*
X70552000Y-162814000D01*
X71882000Y-164144000D02*
X70552000Y-164144000D01*
X73152000Y-164144000D02*
X129092000Y-164144000D01*
X73152000Y-164144000D02*
X73152000Y-161544000D01*
X129092000Y-164144000D02*
X129092000Y-158944000D01*
X70552000Y-161544000D02*
X70552000Y-158944000D01*
X73152000Y-161544000D02*
X70552000Y-161544000D01*
X70552000Y-158944000D02*
X129092000Y-158944000D01*
X70552000Y-169224000D02*
X70552000Y-167894000D01*
X71882000Y-169224000D02*
X70552000Y-169224000D01*
X73152000Y-169224000D02*
X129092000Y-169224000D01*
X73152000Y-169224000D02*
X73152000Y-166624000D01*
X129092000Y-169224000D02*
X129092000Y-164024000D01*
X70552000Y-166624000D02*
X70552000Y-164024000D01*
X73152000Y-166624000D02*
X70552000Y-166624000D01*
X70552000Y-164024000D02*
X129092000Y-164024000D01*
X70552000Y-159064000D02*
X70552000Y-157734000D01*
X71882000Y-159064000D02*
X70552000Y-159064000D01*
X73152000Y-159064000D02*
X129092000Y-159064000D01*
X73152000Y-159064000D02*
X73152000Y-156464000D01*
X129092000Y-159064000D02*
X129092000Y-153864000D01*
X70552000Y-156464000D02*
X70552000Y-153864000D01*
X73152000Y-156464000D02*
X70552000Y-156464000D01*
X70552000Y-153864000D02*
X129092000Y-153864000D01*
%TD*%
M02*
